<svg xmlns="http://www.w3.org/2000/svg" viewBox="0 0 20 20"><path d="M10 0C4.48 0 0 4.48 0 10s4.48 10 10 10 10-4.48 10-10S15.52 0 10 0zm0 19c-1.99 0-3.82-.66-5.31-1.75 0-2.93 2.38-5.31 5.31-5.31 2.93 0 5.31 2.38 5.31 5.31A8.964 8.964 0 0 1 10 19zM7.39 8.33c0-1.44 1.17-2.61 2.61-2.61s2.6 1.17 2.6 2.61-1.17 2.6-2.6 2.6-2.61-1.16-2.61-2.6zm8.87 8.13c-.3-2.41-1.97-4.4-4.2-5.17.93-.65 1.55-1.73 1.55-2.95 0-1.99-1.62-3.61-3.6-3.61-1.99 0-3.61 1.62-3.61 3.61 0 1.22.62 2.3 1.55 2.95-2.23.77-3.9 2.76-4.2 5.17A8.947 8.947 0 0 1 1 10c0-4.96 4.04-9 9-9s9 4.04 9 9c0 2.53-1.05 4.82-2.74 6.46z" fill="#333"/></svg>