<svg xmlns="http://www.w3.org/2000/svg" width="68" height="40" fill="#fff" aria-labelledby="amex-logo-outline" viewBox="0 0 68 40"><rect width="67" height="39" x=".5" y=".5" stroke="#0099E4" rx="1.5"/><path fill="#0099E4" fill-rule="evenodd" d="M12.371 20.716h3.59l-1.8-4.136zM40.701 16.967v1.886h5.773v2.118h-5.773v2.064h6.466l3.004-3.044-2.876-3.024z" clip-rule="evenodd"/><path fill="#0099E4" fill-rule="evenodd" d="M59.577 12.756H54.09l-2.172 2.217-2.034-2.217H35.706v.005h-5.737L28.256 16.5l-1.76-3.738h-8.042v1.71l-.884-1.71H10.71L3.98 27.24l3.547-.007h4.494l1.014-2.305h2.268l1.011 2.305h8.842v-1.763l.789 1.77h4.59l.79-1.796v1.789h4.381v.004h13.911l2.239-2.251 2.108 2.25 5.614.009h4.126L56.848 20l7.174-7.244zm-26.35 12.438-.01-8.126-3.813 8.126h-2.31l-3.823-8.133v8.133h-5.35l-1.01-2.314h-5.477l-1.02 2.314H7.557l4.71-10.375h3.908l4.473 9.823V14.82h4.292l3.442 7.038 3.163-7.038h4.16v10.375zm21.876.004-3.239-3.435-3.365 3.435H38.08V14.82H48.66l3.236 3.402 3.345-3.402H59l-1.404 1.115-4.038 4.092 5.108 5.236-1.07-.065z" clip-rule="evenodd"/></svg>