<svg xmlns="http://www.w3.org/2000/svg" width="89" height="23" fill="none"><path fill="#000" d="M13.338 10.647a4.38 4.38 0 0 1 2.084-3.673 4.48 4.48 0 0 0-3.53-1.91c-1.486-.155-2.927.89-3.684.89-.772 0-1.938-.874-3.192-.848A4.7 4.7 0 0 0 1.058 7.52c-1.71 2.962-.434 7.316 1.204 9.71.82 1.173 1.779 2.483 3.033 2.437 1.228-.052 1.686-.783 3.168-.783 1.467 0 1.897.783 3.176.753 1.317-.022 2.146-1.178 2.937-2.362a9.7 9.7 0 0 0 1.345-2.735 4.23 4.23 0 0 1-2.583-3.893M10.92 3.489a4.3 4.3 0 0 0 .986-3.088A4.39 4.39 0 0 0 9.07 1.87a4.1 4.1 0 0 0-1.012 2.973 3.63 3.63 0 0 0 2.864-1.354Zm17.93 13.209h-4.187l-1.006 2.97h-1.773L25.85 8.68h1.843l3.966 10.987h-1.804zm-3.754-1.371h3.32l-1.637-4.818h-.045zm15.13.336c0 2.489-1.332 4.088-3.343 4.088a2.72 2.72 0 0 1-2.52-1.4h-.038v3.966h-1.646v-10.66h1.593v1.332h.029a2.84 2.84 0 0 1 2.55-1.415c2.034 0 3.375 1.607 3.375 4.09Zm-1.69 0c0-1.622-.839-2.688-2.117-2.688-1.256 0-2.101 1.088-2.101 2.688 0 1.614.845 2.695 2.1 2.695 1.28 0 2.118-1.059 2.118-2.695m10.506 0c0 2.489-1.332 4.088-3.343 4.088a2.72 2.72 0 0 1-2.52-1.4h-.038v3.966h-1.645v-10.66h1.592v1.332h.03a2.84 2.84 0 0 1 2.551-1.415c2.033 0 3.373 1.607 3.373 4.09Zm-1.69 0c0-1.622-.838-2.688-2.117-2.688-1.256 0-2.1 1.088-2.1 2.688 0 1.614.844 2.695 2.1 2.695 1.279 0 2.118-1.059 2.118-2.695Zm7.517.943c.122 1.09 1.18 1.805 2.627 1.805 1.386 0 2.383-.715 2.383-1.698 0-.853-.602-1.362-2.026-1.713l-1.424-.343c-2.017-.486-2.954-1.43-2.954-2.962 0-1.895 1.652-3.197 3.998-3.197 2.322 0 3.913 1.302 3.967 3.197h-1.66c-.1-1.096-1.005-1.758-2.33-1.758s-2.231.67-2.231 1.644c0 .777.578 1.234 1.995 1.584l1.21.297c2.255.533 3.19 1.438 3.19 3.046 0 2.055-1.636 3.343-4.24 3.343-2.436 0-4.082-1.257-4.188-3.245zm10.294-6.844v1.895h1.524v1.302h-1.523v4.416c0 .687.305 1.006.974 1.006q.272-.005.541-.038v1.294a4.5 4.5 0 0 1-.913.076c-1.622 0-2.254-.61-2.254-2.163v-4.59h-1.165v-1.303h1.165V9.762zm2.406 5.901c0-2.52 1.485-4.104 3.8-4.104 2.322 0 3.8 1.584 3.8 4.104 0 2.527-1.47 4.104-3.8 4.104s-3.8-1.577-3.8-4.104m5.923 0c0-1.729-.791-2.75-2.124-2.75-1.332 0-2.123 1.028-2.123 2.75 0 1.736.79 2.748 2.123 2.748s2.124-1.012 2.124-2.748m3.032-4.006h1.568v1.363h.038a1.91 1.91 0 0 1 1.926-1.446q.286 0 .564.06v1.539a2.3 2.3 0 0 0-.739-.1 1.657 1.657 0 0 0-1.714 1.843v4.752h-1.643zM88.2 17.315c-.222 1.454-1.637 2.452-3.45 2.452-2.33 0-3.776-1.561-3.776-4.066 0-2.513 1.454-4.142 3.707-4.142 2.217 0 3.61 1.522 3.61 3.951v.564h-5.657v.099a2.086 2.086 0 0 0 2.155 2.268 1.81 1.81 0 0 0 1.849-1.126zm-5.558-2.39h4.004a1.926 1.926 0 0 0-1.964-2.034 2.03 2.03 0 0 0-2.04 2.033ZM24.89.411a2.336 2.336 0 0 1 2.484 2.623c0 1.687-.911 2.656-2.484 2.656h-1.907V.41zm-1.087 4.533h.996a1.66 1.66 0 0 0 1.74-1.9 1.664 1.664 0 0 0-1.74-1.887h-.996zM28.3 3.696a1.887 1.887 0 1 1 3.758 0 1.887 1.887 0 1 1-3.758 0m2.95 0c0-.863-.39-1.369-1.07-1.369-.683 0-1.067.506-1.067 1.37 0 .87.384 1.37 1.067 1.37s1.07-.504 1.07-1.37Zm5.802 1.994h-.815l-.823-2.934h-.062l-.82 2.934h-.808l-1.099-3.984h.798l.713 3.04h.06l.819-3.04h.754l.819 3.04h.062l.71-3.04h.787zm2.019-3.984h.756v.633h.058a1.19 1.19 0 0 1 1.19-.71 1.296 1.296 0 0 1 1.379 1.482v2.58h-.787V3.308c0-.641-.278-.96-.86-.96a.914.914 0 0 0-.95 1.01V5.69h-.786zM43.707.151h.785v5.538h-.785zm1.879 3.545a1.888 1.888 0 1 1 3.757 0 1.887 1.887 0 1 1-3.757 0m2.949 0c0-.863-.389-1.369-1.07-1.369-.683 0-1.067.506-1.067 1.37 0 .87.384 1.37 1.068 1.37.681 0 1.069-.504 1.069-1.37Zm1.636.867c0-.717.534-1.13 1.482-1.189l1.08-.062v-.344c0-.42-.279-.658-.816-.658-.44 0-.743.16-.83.442h-.762c.08-.684.724-1.124 1.628-1.124.998 0 1.562.499 1.562 1.34V5.69h-.757v-.56h-.062a1.34 1.34 0 0 1-1.197.626 1.204 1.204 0 0 1-1.329-1.193Zm2.56-.34V3.89l-.972.062c-.549.037-.797.224-.797.575 0 .358.31.566.738.566a.94.94 0 0 0 1.032-.87Zm1.817-.527c0-1.259.648-2.056 1.655-2.056a1.31 1.31 0 0 1 1.22.699h.06V.15h.786v5.538h-.753V5.06h-.062a1.38 1.38 0 0 1-1.252.695c-1.013 0-1.654-.797-1.654-2.06Zm.812 0c0 .845.398 1.354 1.065 1.354.663 0 1.072-.516 1.072-1.35 0-.83-.414-1.354-1.072-1.354-.662 0-1.065.513-1.065 1.35m6.162 0a1.886 1.886 0 1 1 3.757 0 1.887 1.887 0 1 1-3.757 0m2.949 0c0-.863-.388-1.369-1.07-1.369s-1.067.506-1.067 1.37c0 .87.385 1.37 1.068 1.37.681 0 1.069-.504 1.069-1.37Zm1.864-1.99h.756v.633h.059a1.19 1.19 0 0 1 1.189-.71 1.296 1.296 0 0 1 1.379 1.482v2.58h-.787V3.308c0-.641-.277-.96-.86-.96a.914.914 0 0 0-.95 1.01V5.69h-.787V1.706ZM74.16.714v1.01h.864v.663h-.864v2.048c0 .417.172.6.564.6q.15 0 .3-.018v.655a2.6 2.6 0 0 1-.428.04c-.874 0-1.222-.308-1.222-1.075v-2.25h-.633v-.663h.633V.714zm1.938-.563h.778v2.195h.063a1.23 1.23 0 0 1 1.215-.713 1.312 1.312 0 0 1 1.371 1.485V5.69h-.786V3.312c0-.637-.297-.959-.852-.959a.93.93 0 0 0-1.003 1.01V5.69h-.786zm8.012 4.463a1.62 1.62 0 0 1-1.725 1.153 1.81 1.81 0 0 1-1.841-2.057 1.836 1.836 0 0 1 1.837-2.08c1.108 0 1.777.757 1.777 2.008v.274h-2.814v.044a1.054 1.054 0 0 0 1.062 1.141.955.955 0 0 0 .947-.483zm-2.766-1.283h2.013a.963.963 0 0 0-.98-1.033 1.02 1.02 0 0 0-1.032 1.033Z"/></svg>