<svg xmlns="http://www.w3.org/2000/svg" width="16" height="17" fill="none" viewBox="0 0 16 17"><path fill="#000" d="M16 10.158c0 2.392-3.589 4.335-8 4.335s-8-1.943-8-4.335c0-2.187 3.154-4.076 7.185-4.305l.45-.023-2.31-2.125a.6.6 0 0 1-.114-.16.6.6 0 0 1-.045-.183q.002-.105.038-.198a.4.4 0 0 1 .106-.16.5.5 0 0 1 .343-.16h.023c.122 0 .244.045.335.137l3.284 3.063a.4.4 0 0 1 .115.167c.022.061.038.13.038.183a.5.5 0 0 1-.046.206.4.4 0 0 1-.114.16L6.019 9.815c-.107.092-.236.153-.366.13a.49.49 0 0 1-.45-.313.6.6 0 0 1-.037-.183.4.4 0 0 1 .045-.198.37.37 0 0 1 .115-.152l2.392-2.248-.526.03c-1.676.1-3.238.504-4.396 1.144-1.592.899-1.767 1.79-1.767 2.133s.175 1.25 1.767 2.133c1.372.762 3.223 1.174 5.204 1.174s3.832-.412 5.204-1.174c1.6-.883 1.767-1.783 1.767-2.133s-.167-1.234-1.767-2.133l-.16-.084c-.541-.297-1.006-.556-1.783-.74a.56.56 0 0 1-.434-.532c0-.153.076-.305.198-.397a.44.44 0 0 1 .396-.083C14.072 6.806 16 8.482 16 10.158"/></svg>