<svg xmlns="http://www.w3.org/2000/svg" width="20" height="20" fill="none" viewBox="0 0 20 20"><path fill="#000" fill-rule="evenodd" d="M6.98 2.153a.63.63 0 0 1 .52-.278h5c.209 0 .404.104.52.278l1.481 2.222H17.5a2.29 2.29 0 0 1 2.292 2.292v9.166a2.29 2.29 0 0 1-2.292 2.292h-15a2.29 2.29 0 0 1-2.292-2.292V6.667A2.29 2.29 0 0 1 2.5 4.375h2.999zm.855.972L6.353 5.347a.63.63 0 0 1-.52.278H2.5a1.04 1.04 0 0 0-1.042 1.042v9.166A1.04 1.04 0 0 0 2.5 16.875h15a1.04 1.04 0 0 0 1.042-1.042V6.667A1.04 1.04 0 0 0 17.5 5.625h-3.333a.63.63 0 0 1-.52-.278l-1.481-2.222zm2.165 5a2.708 2.708 0 1 0 0 5.417 2.708 2.708 0 0 0 0-5.417m-3.958 2.708a3.958 3.958 0 1 1 7.916 0 3.958 3.958 0 0 1-7.916 0" clip-rule="evenodd"/></svg>