<svg xmlns="http://www.w3.org/2000/svg" width="20" height="20" aria-labelledby="cart-plus-icon" viewBox="0 0 20 20"><desc>Cart plus</desc><path fill-rule="evenodd" d="M.208 1.667c0-.346.28-.625.625-.625h3.333c.295 0 .549.205.611.492L7.013 11.87a1.04 1.04 0 0 0 1.041.838h8.124a1.04 1.04 0 0 0 1.042-.836v-.002l1.332-6.987a.625.625 0 0 1 1.228.234l-1.334 6.996a2.29 2.29 0 0 1-2.285 1.845H8.07a2.29 2.29 0 0 1-2.283-1.84L3.662 2.292H.833a.625.625 0 0 1-.625-.624m11.75-.417c.345 0 .625.28.625.625v2.708h2.708a.625.625 0 1 1 0 1.25h-2.708v2.708a.625.625 0 1 1-1.25 0V5.833H8.625a.625.625 0 0 1 0-1.25h2.708V1.875c0-.345.28-.625.625-.625M8.177 16.588a.417.417 0 1 0 0 .834.417.417 0 0 0 0-.834m-1.667.417a1.667 1.667 0 1 1 3.333 0 1.667 1.667 0 0 1-3.333 0m9.922-.417a.417.417 0 1 0 0 .834.417.417 0 0 0 0-.834m-1.667.417a1.667 1.667 0 1 1 3.334 0 1.667 1.667 0 0 1-3.334 0" clip-rule="evenodd"/></svg>