<svg
  fill="none"
  height="57"
  viewBox="0 0 64 57"
  width="64"
  xmlns="http://www.w3.org/2000/svg"
>
  <path
    clip-rule="evenodd"
    d="M45 5a5 5 0 11-10 0 5 5 0 0110 0zM31.947 28.285l.008-.013c.734-1.328-1.23-1.896-2.1-2.077-7.373-1.53-11.249-6.026-11.522-13.863-.028-.805-.723-2.123-1.626-1.951-.65.126-1.298 1.02-1.435 1.634-.927 4.15-2.97 8.099-6.747 10.118-1.466.783-3.074 1.238-4.703 1.461a9.671 9.671 0 01-.704.054c-1.176.064-2.902.158-3.105 1.39-.219 1.322 2.362 2.15 4 2.675.457.146.84.27 1.07.373 1.553.703 3.001 1.66 4.189 2.92 2.472 2.62 3.483 6.223 3.66 9.805.106 2.113 2.7 2.246 3.082.257.695-3.598 2.302-7.041 5.283-9.175 1.317-1.056 3.23-1.467 4.86-1.818l.313-.067.442-.096c.94-.204 1.882-.408 2.81-.673a7.14 7.14 0 01.526-.12c.608-.123 1.336-.27 1.637-.733.018-.026.034-.054.05-.08l.012-.021zm8.819 7.348l-.015-.024c-.524-.95.878-1.355 1.5-1.484 5.266-1.093 8.035-4.304 8.23-9.902.02-.575.516-1.517 1.161-1.394.466.09.927.728 1.025 1.167.662 2.965 2.122 5.785 4.82 7.228 1.047.559 2.196.884 3.359 1.043.134.018.308.028.503.039.84.045 2.073.113 2.218.992.156.945-1.687 1.536-2.857 1.911-.327.105-.6.193-.765.267-1.109.502-2.143 1.186-2.992 2.085-1.766 1.872-2.488 4.445-2.614 7.004-.076 1.51-1.928 1.604-2.201.183-.497-2.57-1.645-5.029-3.774-6.553-.94-.754-2.307-1.048-3.472-1.299l-.223-.048-.116-.025-.2-.043a31.403 31.403 0 01-2.007-.48c-.108-.032-.238-.058-.375-.086-.435-.088-.955-.193-1.17-.524a.975.975 0 01-.035-.057zM26.5 57c2.485 0 4.5-1.79 4.5-4s-2.015-4-4.5-4-4.5 1.79-4.5 4 2.015 4 4.5 4z"
    fill="#30d8a4"
    fill-rule="evenodd"
  />
</svg>
