<svg xmlns="http://www.w3.org/2000/svg" width="68" height="40" fill="#fff" aria-labelledby="discover-logo-outline" viewBox="0 0 68 40"><rect width="67" height="39" x=".5" y=".5" stroke="#E7772F" rx="1.5"/><path fill="#000" fill-rule="evenodd" d="M12.86 21.928c-.501.428-1.138.615-2.157.615h-.423v-5.107h.423c1.019 0 1.631.175 2.156.624.542.464.867 1.18.867 1.921 0 .744-.325 1.486-.867 1.947m-1.842-5.8H8.705v7.724h2.3c1.223 0 2.106-.28 2.88-.894.92-.728 1.465-1.827 1.465-2.966 0-2.28-1.78-3.864-4.332-3.864M16.076 16.128h1.568v7.724h-1.568zM21.496 19.088c-.947-.332-1.223-.553-1.223-.97 0-.486.494-.854 1.174-.854.472 0 .86.18 1.274.622l.819-1.028a3.6 3.6 0 0 0-2.37-.859c-1.428 0-2.517.951-2.517 2.209 0 1.067.506 1.609 1.983 2.123.618.206.931.346 1.09.441.315.195.472.474.472.796 0 .628-.52 1.09-1.224 1.09-.748 0-1.354-.359-1.717-1.032l-1.015.94c.726 1.017 1.595 1.472 2.794 1.472 1.634 0 2.785-1.047 2.785-2.538 0-1.229-.534-1.785-2.325-2.412M24.316 19.992c0 2.271 1.863 4.031 4.26 4.031.677 0 1.257-.128 1.97-.45v-1.775c-.63.607-1.184.846-1.9.846-1.585 0-2.707-1.097-2.707-2.663a2.62 2.62 0 0 1 2.638-2.651c.746 0 1.317.253 1.97.869v-1.773c-.69-.334-1.256-.472-1.938-.472-2.384 0-4.294 1.794-4.294 4.038M43.3 21.313l-2.153-5.185H39.43l3.421 7.918h.844l3.488-7.918h-1.703zM47.898 23.852h4.464v-1.31h-2.889v-2.084h2.78V19.15h-2.78v-1.714h2.889v-1.308h-4.464zM55.436 19.68h-.457v-2.337h.483c.983 0 1.51.395 1.51 1.148 0 .773-.527 1.189-1.536 1.189m3.157-1.273c0-1.446-1.037-2.279-2.854-2.279H53.4v7.724h1.578v-3.106h.205l2.175 3.106h1.936l-2.54-3.256c1.187-.232 1.838-1.007 1.838-2.19" clip-rule="evenodd"/><path fill="#E7772F" fill-rule="evenodd" d="M39.653 20.01c0 2.223-1.883 4.026-4.208 4.026-2.324 0-4.207-1.803-4.207-4.026 0-2.224 1.883-4.027 4.207-4.027 2.325 0 4.208 1.803 4.208 4.027" clip-rule="evenodd"/></svg>