<svg xmlns="http://www.w3.org/2000/svg" width="58" height="49" fill="none" aria-labelledby="hanger" viewBox="0 0 58 49"><desc>Hanger icon</desc><path fill="#000" d="M9.609 27.33a1.622 1.622 0 1 1 .62-3.183 1.622 1.622 0 0 1-.62 3.184m8.696.61a1.957 1.957 0 1 0-3.842-.75 1.957 1.957 0 0 0 3.842.75m4.949-.658a2.148 2.148 0 1 0-.823 4.216 2.148 2.148 0 0 0 .823-4.216m6.476 1.768a2.208 2.208 0 1 0-.845 4.335 2.208 2.208 0 0 0 .845-4.335m6.45 1.874a2.158 2.158 0 1 0-.826 4.237 2.158 2.158 0 0 0 .825-4.237m6.423 2.008a1.973 1.973 0 1 0-.754 3.874 1.973 1.973 0 0 0 .754-3.874m6.4 2.16a1.633 1.633 0 1 0-.625 3.205 1.633 1.633 0 0 0 .624-3.204m6.079-3.546a5974 5974 0 0 0-18.24-16.676c-.901-.824-1.108-1.308-.844-2.006.578-1.525.11-2.662-1.429-3.478-1.46-.774-1.963-2.045-1.403-3.584.552-1.52 1.875-2.261 3.542-1.998 1.568.255 2.363 1.15 2.832 3.19.153.657.99 1.78 1.724 1.912 1.074.194 1.759-1.381 1.794-2.323C43.203 3.04 40.804.537 36.8.063c-3.026-.36-5.506.844-6.803 3.31-1.345 2.56-.95 5.478 1.06 7.808.416.479.689 1.017.728 1.234-.15.164-.709.443-1.389.555-3.439.58-6.936 1.147-10.319 1.697-3.724.605-7.58 1.23-11.369 1.875-2.1.36-3.717.805-5.095 1.41-1.751.765-3.41 3.936-3.613 5.605l3.877 1.098c.206-1.108.865-2.918 1.863-3.565 1.01-.65 2.37-.533 3.51-.678 1.575-.203 3.14-.54 4.707-.806 5.39-.908 10.96-1.848 16.437-2.8 1.827-.322 3.28.078 4.57 1.258 3.97 3.63 7.942 7.252 11.918 10.878l6.337 5.776c.264.24.447.43.599.617.14.17.464.626.457 1.11-.253 1.297-.253 1.234-.528 2.08l-.066.232 3.394.962c.492-2.133 1.266-3.798.014-5.853-.562-.941-1.366-1.736-2.007-2.32M24.763 44.424c-2.54-1.046-3.627-2.875-3.195-5.617.045-.282-.116-.788-.452-.792-.245-.002-.536.263-.626.465-.615 1.374-1.615 2.603-3.107 3.036a5.3 5.3 0 0 1-1.785.178c-.368-.021-1.273-.274-1.464.235-.212.565 1.266 1.175 1.613 1.41.507.355.964.786 1.306 1.306.707 1.082.828 2.401.65 3.657-.104.74.815.97 1.088.304.494-1.2 1.302-2.282 2.513-2.816.577-.29 1.35-.282 1.98-.292.404-.008.813-.01 1.216-.038.239-.02.65.04.834-.144.013-.013.025-.02.033-.034.363-.399-.302-.732-.604-.858M12.222 31.751a2.823 2.823 0 1 0-1.54 5.432 2.823 2.823 0 0 0 1.54-5.433"/></svg>