<svg xmlns="http://www.w3.org/2000/svg" width="24" height="25" fill="none" viewBox="0 0 24 25"><path fill="#000" d="M14.558 3.362a6.25 6.25 0 0 1 8.644 5.776c0 2.619-1.297 4.86-3.003 6.775-1.695 1.901-3.87 3.564-5.78 5.023l-.085.066c-.744.569-1.498.95-2.33.956-.835.006-1.594-.369-2.348-.959-1.827-1.43-4.018-3.233-5.755-5.225C2.181 13.801.8 11.522.8 9.138a6.251 6.251 0 0 1 10.671-4.42l.53.529.53-.53a6.3 6.3 0 0 1 2.027-1.355"/><path fill="#000" d="M14.558 3.362a6.25 6.25 0 0 1 8.644 5.776c0 2.619-1.297 4.86-3.003 6.775-1.695 1.901-3.87 3.564-5.78 5.023l-.085.066c-.744.569-1.498.95-2.33.956-.835.006-1.594-.369-2.348-.959-1.827-1.43-4.018-3.233-5.755-5.225C2.181 13.801.8 11.522.8 9.138a6.251 6.251 0 0 1 10.671-4.42.75.75 0 0 0 1.06 0 6.3 6.3 0 0 1 2.027-1.356"/></svg>