<svg width="812" height="393" viewBox="0 0 812 393" fill="none" xmlns="http://www.w3.org/2000/svg">
<path d="M118.747 169.652C119.805 178.605 118.728 177.803 118.435 181.888C118.359 182.908 117.672 183.896 117.268 184.899L116.474 184.952C116.136 184.063 115.585 183.191 115.499 182.283C115.337 180.648 115.625 178.972 115.388 177.349C115.241 176.347 114.483 175.417 113.922 174.303C111.39 176.882 111.37 180.872 113.447 184.234C114.443 185.842 115.383 187.505 116.055 189.23C116.404 190.133 116.116 191.234 116.116 192.672C109.733 188.246 106.781 182.521 105.548 176.379C104.659 171.957 104.947 167.176 105.735 162.696C109.223 142.875 105.496 130.379 107.928 110.36C108.646 104.411 110.673 99.0007 111.466 93.0602C113.378 78.7501 113.533 64.0383 114.918 49.6395C115.216 46.5165 115.181 43.3666 115.489 40.2436C116.014 34.9323 117.182 29.7198 119.886 24.9207C122.807 19.7352 127.81 17.2548 134.163 16.3337C141.329 15.2957 148.278 13.4578 154.312 9.67878C157.119 7.9199 158.936 3.92593 158.936 0.453613H182.475C182.475 3.70364 183.621 7.51291 187.038 9.67878C193.279 13.6376 199.736 15.2642 207.14 16.3067C218.45 17.9019 222.372 23.4873 224.53 33.0899C225.859 39.0169 226.026 45.155 226.672 51.1988C227.542 59.3365 228.214 67.4877 229.26 75.6075C230.215 83.0218 231.716 90.3776 232.666 97.7919C233.434 103.768 233.889 109.781 234.223 115.788C234.566 121.98 234.723 128.182 234.728 134.383C234.733 139.901 234.157 145.423 234.344 150.932C234.491 155.201 235.198 159.483 236.042 163.703C238.155 174.294 235.178 183.51 227.102 191.464C226.738 191.823 226.243 192.079 225.601 192.529C224.408 189.464 225.869 187.087 227.491 184.926C229.786 181.865 229.735 178.729 228.654 175.426C228.547 175.103 228.178 174.851 227.466 174.024C226.935 175.453 226.339 176.451 226.223 177.493C226.02 179.273 226.233 181.093 226.031 182.872C225.95 183.582 225.232 184.238 224.803 184.916C224.55 184.916 224.297 184.921 224.044 184.926C223.574 183.434 222.816 181.964 222.68 180.45C222.099 173.88 222.837 167.387 224.176 160.912C224.671 158.517 224.848 155.987 224.575 153.57C223.964 148.128 223.271 142.673 222.084 137.312C220.487 130.105 218.319 123.001 216.54 115.829C215.089 109.996 213.467 104.164 212.618 98.2503C211.541 90.7506 211.228 83.1611 210.475 75.621C209.778 68.6156 208.934 61.6192 207.711 54.6273C207.711 61.0629 206.087 65.6958 201.734 70.9711C198.075 76.1611 197.481 95.4533 197.476 101.547C204.041 114.564 214.266 121.422 218.41 136.297C219.936 143.657 219.547 160.652 218.41 168.066C217.233 175.741 215.989 183.42 214.266 191.005C212.851 197.237 210.883 203.377 208.922 209.497L208.692 210.215C205.927 218.842 206.402 227.349 203.89 236.03C202.369 241.296 201.818 246.792 200.913 252.198C200.484 254.755 199.983 257.343 199.993 259.913C200.004 262.775 200.438 265.656 200.908 268.496C201.651 273.012 202.894 277.483 203.334 282.017C203.753 286.38 203.733 290.819 203.359 295.192C202.621 303.815 200.494 312.191 197.446 320.445C194.647 328.03 192.367 335.79 190.366 343.578C188.632 350.327 187.531 357.211 186.333 364.064C186.09 365.466 186.399 367.361 187.157 369.214C187.313 370.567 187.551 371.258 187.157 372.475C186.247 375.279 187.248 377.459 189.375 379.292C192.438 381.925 195.597 384.482 198.877 386.9C200.347 387.983 200.918 389.34 200.216 390.589C199.71 391.487 198.093 392.382 196.941 392.418C190.967 392.597 184.979 392.561 179 392.476C175.715 392.431 173.481 390.225 172.642 386.068C171.445 380.114 171.076 374.125 172.046 368.085C173.774 357.328 173.744 346.498 173.597 335.669C173.436 324.08 172.956 312.487 173.223 300.907C173.375 294.324 174.947 287.777 175.503 281.19C176.18 273.191 176.999 265.202 174.866 257.19C173.724 252.894 173.496 248.387 173.133 243.957C172.521 236.529 171.975 229.088 171.702 221.646C171.439 214.488 171.485 207.317 171.546 200.15C171.591 195.067 171.778 192.985 172.127 187.916C172.344 184.753 173.143 183.745 173.481 180.581C173.562 179.804 173.319 178.546 172.759 178.271C171.824 177.818 170.424 177.719 169.383 177.984C168.796 178.132 168.139 179.332 168.195 180.01C168.513 183.7 169.044 185.238 169.383 188.928C169.716 192.567 169.974 193.221 170.029 196.869L170.042 197.683C170.14 204 170.237 210.329 170.014 216.641C169.686 225.727 169.327 234.826 168.438 243.876C167.765 250.719 166.153 257.487 165.137 264.308C164.809 266.519 164.804 268.815 165.051 271.035C165.941 279.001 167.139 286.946 167.952 294.917C168.417 299.451 168.453 304.026 168.518 308.582C168.609 314.572 168.599 320.566 168.528 326.556C168.412 335.907 167.983 345.258 168.124 354.605C168.2 359.624 169.221 364.625 169.752 369.64C169.949 371.491 170.216 373.383 170.004 375.216C169.474 379.768 168.781 384.311 167.947 388.827C167.578 390.836 164.94 392.454 162.292 392.48C156.394 392.543 150.491 392.588 144.599 392.427C143.482 392.395 141.698 391.546 141.47 390.777C141.157 389.73 141.627 388.054 142.481 387.25C145.579 384.329 148.98 381.66 152.265 378.892C154.433 377.063 154.757 375.458 154.171 372.978C153.968 372.119 154.161 370.314 154.55 369.64C155.624 365.451 154.863 362.792 154.267 359.44C152.902 351.742 151.356 344.04 149.274 336.473C147.267 329.185 144.477 322.067 142.067 314.864C139.873 308.331 138.484 301.671 138.196 294.841C138.069 291.79 137.746 288.739 137.721 285.688C137.67 279.424 139.333 273.385 140.672 267.273C141.491 263.53 141.405 259.531 141.006 255.707C140.394 249.834 139.328 243.984 138.14 238.178C137.417 234.642 136.149 231.191 135.057 227.713C130.746 213.981 129.932 200.307 125.919 186.507C124.393 181.25 124.08 175.709 123.19 170.304C122.075 163.861 120.723 150.721 123.288 136.797C127.584 125.896 135.545 119.294 139.976 111.172C141.438 108.49 143.851 104.922 143.851 102.297C143.851 93.0602 142.518 78.241 138.101 71.6715C134.378 67.9486 132.5 61.4735 133.251 54.9144C132.533 61.0258 131.742 67.0496 131.151 73.0911C130.387 80.8514 130.12 88.6656 129.003 96.381C128.032 103.072 126.284 109.682 124.677 116.287C123.646 120.529 122.018 124.659 121.068 128.909C119.775 134.693 118.632 140.525 117.864 146.38C117.238 151.17 116.96 156.037 117.096 160.858C117.177 163.793 118.075 166.731 118.747 169.652Z" fill="#EFEFEF"/>
<path fill-rule="evenodd" clip-rule="evenodd" d="M180.505 392.333C180.247 392.333 180.038 392.124 180.038 391.867L180.038 178.415C180.038 178.157 180.247 177.948 180.505 177.948C180.763 177.948 180.972 178.157 180.972 178.415L180.972 391.867C180.972 392.124 180.763 392.333 180.505 392.333Z" fill="#37807F"/>
<path fill-rule="evenodd" clip-rule="evenodd" d="M170.884 177.568C170.608 177.568 170.384 177.344 170.384 177.068L170.384 123.266C170.384 122.989 170.608 122.766 170.884 122.766C171.16 122.766 171.384 122.989 171.384 123.266L171.384 177.068C171.384 177.344 171.16 177.568 170.884 177.568Z" fill="#37807F"/>
<path d="M293.785 68.4536V57.0136H297.881C300.233 57.0136 301.625 57.9096 301.625 59.9896V60.0536C301.625 61.1896 301.113 62.0856 299.817 62.4856C301.369 62.8216 302.105 63.6696 302.105 65.1896V65.2536C302.105 67.3816 300.697 68.4536 298.185 68.4536H293.785ZM295.865 61.8296H297.625C299.033 61.8296 299.577 61.3176 299.577 60.1496V60.0856C299.577 58.9976 298.953 58.5336 297.593 58.5336H295.865V61.8296ZM295.865 66.9336H297.929C299.353 66.9336 300.009 66.2936 300.009 65.1096V65.0456C300.009 63.8616 299.353 63.2696 297.785 63.2696H295.865V66.9336ZM306.737 68.6136C305.089 68.6136 303.857 67.6696 303.857 65.4456V60.0856H305.793V65.2216C305.793 66.4856 306.321 67.0616 307.441 67.0616C308.481 67.0616 309.393 66.3896 309.393 65.0616V60.0856H311.329V68.4536H309.393V67.1416C308.977 67.9576 308.097 68.6136 306.737 68.6136ZM316.489 68.6136C314.329 68.6136 313.065 67.6216 312.985 65.8456H314.809C314.905 66.6936 315.337 67.1896 316.473 67.1896C317.513 67.1896 317.977 66.8216 317.977 66.1176C317.977 65.4296 317.417 65.1736 316.185 64.9656C313.977 64.6136 313.161 63.9896 313.161 62.4216C313.161 60.7416 314.729 59.9096 316.297 59.9096C318.009 59.9096 319.369 60.5496 319.577 62.4376H317.785C317.625 61.6696 317.193 61.3176 316.297 61.3176C315.465 61.3176 314.969 61.7176 314.969 62.3096C314.969 62.9176 315.369 63.1576 316.697 63.3816C318.665 63.6856 319.833 64.1656 319.833 65.9416C319.833 67.6376 318.633 68.6136 316.489 68.6136ZM324.379 68.5976C322.715 68.5976 321.851 67.7016 321.851 66.1176V61.5416H320.731V60.0856H321.851V58.2456H323.787V60.0856H325.627V61.5416H323.787V65.9416C323.787 66.6776 324.139 67.0136 324.747 67.0136C325.131 67.0136 325.419 66.9656 325.691 66.8536V68.3896C325.387 68.5016 324.971 68.5976 324.379 68.5976ZM330.674 68.4536L334.61 57.0136H336.434L340.306 68.4536H338.93L337.81 65.1576H333.09L331.986 68.4536H330.674ZM335.458 58.1656L333.474 64.0536H337.442L335.458 58.1656ZM342.223 68.4536V60.0856H343.551V61.5896C344.079 60.6456 344.799 59.9896 346.303 59.9416V61.1896C344.623 61.2696 343.551 61.7976 343.551 63.8616V68.4536H342.223ZM351.492 67.4936C353.172 67.4936 354.228 66.2296 354.228 64.3416V64.2296C354.228 62.2936 353.156 61.0456 351.492 61.0456C349.812 61.0456 348.756 62.2936 348.756 64.2136V64.3416C348.756 66.2456 349.796 67.4936 351.492 67.4936ZM351.476 68.5976C349.092 68.5976 347.38 66.7896 347.38 64.3416V64.2136C347.38 61.7016 349.124 59.9416 351.492 59.9416C353.86 59.9416 355.604 61.6856 355.604 64.1976V64.3256C355.604 66.8536 353.86 68.5976 351.476 68.5976ZM360.492 68.5976C358.828 68.5976 357.58 67.6856 357.58 65.3816V60.0856H358.908V65.3176C358.908 66.7896 359.532 67.4456 360.844 67.4456C362.028 67.4456 363.148 66.6616 363.148 65.1576V60.0856H364.476V68.4536H363.148V67.1256C362.764 67.9096 361.836 68.5976 360.492 68.5976ZM367.16 68.4536V60.0856H368.488V61.4136C368.872 60.6296 369.8 59.9416 371.176 59.9416C372.904 59.9416 374.12 60.8856 374.12 63.3176V68.4536H372.792V63.2216C372.792 61.7496 372.168 61.0936 370.824 61.0936C369.592 61.0936 368.488 61.8776 368.488 63.3816V68.4536H367.16ZM379.875 68.5976C377.683 68.5976 376.099 67.0456 376.099 64.4376V64.3096C376.099 61.7496 377.699 59.9416 380.003 59.9416C381.395 59.9416 382.259 60.6136 382.739 61.4296V56.0856H384.067V68.4536H382.739V67.0136C382.259 67.8296 381.091 68.5976 379.875 68.5976ZM380.019 67.4936C381.571 67.4936 382.787 66.4696 382.787 64.3256V64.1976C382.787 62.0536 381.763 61.0456 380.131 61.0456C378.467 61.0456 377.475 62.2136 377.475 64.2456V64.3736C377.475 66.4856 378.611 67.4936 380.019 67.4936ZM393.533 68.5656C392.013 68.5656 391.277 67.6696 391.277 66.3576V61.2056H390.077V60.0856H391.277V58.1816H392.605V60.0856H394.557V61.2056H392.605V66.2296C392.605 67.0456 392.973 67.4456 393.645 67.4456C394.061 67.4456 394.381 67.3816 394.669 67.2696V68.3896C394.397 68.4856 394.077 68.5656 393.533 68.5656ZM396.676 68.4536V56.0856H398.004V61.4136C398.388 60.6296 399.316 59.9416 400.692 59.9416C402.42 59.9416 403.636 60.8856 403.636 63.3176V68.4536H402.308V63.2216C402.308 61.7496 401.684 61.0936 400.34 61.0936C399.108 61.0936 398.004 61.8776 398.004 63.3816V68.4536H396.676ZM409.663 68.5976C407.295 68.5976 405.615 66.9336 405.615 64.3576V64.2296C405.615 61.7016 407.231 59.9416 409.535 59.9416C411.471 59.9416 413.295 61.1096 413.295 64.1016V64.5336H406.991C407.055 66.4376 407.967 67.4936 409.679 67.4936C410.975 67.4936 411.727 67.0136 411.903 66.0376H413.231C412.943 67.7176 411.551 68.5976 409.663 68.5976ZM407.039 63.4616H411.935C411.807 61.7336 410.911 61.0456 409.535 61.0456C408.175 61.0456 407.263 61.9736 407.039 63.4616ZM421.247 68.4536L418.671 60.0856H420.111L422.063 66.8216L424.095 60.0856H425.247L427.151 66.8216L429.119 60.0856H430.479L427.871 68.4536H426.399L424.655 62.1816L422.703 68.4536H421.247ZM432.302 68.4536V60.0856H433.63V68.4536H432.302ZM432.942 58.3416C432.462 58.3416 432.062 57.9416 432.062 57.4616C432.062 56.9816 432.462 56.5816 432.942 56.5816C433.422 56.5816 433.822 56.9816 433.822 57.4616C433.822 57.9416 433.422 58.3416 432.942 58.3416ZM439.5 68.5976C437.308 68.5976 435.724 67.0456 435.724 64.4376V64.3096C435.724 61.7496 437.324 59.9416 439.628 59.9416C441.02 59.9416 441.884 60.6136 442.364 61.4296V56.0856H443.692V68.4536H442.364V67.0136C441.884 67.8296 440.716 68.5976 439.5 68.5976ZM439.644 67.4936C441.196 67.4936 442.412 66.4696 442.412 64.3256V64.1976C442.412 62.0536 441.388 61.0456 439.756 61.0456C438.092 61.0456 437.1 62.2136 437.1 64.2456V64.3736C437.1 66.4856 438.236 67.4936 439.644 67.4936ZM449.803 68.5976C447.435 68.5976 445.755 66.9336 445.755 64.3576V64.2296C445.755 61.7016 447.371 59.9416 449.675 59.9416C451.611 59.9416 453.435 61.1096 453.435 64.1016V64.5336H447.131C447.195 66.4376 448.107 67.4936 449.819 67.4936C451.115 67.4936 451.867 67.0136 452.043 66.0376H453.371C453.083 67.7176 451.691 68.5976 449.803 68.5976ZM447.179 63.4616H452.075C451.947 61.7336 451.051 61.0456 449.675 61.0456C448.315 61.0456 447.403 61.9736 447.179 63.4616ZM458.143 68.5976C456.143 68.5976 454.943 67.5896 454.863 65.8776H456.159C456.255 66.8696 456.783 67.4936 458.127 67.4936C459.391 67.4936 459.951 67.0616 459.951 66.1656C459.951 65.2856 459.295 64.9976 457.999 64.7576C455.823 64.3576 455.087 63.7496 455.087 62.2936C455.087 60.7416 456.607 59.9416 457.919 59.9416C459.423 59.9416 460.719 60.5496 460.943 62.3576H459.663C459.471 61.4456 458.959 61.0456 457.903 61.0456C456.943 61.0456 456.319 61.5256 456.319 62.2456C456.319 62.9976 456.735 63.3016 458.271 63.5736C459.999 63.8936 461.215 64.2776 461.215 66.0536C461.215 67.5736 460.175 68.5976 458.143 68.5976ZM465.783 68.5656C464.263 68.5656 463.527 67.6696 463.527 66.3576V61.2056H462.327V60.0856H463.527V58.1816H464.855V60.0856H466.807V61.2056H464.855V66.2296C464.855 67.0456 465.223 67.4456 465.895 67.4456C466.311 67.4456 466.631 67.3816 466.919 67.2696V68.3896C466.647 68.4856 466.327 68.5656 465.783 68.5656ZM473.16 71.3656V60.0856H474.488V61.4936C474.968 60.6776 476.104 59.9416 477.32 59.9416C479.512 59.9416 481.128 61.5416 481.128 64.1496V64.2776C481.128 66.8376 479.624 68.5976 477.32 68.5976C475.944 68.5976 474.968 67.9096 474.488 67.0776V71.3656H473.16ZM477.192 67.4936C478.856 67.4936 479.752 66.3736 479.752 64.3416V64.2136C479.752 62.1016 478.584 61.0456 477.176 61.0456C475.624 61.0456 474.44 62.0696 474.44 64.2136V64.3416C474.44 66.4856 475.56 67.4936 477.192 67.4936ZM486.68 67.4936C488.36 67.4936 489.416 66.2296 489.416 64.3416V64.2296C489.416 62.2936 488.344 61.0456 486.68 61.0456C485 61.0456 483.944 62.2936 483.944 64.2136V64.3416C483.944 66.2456 484.984 67.4936 486.68 67.4936ZM486.664 68.5976C484.28 68.5976 482.568 66.7896 482.568 64.3416V64.2136C482.568 61.7016 484.312 59.9416 486.68 59.9416C489.048 59.9416 490.792 61.6856 490.792 64.1976V64.3256C490.792 66.8536 489.048 68.5976 486.664 68.5976ZM492.88 68.4536V60.0856H494.208V68.4536H492.88ZM493.52 58.3416C493.04 58.3416 492.64 57.9416 492.64 57.4616C492.64 56.9816 493.04 56.5816 493.52 56.5816C494 56.5816 494.4 56.9816 494.4 57.4616C494.4 57.9416 494 58.3416 493.52 58.3416ZM496.926 68.4536V60.0856H498.254V61.4136C498.638 60.6296 499.566 59.9416 500.942 59.9416C502.67 59.9416 503.886 60.8856 503.886 63.3176V68.4536H502.558V63.2216C502.558 61.7496 501.934 61.0936 500.59 61.0936C499.358 61.0936 498.254 61.8776 498.254 63.3816V68.4536H496.926ZM509.033 68.5656C507.513 68.5656 506.777 67.6696 506.777 66.3576V61.2056H505.577V60.0856H506.777V58.1816H508.105V60.0856H510.057V61.2056H508.105V66.2296C508.105 67.0456 508.473 67.4456 509.145 67.4456C509.561 67.4456 509.881 67.3816 510.169 67.2696V68.3896C509.897 68.4856 509.577 68.5656 509.033 68.5656ZM519.898 67.4936C521.578 67.4936 522.634 66.2296 522.634 64.3416V64.2296C522.634 62.2936 521.562 61.0456 519.898 61.0456C518.218 61.0456 517.162 62.2936 517.162 64.2136V64.3416C517.162 66.2456 518.202 67.4936 519.898 67.4936ZM519.882 68.5976C517.498 68.5976 515.786 66.7896 515.786 64.3416V64.2136C515.786 61.7016 517.53 59.9416 519.898 59.9416C522.266 59.9416 524.01 61.6856 524.01 64.1976V64.3256C524.01 66.8536 522.266 68.5976 519.882 68.5976ZM526.355 68.4536V61.2056H525.155V60.0856H526.355V58.7256C526.355 57.0296 527.187 56.0376 528.851 56.0376C529.283 56.0376 529.507 56.0856 529.843 56.1976V57.3176C529.603 57.2216 529.267 57.1416 528.899 57.1416C528.035 57.1416 527.683 57.7336 527.683 58.5816V60.0856H529.731V61.2056H527.683V68.4536H526.355ZM536.584 71.3656L538.168 67.5896L534.888 60.0856H536.312L538.872 66.0856L541.192 60.0856H542.552L537.928 71.3656H536.584ZM547.555 67.4936C549.235 67.4936 550.291 66.2296 550.291 64.3416V64.2296C550.291 62.2936 549.219 61.0456 547.555 61.0456C545.875 61.0456 544.819 62.2936 544.819 64.2136V64.3416C544.819 66.2456 545.859 67.4936 547.555 67.4936ZM547.539 68.5976C545.155 68.5976 543.443 66.7896 543.443 64.3416V64.2136C543.443 61.7016 545.187 59.9416 547.555 59.9416C549.923 59.9416 551.667 61.6856 551.667 64.1976V64.3256C551.667 66.8536 549.923 68.5976 547.539 68.5976ZM556.555 68.5976C554.891 68.5976 553.643 67.6856 553.643 65.3816V60.0856H554.971V65.3176C554.971 66.7896 555.595 67.4456 556.907 67.4456C558.091 67.4456 559.211 66.6616 559.211 65.1576V60.0856H560.539V68.4536H559.211V67.1256C558.827 67.9096 557.899 68.5976 556.555 68.5976ZM563.223 68.4536V60.0856H564.551V61.5896C565.079 60.6456 565.799 59.9896 567.303 59.9416V61.1896C565.623 61.2696 564.551 61.7976 564.551 63.8616V68.4536H563.223ZM577.633 68.5976C576.273 68.5976 575.281 67.9096 574.801 67.0776V68.4536H573.473V56.0856H574.801V61.4936C575.281 60.6776 576.417 59.9416 577.633 59.9416C579.825 59.9416 581.441 61.5416 581.441 64.1496V64.2776C581.441 66.8376 579.937 68.5976 577.633 68.5976ZM577.505 67.4936C579.169 67.4936 580.065 66.3736 580.065 64.3416V64.2136C580.065 62.1016 578.897 61.0456 577.489 61.0456C575.937 61.0456 574.753 62.0696 574.753 64.2136V64.3416C574.753 66.4856 575.873 67.4936 577.505 67.4936ZM586.336 68.5976C584.672 68.5976 583.424 67.6856 583.424 65.3816V60.0856H584.752V65.3176C584.752 66.7896 585.376 67.4456 586.688 67.4456C587.872 67.4456 588.992 66.6616 588.992 65.1576V60.0856H590.32V68.4536H588.992V67.1256C588.608 67.9096 587.68 68.5976 586.336 68.5976ZM595.596 68.5976C593.596 68.5976 592.396 67.5896 592.316 65.8776H593.612C593.708 66.8696 594.236 67.4936 595.58 67.4936C596.844 67.4936 597.404 67.0616 597.404 66.1656C597.404 65.2856 596.748 64.9976 595.452 64.7576C593.276 64.3576 592.54 63.7496 592.54 62.2936C592.54 60.7416 594.06 59.9416 595.372 59.9416C596.876 59.9416 598.172 60.5496 598.396 62.3576H597.116C596.924 61.4456 596.412 61.0456 595.356 61.0456C594.396 61.0456 593.772 61.5256 593.772 62.2456C593.772 62.9976 594.188 63.3016 595.724 63.5736C597.452 63.8936 598.668 64.2776 598.668 66.0536C598.668 67.5736 597.628 68.5976 595.596 68.5976ZM603.236 68.5656C601.716 68.5656 600.98 67.6696 600.98 66.3576V61.2056H599.78V60.0856H600.98V58.1816H602.308V60.0856H604.26V61.2056H602.308V66.2296C602.308 67.0456 602.676 67.4456 603.348 67.4456C603.764 67.4456 604.084 67.3816 604.372 67.2696V68.3896C604.1 68.4856 603.78 68.5656 603.236 68.5656ZM612.294 68.4536L609.718 60.0856H611.158L613.11 66.8216L615.142 60.0856H616.294L618.198 66.8216L620.166 60.0856H621.526L618.918 68.4536H617.446L615.702 62.1816L613.75 68.4536H612.294ZM623.349 68.4536V60.0856H624.677V68.4536H623.349ZM623.989 58.3416C623.509 58.3416 623.109 57.9416 623.109 57.4616C623.109 56.9816 623.509 56.5816 623.989 56.5816C624.469 56.5816 624.869 56.9816 624.869 57.4616C624.869 57.9416 624.469 58.3416 623.989 58.3416ZM629.939 68.5656C628.419 68.5656 627.683 67.6696 627.683 66.3576V61.2056H626.483V60.0856H627.683V58.1816H629.011V60.0856H630.963V61.2056H629.011V66.2296C629.011 67.0456 629.379 67.4456 630.051 67.4456C630.467 67.4456 630.787 67.3816 631.075 67.2696V68.3896C630.803 68.4856 630.483 68.5656 629.939 68.5656ZM633.082 68.4536V56.0856H634.41V61.4136C634.794 60.6296 635.722 59.9416 637.098 59.9416C638.826 59.9416 640.042 60.8856 640.042 63.3176V68.4536H638.714V63.2216C638.714 61.7496 638.09 61.0936 636.746 61.0936C635.514 61.0936 634.41 61.8776 634.41 63.3816V68.4536H633.082ZM648.975 68.5976C647.423 68.5976 646.191 67.8456 646.191 66.1336C646.191 64.1976 648.239 63.5416 650.383 63.5416H651.583V62.9336C651.583 61.6056 651.071 61.0456 649.791 61.0456C648.639 61.0456 647.999 61.5256 647.871 62.5496H646.543C646.719 60.6456 648.239 59.9416 649.855 59.9416C651.455 59.9416 652.911 60.5976 652.911 62.9336V68.4536H651.583V67.3976C650.959 68.1816 650.207 68.5976 648.975 68.5976ZM649.103 67.5416C650.511 67.5416 651.583 66.8216 651.583 65.5256V64.4856H650.431C648.751 64.4856 647.519 64.9016 647.519 66.1336C647.519 66.9976 647.935 67.5416 649.103 67.5416ZM663.914 68.5976C662.554 68.5976 661.562 67.9096 661.082 67.0776V68.4536H659.754V56.0856H661.082V61.4936C661.562 60.6776 662.698 59.9416 663.914 59.9416C666.106 59.9416 667.722 61.5416 667.722 64.1496V64.2776C667.722 66.8376 666.218 68.5976 663.914 68.5976ZM663.786 67.4936C665.45 67.4936 666.346 66.3736 666.346 64.3416V64.2136C666.346 62.1016 665.178 61.0456 663.77 61.0456C662.218 61.0456 661.034 62.0696 661.034 64.2136V64.3416C661.034 66.4856 662.154 67.4936 663.786 67.4936ZM669.785 68.4536V60.0856H671.113V61.5896C671.641 60.6456 672.361 59.9896 673.865 59.9416V61.1896C672.185 61.2696 671.113 61.7976 671.113 63.8616V68.4536H669.785ZM677.819 68.5976C676.267 68.5976 675.035 67.8456 675.035 66.1336C675.035 64.1976 677.083 63.5416 679.227 63.5416H680.427V62.9336C680.427 61.6056 679.915 61.0456 678.635 61.0456C677.483 61.0456 676.843 61.5256 676.715 62.5496H675.387C675.563 60.6456 677.083 59.9416 678.699 59.9416C680.299 59.9416 681.755 60.5976 681.755 62.9336V68.4536H680.427V67.3976C679.803 68.1816 679.051 68.5976 677.819 68.5976ZM677.947 67.5416C679.355 67.5416 680.427 66.8216 680.427 65.5256V64.4856H679.275C677.595 64.4856 676.363 64.9016 676.363 66.1336C676.363 66.9976 676.779 67.5416 677.947 67.5416ZM692.086 67.4936C693.766 67.4936 694.822 66.2296 694.822 64.3416V64.2296C694.822 62.2936 693.75 61.0456 692.086 61.0456C690.406 61.0456 689.35 62.2936 689.35 64.2136V64.3416C689.35 66.2456 690.39 67.4936 692.086 67.4936ZM692.07 68.5976C689.686 68.5976 687.974 66.7896 687.974 64.3416V64.2136C687.974 61.7016 689.718 59.9416 692.086 59.9416C694.454 59.9416 696.198 61.6856 696.198 64.1976V64.3256C696.198 66.8536 694.454 68.5976 692.07 68.5976ZM698.254 68.4536V60.0856H699.582V61.4136C699.966 60.6296 700.894 59.9416 702.27 59.9416C703.998 59.9416 705.214 60.8856 705.214 63.3176V68.4536H703.886V63.2216C703.886 61.7496 703.262 61.0936 701.918 61.0936C700.686 61.0936 699.582 61.8776 699.582 63.3816V68.4536H698.254Z" fill="black"/>
<path d="M295.737 106.454L292.889 95.0136H295.065L297.049 103.414L299.273 95.0136H301.033L303.305 103.462L305.353 95.0136H307.337L304.473 106.454H302.345L300.089 98.1176L297.769 106.454H295.737ZM310.535 106.614C308.999 106.614 307.735 105.878 307.735 104.134C307.735 102.182 309.623 101.478 312.023 101.478H313.063V101.046C313.063 99.9256 312.679 99.3656 311.543 99.3656C310.535 99.3656 310.039 99.8456 309.943 100.678H308.071C308.231 98.7256 309.783 97.9096 311.655 97.9096C313.527 97.9096 314.999 98.6776 314.999 100.966V106.454H313.095V105.43C312.551 106.15 311.815 106.614 310.535 106.614ZM310.999 105.222C312.183 105.222 313.063 104.598 313.063 103.526V102.694H312.071C310.599 102.694 309.655 103.03 309.655 104.054C309.655 104.758 310.039 105.222 310.999 105.222ZM318.21 96.7096C317.57 96.7096 317.058 96.2296 317.058 95.6056C317.058 94.9656 317.57 94.4856 318.21 94.4856C318.85 94.4856 319.362 94.9656 319.362 95.6056C319.362 96.2296 318.85 96.7096 318.21 96.7096ZM317.266 106.454V98.0856H319.202V106.454H317.266ZM324.426 106.614C322.266 106.614 321.002 105.622 320.922 103.846H322.746C322.842 104.694 323.274 105.19 324.41 105.19C325.45 105.19 325.914 104.822 325.914 104.118C325.914 103.43 325.354 103.174 324.122 102.966C321.914 102.614 321.098 101.99 321.098 100.422C321.098 98.7416 322.666 97.9096 324.234 97.9096C325.946 97.9096 327.306 98.5496 327.514 100.438H325.722C325.562 99.6696 325.13 99.3176 324.234 99.3176C323.402 99.3176 322.906 99.7176 322.906 100.31C322.906 100.918 323.306 101.158 324.634 101.382C326.602 101.686 327.77 102.166 327.77 103.942C327.77 105.638 326.57 106.614 324.426 106.614ZM332.316 106.598C330.652 106.598 329.788 105.702 329.788 104.118V99.5416H328.668V98.0856H329.788V96.2456H331.724V98.0856H333.564V99.5416H331.724V103.942C331.724 104.678 332.076 105.014 332.684 105.014C333.068 105.014 333.356 104.966 333.628 104.854V106.39C333.324 106.502 332.908 106.598 332.316 106.598ZM339.033 106.454L342.969 95.0136H344.793L348.665 106.454H347.289L346.169 103.158H341.449L340.345 106.454H339.033ZM343.817 96.1656L341.833 102.054H345.801L343.817 96.1656ZM350.582 106.454V98.0856H351.91V99.5896C352.438 98.6456 353.158 97.9896 354.662 97.9416V99.1896C352.982 99.2696 351.91 99.7976 351.91 101.862V106.454H350.582ZM359.852 105.494C361.532 105.494 362.588 104.23 362.588 102.342V102.23C362.588 100.294 361.516 99.0456 359.852 99.0456C358.172 99.0456 357.116 100.294 357.116 102.214V102.342C357.116 104.246 358.156 105.494 359.852 105.494ZM359.836 106.598C357.452 106.598 355.74 104.79 355.74 102.342V102.214C355.74 99.7016 357.484 97.9416 359.852 97.9416C362.22 97.9416 363.964 99.6856 363.964 102.198V102.326C363.964 104.854 362.22 106.598 359.836 106.598ZM368.852 106.598C367.188 106.598 365.94 105.686 365.94 103.382V98.0856H367.268V103.318C367.268 104.79 367.892 105.446 369.204 105.446C370.388 105.446 371.508 104.662 371.508 103.158V98.0856H372.836V106.454H371.508V105.126C371.124 105.91 370.196 106.598 368.852 106.598ZM375.52 106.454V98.0856H376.848V99.4136C377.232 98.6296 378.16 97.9416 379.536 97.9416C381.264 97.9416 382.48 98.8856 382.48 101.318V106.454H381.152V101.222C381.152 99.7496 380.528 99.0936 379.184 99.0936C377.952 99.0936 376.848 99.8776 376.848 101.382V106.454H375.52ZM388.234 106.598C386.042 106.598 384.458 105.046 384.458 102.438V102.31C384.458 99.7496 386.058 97.9416 388.362 97.9416C389.754 97.9416 390.618 98.6136 391.098 99.4296V94.0856H392.426V106.454H391.098V105.014C390.618 105.83 389.45 106.598 388.234 106.598ZM388.378 105.494C389.93 105.494 391.146 104.47 391.146 102.326V102.198C391.146 100.054 390.122 99.0456 388.49 99.0456C386.826 99.0456 385.834 100.214 385.834 102.246V102.374C385.834 104.486 386.97 105.494 388.378 105.494ZM400.1 109.366L401.684 105.59L398.404 98.0856H399.828L402.388 104.086L404.708 98.0856H406.068L401.444 109.366H400.1ZM411.07 105.494C412.75 105.494 413.806 104.23 413.806 102.342V102.23C413.806 100.294 412.734 99.0456 411.07 99.0456C409.39 99.0456 408.334 100.294 408.334 102.214V102.342C408.334 104.246 409.374 105.494 411.07 105.494ZM411.054 106.598C408.67 106.598 406.958 104.79 406.958 102.342V102.214C406.958 99.7016 408.702 97.9416 411.07 97.9416C413.438 97.9416 415.182 99.6856 415.182 102.198V102.326C415.182 104.854 413.438 106.598 411.054 106.598ZM420.071 106.598C418.407 106.598 417.159 105.686 417.159 103.382V98.0856H418.487V103.318C418.487 104.79 419.111 105.446 420.423 105.446C421.607 105.446 422.727 104.662 422.727 103.158V98.0856H424.055V106.454H422.727V105.126C422.343 105.91 421.415 106.598 420.071 106.598ZM426.739 106.454V98.0856H428.067V99.5896C428.595 98.6456 429.315 97.9896 430.819 97.9416V99.1896C429.139 99.2696 428.067 99.7976 428.067 101.862V106.454H426.739ZM438.669 106.454L436.093 98.0856H437.533L439.485 104.822L441.517 98.0856H442.669L444.573 104.822L446.541 98.0856H447.901L445.293 106.454H443.821L442.077 100.182L440.125 106.454H438.669ZM451.631 106.598C450.079 106.598 448.847 105.846 448.847 104.134C448.847 102.198 450.895 101.542 453.039 101.542H454.239V100.934C454.239 99.6056 453.727 99.0456 452.447 99.0456C451.295 99.0456 450.655 99.5256 450.527 100.55H449.199C449.375 98.6456 450.895 97.9416 452.511 97.9416C454.111 97.9416 455.567 98.5976 455.567 100.934V106.454H454.239V105.398C453.615 106.182 452.863 106.598 451.631 106.598ZM451.759 105.542C453.167 105.542 454.239 104.822 454.239 103.526V102.486H453.087C451.407 102.486 450.175 102.902 450.175 104.134C450.175 104.998 450.591 105.542 451.759 105.542ZM458.208 106.454V98.0856H459.536V106.454H458.208ZM458.848 96.3416C458.368 96.3416 457.968 95.9416 457.968 95.4616C457.968 94.9816 458.368 94.5816 458.848 94.5816C459.328 94.5816 459.728 94.9816 459.728 95.4616C459.728 95.9416 459.328 96.3416 458.848 96.3416ZM464.846 106.598C462.846 106.598 461.646 105.59 461.566 103.878H462.862C462.958 104.87 463.486 105.494 464.83 105.494C466.094 105.494 466.654 105.062 466.654 104.166C466.654 103.286 465.998 102.998 464.702 102.758C462.526 102.358 461.79 101.75 461.79 100.294C461.79 98.7416 463.31 97.9416 464.622 97.9416C466.126 97.9416 467.422 98.5496 467.646 100.358H466.366C466.174 99.4456 465.662 99.0456 464.606 99.0456C463.646 99.0456 463.022 99.5256 463.022 100.246C463.022 100.998 463.438 101.302 464.974 101.574C466.702 101.894 467.918 102.278 467.918 104.054C467.918 105.574 466.878 106.598 464.846 106.598ZM472.486 106.566C470.966 106.566 470.23 105.67 470.23 104.358V99.2056H469.03V98.0856H470.23V96.1816H471.558V98.0856H473.51V99.2056H471.558V104.23C471.558 105.046 471.926 105.446 472.598 105.446C473.014 105.446 473.334 105.382 473.622 105.27V106.39C473.35 106.486 473.03 106.566 472.486 106.566ZM481.96 106.598C480.408 106.598 479.176 105.846 479.176 104.134C479.176 102.198 481.224 101.542 483.368 101.542H484.568V100.934C484.568 99.6056 484.056 99.0456 482.776 99.0456C481.624 99.0456 480.984 99.5256 480.856 100.55H479.528C479.704 98.6456 481.224 97.9416 482.84 97.9416C484.44 97.9416 485.896 98.5976 485.896 100.934V106.454H484.568V105.398C483.944 106.182 483.192 106.598 481.96 106.598ZM482.088 105.542C483.496 105.542 484.568 104.822 484.568 103.526V102.486H483.416C481.736 102.486 480.504 102.902 480.504 104.134C480.504 104.998 480.92 105.542 482.088 105.542ZM491.048 106.566C489.528 106.566 488.792 105.67 488.792 104.358V99.2056H487.592V98.0856H488.792V96.1816H490.12V98.0856H492.072V99.2056H490.12V104.23C490.12 105.046 490.488 105.446 491.16 105.446C491.576 105.446 491.896 105.382 492.184 105.27V106.39C491.912 106.486 491.592 106.566 491.048 106.566ZM500.97 106.566C499.45 106.566 498.714 105.67 498.714 104.358V99.2056H497.514V98.0856H498.714V96.1816H500.042V98.0856H501.994V99.2056H500.042V104.23C500.042 105.046 500.41 105.446 501.082 105.446C501.498 105.446 501.818 105.382 502.106 105.27V106.39C501.834 106.486 501.514 106.566 500.97 106.566ZM504.114 106.454V94.0856H505.442V99.4136C505.826 98.6296 506.754 97.9416 508.13 97.9416C509.858 97.9416 511.074 98.8856 511.074 101.318V106.454H509.746V101.222C509.746 99.7496 509.122 99.0936 507.778 99.0936C506.546 99.0936 505.442 99.8776 505.442 101.382V106.454H504.114ZM517.1 106.598C514.732 106.598 513.052 104.934 513.052 102.358V102.23C513.052 99.7016 514.668 97.9416 516.972 97.9416C518.908 97.9416 520.732 99.1096 520.732 102.102V102.534H514.428C514.492 104.438 515.404 105.494 517.116 105.494C518.412 105.494 519.164 105.014 519.34 104.038H520.668C520.38 105.718 518.988 106.598 517.1 106.598ZM514.476 101.462H519.372C519.244 99.7336 518.348 99.0456 516.972 99.0456C515.612 99.0456 514.7 99.9736 514.476 101.462ZM527.004 106.454V98.0856H528.332V99.4136C528.716 98.6296 529.644 97.9416 531.02 97.9416C532.748 97.9416 533.964 98.8856 533.964 101.318V106.454H532.636V101.222C532.636 99.7496 532.012 99.0936 530.668 99.0936C529.436 99.0936 528.332 99.8776 528.332 101.382V106.454H527.004ZM538.663 106.598C537.111 106.598 535.879 105.846 535.879 104.134C535.879 102.198 537.927 101.542 540.071 101.542H541.271V100.934C541.271 99.6056 540.759 99.0456 539.479 99.0456C538.327 99.0456 537.687 99.5256 537.559 100.55H536.231C536.407 98.6456 537.927 97.9416 539.543 97.9416C541.143 97.9416 542.599 98.5976 542.599 100.934V106.454H541.271V105.398C540.647 106.182 539.895 106.598 538.663 106.598ZM538.791 105.542C540.199 105.542 541.271 104.822 541.271 103.526V102.486H540.119C538.439 102.486 537.207 102.902 537.207 104.134C537.207 104.998 537.623 105.542 538.791 105.542ZM545.207 106.454V98.0856H546.535V99.5896C547.063 98.6456 547.783 97.9896 549.287 97.9416V99.1896C547.607 99.2696 546.535 99.7976 546.535 101.862V106.454H545.207ZM551.223 106.454V98.0856H552.551V99.5896C553.079 98.6456 553.799 97.9896 555.303 97.9416V99.1896C553.623 99.2696 552.551 99.7976 552.551 101.862V106.454H551.223ZM560.492 105.494C562.172 105.494 563.228 104.23 563.228 102.342V102.23C563.228 100.294 562.156 99.0456 560.492 99.0456C558.812 99.0456 557.756 100.294 557.756 102.214V102.342C557.756 104.246 558.796 105.494 560.492 105.494ZM560.476 106.598C558.092 106.598 556.38 104.79 556.38 102.342V102.214C556.38 99.7016 558.124 97.9416 560.492 97.9416C562.86 97.9416 564.604 99.6856 564.604 102.198V102.326C564.604 104.854 562.86 106.598 560.476 106.598ZM568.184 106.454L565.608 98.0856H567.048L569 104.822L571.032 98.0856H572.184L574.088 104.822L576.056 98.0856H577.416L574.808 106.454H573.336L571.592 100.182L569.64 106.454H568.184ZM582.475 106.598C580.107 106.598 578.427 104.934 578.427 102.358V102.23C578.427 99.7016 580.043 97.9416 582.347 97.9416C584.283 97.9416 586.107 99.1096 586.107 102.102V102.534H579.803C579.867 104.438 580.779 105.494 582.491 105.494C583.787 105.494 584.539 105.014 584.715 104.038H586.043C585.755 105.718 584.363 106.598 582.475 106.598ZM579.851 101.462H584.747C584.619 99.7336 583.723 99.0456 582.347 99.0456C580.987 99.0456 580.075 99.9736 579.851 101.462ZM590.815 106.598C588.815 106.598 587.615 105.59 587.535 103.878H588.831C588.927 104.87 589.455 105.494 590.799 105.494C592.063 105.494 592.623 105.062 592.623 104.166C592.623 103.286 591.967 102.998 590.671 102.758C588.495 102.358 587.759 101.75 587.759 100.294C587.759 98.7416 589.279 97.9416 590.591 97.9416C592.095 97.9416 593.391 98.5496 593.615 100.358H592.335C592.143 99.4456 591.631 99.0456 590.575 99.0456C589.615 99.0456 588.991 99.5256 588.991 100.246C588.991 100.998 589.407 101.302 590.943 101.574C592.671 101.894 593.887 102.278 593.887 104.054C593.887 105.574 592.847 106.598 590.815 106.598ZM598.454 106.566C596.934 106.566 596.198 105.67 596.198 104.358V99.2056H594.998V98.0856H596.198V96.1816H597.526V98.0856H599.478V99.2056H597.526V104.23C597.526 105.046 597.894 105.446 598.566 105.446C598.982 105.446 599.302 105.382 599.59 105.27V106.39C599.318 106.486 598.998 106.566 598.454 106.566ZM605.832 109.366V98.0856H607.16V99.4936C607.64 98.6776 608.776 97.9416 609.992 97.9416C612.184 97.9416 613.8 99.5416 613.8 102.15V102.278C613.8 104.838 612.296 106.598 609.992 106.598C608.616 106.598 607.64 105.91 607.16 105.078V109.366H605.832ZM609.864 105.494C611.528 105.494 612.424 104.374 612.424 102.342V102.214C612.424 100.102 611.256 99.0456 609.848 99.0456C608.296 99.0456 607.112 100.07 607.112 102.214V102.342C607.112 104.486 608.232 105.494 609.864 105.494ZM619.352 105.494C621.032 105.494 622.088 104.23 622.088 102.342V102.23C622.088 100.294 621.016 99.0456 619.352 99.0456C617.672 99.0456 616.616 100.294 616.616 102.214V102.342C616.616 104.246 617.656 105.494 619.352 105.494ZM619.336 106.598C616.952 106.598 615.24 104.79 615.24 102.342V102.214C615.24 99.7016 616.984 97.9416 619.352 97.9416C621.72 97.9416 623.464 99.6856 623.464 102.198V102.326C623.464 104.854 621.72 106.598 619.336 106.598ZM625.552 106.454V98.0856H626.88V106.454H625.552ZM626.192 96.3416C625.712 96.3416 625.312 95.9416 625.312 95.4616C625.312 94.9816 625.712 94.5816 626.192 94.5816C626.672 94.5816 627.072 94.9816 627.072 95.4616C627.072 95.9416 626.672 96.3416 626.192 96.3416ZM629.598 106.454V98.0856H630.926V99.4136C631.31 98.6296 632.238 97.9416 633.614 97.9416C635.342 97.9416 636.558 98.8856 636.558 101.318V106.454H635.23V101.222C635.23 99.7496 634.606 99.0936 633.262 99.0936C632.03 99.0936 630.926 99.8776 630.926 101.382V106.454H629.598ZM641.704 106.566C640.184 106.566 639.448 105.67 639.448 104.358V99.2056H638.248V98.0856H639.448V96.1816H640.776V98.0856H642.728V99.2056H640.776V104.23C640.776 105.046 641.144 105.446 641.816 105.446C642.232 105.446 642.552 105.382 642.84 105.27V106.39C642.568 106.486 642.248 106.566 641.704 106.566Z" fill="black"/>
<path d="M293.785 144.454V133.014H295.913V137.878H301.049V133.014H303.193V144.454H301.049V139.59H295.913V144.454H293.785ZM306.632 134.71C305.992 134.71 305.48 134.23 305.48 133.606C305.48 132.966 305.992 132.486 306.632 132.486C307.272 132.486 307.784 132.966 307.784 133.606C307.784 134.23 307.272 134.71 306.632 134.71ZM305.688 144.454V136.086H307.624V144.454H305.688ZM309.984 147.318V136.086H311.92V137.43C312.384 136.63 313.424 135.91 314.656 135.91C316.752 135.91 318.368 137.462 318.368 140.166V140.294C318.368 142.982 316.816 144.614 314.656 144.614C313.328 144.614 312.368 143.958 311.92 143.142V147.318H309.984ZM314.176 143.078C315.6 143.078 316.384 142.118 316.384 140.326V140.198C316.384 138.342 315.424 137.43 314.16 137.43C312.816 137.43 311.856 138.342 311.856 140.198V140.326C311.856 142.198 312.768 143.078 314.176 143.078ZM323.767 144.454L327.703 133.014H329.527L333.399 144.454H332.023L330.903 141.158H326.183L325.079 144.454H323.767ZM328.551 134.166L326.567 140.054H330.535L328.551 134.166ZM335.317 144.454V136.086H336.645V137.59C337.173 136.646 337.893 135.99 339.397 135.942V137.19C337.717 137.27 336.645 137.798 336.645 139.862V144.454H335.317ZM344.586 143.494C346.266 143.494 347.322 142.23 347.322 140.342V140.23C347.322 138.294 346.25 137.046 344.586 137.046C342.906 137.046 341.85 138.294 341.85 140.214V140.342C341.85 142.246 342.89 143.494 344.586 143.494ZM344.57 144.598C342.186 144.598 340.474 142.79 340.474 140.342V140.214C340.474 137.702 342.218 135.942 344.586 135.942C346.954 135.942 348.698 137.686 348.698 140.198V140.326C348.698 142.854 346.954 144.598 344.57 144.598ZM353.586 144.598C351.922 144.598 350.674 143.686 350.674 141.382V136.086H352.002V141.318C352.002 142.79 352.626 143.446 353.938 143.446C355.122 143.446 356.242 142.662 356.242 141.158V136.086H357.57V144.454H356.242V143.126C355.858 143.91 354.93 144.598 353.586 144.598ZM360.254 144.454V136.086H361.582V137.414C361.966 136.63 362.894 135.942 364.27 135.942C365.998 135.942 367.214 136.886 367.214 139.318V144.454H365.886V139.222C365.886 137.75 365.262 137.094 363.918 137.094C362.686 137.094 361.582 137.878 361.582 139.382V144.454H360.254ZM372.969 144.598C370.777 144.598 369.193 143.046 369.193 140.438V140.31C369.193 137.75 370.793 135.942 373.097 135.942C374.489 135.942 375.353 136.614 375.833 137.43V132.086H377.161V144.454H375.833V143.014C375.353 143.83 374.185 144.598 372.969 144.598ZM373.113 143.494C374.665 143.494 375.881 142.47 375.881 140.326V140.198C375.881 138.054 374.857 137.046 373.225 137.046C371.561 137.046 370.569 138.214 370.569 140.246V140.374C370.569 142.486 371.705 143.494 373.113 143.494ZM386.626 144.566C385.106 144.566 384.37 143.67 384.37 142.358V137.206H383.17V136.086H384.37V134.182H385.698V136.086H387.65V137.206H385.698V142.23C385.698 143.046 386.066 143.446 386.738 143.446C387.154 143.446 387.474 143.382 387.762 143.27V144.39C387.49 144.486 387.17 144.566 386.626 144.566ZM389.77 144.454V132.086H391.098V137.414C391.482 136.63 392.41 135.942 393.786 135.942C395.514 135.942 396.73 136.886 396.73 139.318V144.454H395.402V139.222C395.402 137.75 394.778 137.094 393.434 137.094C392.202 137.094 391.098 137.878 391.098 139.382V144.454H389.77ZM402.756 144.598C400.388 144.598 398.708 142.934 398.708 140.358V140.23C398.708 137.702 400.324 135.942 402.628 135.942C404.564 135.942 406.388 137.11 406.388 140.102V140.534H400.084C400.148 142.438 401.06 143.494 402.772 143.494C404.068 143.494 404.82 143.014 404.996 142.038H406.324C406.036 143.718 404.644 144.598 402.756 144.598ZM400.132 139.462H405.028C404.9 137.734 404.004 137.046 402.628 137.046C401.268 137.046 400.356 137.974 400.132 139.462ZM414.34 144.454L411.764 136.086H413.204L415.156 142.822L417.188 136.086H418.34L420.244 142.822L422.212 136.086H423.572L420.964 144.454H419.492L417.748 138.182L415.796 144.454H414.34ZM425.396 144.454V136.086H426.724V144.454H425.396ZM426.036 134.342C425.556 134.342 425.156 133.942 425.156 133.462C425.156 132.982 425.556 132.582 426.036 132.582C426.516 132.582 426.916 132.982 426.916 133.462C426.916 133.942 426.516 134.342 426.036 134.342ZM432.594 144.598C430.402 144.598 428.818 143.046 428.818 140.438V140.31C428.818 137.75 430.418 135.942 432.722 135.942C434.114 135.942 434.978 136.614 435.458 137.43V132.086H436.786V144.454H435.458V143.014C434.978 143.83 433.81 144.598 432.594 144.598ZM432.738 143.494C434.29 143.494 435.506 142.47 435.506 140.326V140.198C435.506 138.054 434.482 137.046 432.85 137.046C431.186 137.046 430.194 138.214 430.194 140.246V140.374C430.194 142.486 431.33 143.494 432.738 143.494ZM442.897 144.598C440.529 144.598 438.849 142.934 438.849 140.358V140.23C438.849 137.702 440.465 135.942 442.769 135.942C444.705 135.942 446.529 137.11 446.529 140.102V140.534H440.225C440.289 142.438 441.201 143.494 442.913 143.494C444.209 143.494 444.961 143.014 445.137 142.038H446.465C446.177 143.718 444.785 144.598 442.897 144.598ZM440.273 139.462H445.169C445.041 137.734 444.145 137.046 442.769 137.046C441.409 137.046 440.497 137.974 440.273 139.462ZM451.237 144.598C449.237 144.598 448.037 143.59 447.957 141.878H449.253C449.349 142.87 449.877 143.494 451.221 143.494C452.485 143.494 453.045 143.062 453.045 142.166C453.045 141.286 452.389 140.998 451.093 140.758C448.917 140.358 448.181 139.75 448.181 138.294C448.181 136.742 449.701 135.942 451.013 135.942C452.517 135.942 453.813 136.55 454.037 138.358H452.757C452.565 137.446 452.053 137.046 450.997 137.046C450.037 137.046 449.413 137.526 449.413 138.246C449.413 138.998 449.829 139.302 451.365 139.574C453.093 139.894 454.309 140.278 454.309 142.054C454.309 143.574 453.269 144.598 451.237 144.598ZM458.876 144.566C457.356 144.566 456.62 143.67 456.62 142.358V137.206H455.42V136.086H456.62V134.182H457.948V136.086H459.9V137.206H457.948V142.23C457.948 143.046 458.316 143.446 458.988 143.446C459.404 143.446 459.724 143.382 460.012 143.27V144.39C459.74 144.486 459.42 144.566 458.876 144.566ZM466.254 147.366V136.086H467.582V137.494C468.062 136.678 469.198 135.942 470.414 135.942C472.606 135.942 474.222 137.542 474.222 140.15V140.278C474.222 142.838 472.718 144.598 470.414 144.598C469.038 144.598 468.062 143.91 467.582 143.078V147.366H466.254ZM470.286 143.494C471.95 143.494 472.846 142.374 472.846 140.342V140.214C472.846 138.102 471.678 137.046 470.27 137.046C468.718 137.046 467.534 138.07 467.534 140.214V140.342C467.534 142.486 468.654 143.494 470.286 143.494ZM478.381 144.598C476.829 144.598 475.597 143.846 475.597 142.134C475.597 140.198 477.645 139.542 479.789 139.542H480.989V138.934C480.989 137.606 480.477 137.046 479.197 137.046C478.045 137.046 477.405 137.526 477.277 138.55H475.949C476.125 136.646 477.645 135.942 479.261 135.942C480.861 135.942 482.317 136.598 482.317 138.934V144.454H480.989V143.398C480.365 144.182 479.613 144.598 478.381 144.598ZM478.509 143.542C479.917 143.542 480.989 142.822 480.989 141.526V140.486H479.837C478.157 140.486 476.925 140.902 476.925 142.134C476.925 142.998 477.341 143.542 478.509 143.542ZM484.926 144.454V136.086H486.254V137.59C486.782 136.646 487.502 135.99 489.006 135.942V137.19C487.326 137.27 486.254 137.798 486.254 139.862V144.454H484.926ZM493.564 144.566C492.044 144.566 491.308 143.67 491.308 142.358V137.206H490.108V136.086H491.308V134.182H492.636V136.086H494.588V137.206H492.636V142.23C492.636 143.046 493.004 143.446 493.676 143.446C494.092 143.446 494.412 143.382 494.7 143.27V144.39C494.428 144.486 494.108 144.566 493.564 144.566ZM504.43 143.494C506.11 143.494 507.166 142.23 507.166 140.342V140.23C507.166 138.294 506.094 137.046 504.43 137.046C502.75 137.046 501.694 138.294 501.694 140.214V140.342C501.694 142.246 502.734 143.494 504.43 143.494ZM504.414 144.598C502.03 144.598 500.318 142.79 500.318 140.342V140.214C500.318 137.702 502.062 135.942 504.43 135.942C506.798 135.942 508.542 137.686 508.542 140.198V140.326C508.542 142.854 506.798 144.598 504.414 144.598ZM510.886 144.454V137.206H509.686V136.086H510.886V134.726C510.886 133.03 511.718 132.038 513.382 132.038C513.814 132.038 514.038 132.086 514.374 132.198V133.318C514.134 133.222 513.798 133.142 513.43 133.142C512.566 133.142 512.214 133.734 512.214 134.582V136.086H514.262V137.206H512.214V144.454H510.886ZM521.116 147.366L522.7 143.59L519.42 136.086H520.844L523.404 142.086L525.724 136.086H527.084L522.46 147.366H521.116ZM532.086 143.494C533.766 143.494 534.822 142.23 534.822 140.342V140.23C534.822 138.294 533.75 137.046 532.086 137.046C530.406 137.046 529.35 138.294 529.35 140.214V140.342C529.35 142.246 530.39 143.494 532.086 143.494ZM532.07 144.598C529.686 144.598 527.974 142.79 527.974 140.342V140.214C527.974 137.702 529.718 135.942 532.086 135.942C534.454 135.942 536.198 137.686 536.198 140.198V140.326C536.198 142.854 534.454 144.598 532.07 144.598ZM541.086 144.598C539.422 144.598 538.174 143.686 538.174 141.382V136.086H539.502V141.318C539.502 142.79 540.126 143.446 541.438 143.446C542.622 143.446 543.742 142.662 543.742 141.158V136.086H545.07V144.454H543.742V143.126C543.358 143.91 542.43 144.598 541.086 144.598ZM547.754 144.454V136.086H549.082V137.59C549.61 136.646 550.33 135.99 551.834 135.942V137.19C550.154 137.27 549.082 137.798 549.082 139.862V144.454H547.754ZM558.004 144.454V132.086H559.332V137.414C559.716 136.63 560.644 135.942 562.02 135.942C563.748 135.942 564.964 136.886 564.964 139.318V144.454H563.636V139.222C563.636 137.75 563.012 137.094 561.668 137.094C560.436 137.094 559.332 137.878 559.332 139.382V144.454H558.004ZM567.599 144.454V136.086H568.927V144.454H567.599ZM568.239 134.342C567.759 134.342 567.359 133.942 567.359 133.462C567.359 132.982 567.759 132.582 568.239 132.582C568.719 132.582 569.119 132.982 569.119 133.462C569.119 133.942 568.719 134.342 568.239 134.342ZM571.645 147.366V136.086H572.973V137.494C573.453 136.678 574.589 135.942 575.805 135.942C577.997 135.942 579.613 137.542 579.613 140.15V140.278C579.613 142.838 578.109 144.598 575.805 144.598C574.429 144.598 573.453 143.91 572.973 143.078V147.366H571.645ZM575.677 143.494C577.341 143.494 578.237 142.374 578.237 140.342V140.214C578.237 138.102 577.069 137.046 575.661 137.046C574.109 137.046 572.925 138.07 572.925 140.214V140.342C572.925 142.486 574.045 143.494 575.677 143.494Z" fill="black"/>
<path d="M293.785 182.454V171.014H297.625C300.137 171.014 301.897 172.038 301.897 174.374V174.438C301.897 176.23 300.777 177.142 299.353 177.51L302.569 182.454H300.265L297.273 177.83H295.913V182.454H293.785ZM295.913 176.31H297.625C299.049 176.31 299.801 175.702 299.801 174.486V174.422C299.801 173.11 298.985 172.662 297.625 172.662H295.913V176.31ZM305.101 172.71C304.461 172.71 303.949 172.23 303.949 171.606C303.949 170.966 304.461 170.486 305.101 170.486C305.741 170.486 306.253 170.966 306.253 171.606C306.253 172.23 305.741 172.71 305.101 172.71ZM304.157 182.454V174.086H306.093V182.454H304.157ZM311.317 182.614C309.157 182.614 307.893 181.622 307.813 179.846H309.637C309.733 180.694 310.165 181.19 311.301 181.19C312.341 181.19 312.805 180.822 312.805 180.118C312.805 179.43 312.245 179.174 311.013 178.966C308.805 178.614 307.989 177.99 307.989 176.422C307.989 174.742 309.557 173.91 311.125 173.91C312.837 173.91 314.197 174.55 314.405 176.438H312.613C312.453 175.67 312.021 175.318 311.125 175.318C310.293 175.318 309.797 175.718 309.797 176.31C309.797 176.918 310.197 177.158 311.525 177.382C313.493 177.686 314.661 178.166 314.661 179.942C314.661 181.638 313.461 182.614 311.317 182.614ZM320.055 182.614C317.591 182.614 315.815 180.998 315.815 178.358V178.23C315.815 175.638 317.591 173.91 319.975 173.91C322.055 173.91 323.927 175.142 323.927 178.134V178.694H317.799C317.863 180.278 318.663 181.174 320.103 181.174C321.271 181.174 321.879 180.71 322.023 179.894H323.895C323.623 181.654 322.199 182.614 320.055 182.614ZM317.831 177.398H322.007C321.911 175.958 321.175 175.318 319.975 175.318C318.807 175.318 318.023 176.102 317.831 177.398ZM332.53 182.454V172.15H329.202V171.014H337.25V172.15H333.922V182.454H332.53ZM339.051 182.454V170.086H340.379V175.414C340.763 174.63 341.691 173.942 343.067 173.942C344.795 173.942 346.011 174.886 346.011 177.318V182.454H344.683V177.222C344.683 175.75 344.059 175.094 342.715 175.094C341.483 175.094 340.379 175.878 340.379 177.382V182.454H339.051ZM352.038 182.598C349.67 182.598 347.99 180.934 347.99 178.358V178.23C347.99 175.702 349.606 173.942 351.91 173.942C353.846 173.942 355.67 175.11 355.67 178.102V178.534H349.366C349.43 180.438 350.342 181.494 352.054 181.494C353.35 181.494 354.102 181.014 354.278 180.038H355.606C355.318 181.718 353.926 182.598 352.038 182.598ZM349.414 177.462H354.31C354.182 175.734 353.286 175.046 351.91 175.046C350.55 175.046 349.638 175.974 349.414 177.462ZM364.486 182.566C362.966 182.566 362.23 181.67 362.23 180.358V175.206H361.03V174.086H362.23V172.182H363.558V174.086H365.51V175.206H363.558V180.23C363.558 181.046 363.926 181.446 364.598 181.446C365.014 181.446 365.334 181.382 365.622 181.27V182.39C365.35 182.486 365.03 182.566 364.486 182.566ZM371.117 181.494C372.797 181.494 373.853 180.23 373.853 178.342V178.23C373.853 176.294 372.781 175.046 371.117 175.046C369.437 175.046 368.381 176.294 368.381 178.214V178.342C368.381 180.246 369.421 181.494 371.117 181.494ZM371.101 182.598C368.717 182.598 367.005 180.79 367.005 178.342V178.214C367.005 175.702 368.749 173.942 371.117 173.942C373.485 173.942 375.229 175.686 375.229 178.198V178.326C375.229 180.854 373.485 182.598 371.101 182.598ZM377.285 185.366V174.086H378.613V175.494C379.093 174.678 380.229 173.942 381.445 173.942C383.637 173.942 385.253 175.542 385.253 178.15V178.278C385.253 180.838 383.749 182.598 381.445 182.598C380.069 182.598 379.093 181.91 378.613 181.078V185.366H377.285ZM381.317 181.494C382.981 181.494 383.877 180.374 383.877 178.342V178.214C383.877 176.102 382.709 175.046 381.301 175.046C379.749 175.046 378.565 176.07 378.565 178.214V178.342C378.565 180.486 379.685 181.494 381.317 181.494ZM395.039 181.494C396.719 181.494 397.775 180.23 397.775 178.342V178.23C397.775 176.294 396.703 175.046 395.039 175.046C393.359 175.046 392.303 176.294 392.303 178.214V178.342C392.303 180.246 393.343 181.494 395.039 181.494ZM395.023 182.598C392.639 182.598 390.927 180.79 390.927 178.342V178.214C390.927 175.702 392.671 173.942 395.039 173.942C397.407 173.942 399.151 175.686 399.151 178.198V178.326C399.151 180.854 397.407 182.598 395.023 182.598ZM401.495 182.454V175.206H400.295V174.086H401.495V172.726C401.495 171.03 402.327 170.038 403.991 170.038C404.423 170.038 404.647 170.086 404.983 170.198V171.318C404.743 171.222 404.407 171.142 404.039 171.142C403.175 171.142 402.823 171.734 402.823 172.582V174.086H404.871V175.206H402.823V182.454H401.495ZM411.725 185.366L413.309 181.59L410.029 174.086H411.453L414.013 180.086L416.333 174.086H417.693L413.069 185.366H411.725ZM422.695 181.494C424.375 181.494 425.431 180.23 425.431 178.342V178.23C425.431 176.294 424.359 175.046 422.695 175.046C421.015 175.046 419.959 176.294 419.959 178.214V178.342C419.959 180.246 420.999 181.494 422.695 181.494ZM422.679 182.598C420.295 182.598 418.583 180.79 418.583 178.342V178.214C418.583 175.702 420.327 173.942 422.695 173.942C425.063 173.942 426.807 175.686 426.807 178.198V178.326C426.807 180.854 425.063 182.598 422.679 182.598ZM431.696 182.598C430.032 182.598 428.784 181.686 428.784 179.382V174.086H430.112V179.318C430.112 180.79 430.736 181.446 432.048 181.446C433.232 181.446 434.352 180.662 434.352 179.158V174.086H435.68V182.454H434.352V181.126C433.968 181.91 433.04 182.598 431.696 182.598ZM438.364 182.454V174.086H439.692V175.59C440.22 174.646 440.94 173.99 442.444 173.942V175.19C440.764 175.27 439.692 175.798 439.692 177.862V182.454H438.364ZM448.646 182.454V170.086H449.99V182.454H448.646ZM456.131 182.598C453.763 182.598 452.083 180.934 452.083 178.358V178.23C452.083 175.702 453.699 173.942 456.003 173.942C457.939 173.942 459.763 175.11 459.763 178.102V178.534H453.459C453.523 180.438 454.435 181.494 456.147 181.494C457.443 181.494 458.195 181.014 458.371 180.038H459.699C459.411 181.718 458.019 182.598 456.131 182.598ZM453.507 177.462H458.403C458.275 175.734 457.379 175.046 456.003 175.046C454.643 175.046 453.731 175.974 453.507 177.462ZM465.145 185.51C462.665 185.51 461.577 184.342 461.353 182.934H462.713C462.905 183.894 463.705 184.39 465.129 184.39C466.777 184.39 467.817 183.606 467.817 181.814V180.598C467.337 181.414 466.201 182.182 464.985 182.182C462.793 182.182 461.177 180.518 461.177 178.214V178.102C461.177 175.83 462.777 173.942 465.081 173.942C466.473 173.942 467.337 174.614 467.817 175.43V174.086H469.145V181.894C469.129 184.326 467.481 185.51 465.145 185.51ZM465.129 181.078C466.681 181.078 467.865 179.99 467.865 178.118V178.006C467.865 176.134 466.841 175.046 465.209 175.046C463.545 175.046 462.553 176.278 462.553 178.038V178.166C462.553 179.99 463.721 181.078 465.129 181.078ZM478.899 182.598C477.235 182.598 475.987 181.686 475.987 179.382V174.086H477.315V179.318C477.315 180.79 477.939 181.446 479.251 181.446C480.435 181.446 481.555 180.662 481.555 179.158V174.086H482.883V182.454H481.555V181.126C481.171 181.91 480.243 182.598 478.899 182.598ZM485.567 185.366V174.086H486.895V175.494C487.375 174.678 488.511 173.942 489.727 173.942C491.919 173.942 493.535 175.542 493.535 178.15V178.278C493.535 180.838 492.031 182.598 489.727 182.598C488.351 182.598 487.375 181.91 486.895 181.078V185.366H485.567ZM489.599 181.494C491.263 181.494 492.159 180.374 492.159 178.342V178.214C492.159 176.102 490.991 175.046 489.583 175.046C488.031 175.046 486.847 176.07 486.847 178.214V178.342C486.847 180.486 487.967 181.494 489.599 181.494ZM502.376 182.566C500.856 182.566 500.12 181.67 500.12 180.358V175.206H498.92V174.086H500.12V172.182H501.448V174.086H503.4V175.206H501.448V180.23C501.448 181.046 501.816 181.446 502.488 181.446C502.904 181.446 503.224 181.382 503.512 181.27V182.39C503.24 182.486 502.92 182.566 502.376 182.566ZM509.008 181.494C510.688 181.494 511.744 180.23 511.744 178.342V178.23C511.744 176.294 510.672 175.046 509.008 175.046C507.328 175.046 506.272 176.294 506.272 178.214V178.342C506.272 180.246 507.312 181.494 509.008 181.494ZM508.992 182.598C506.608 182.598 504.896 180.79 504.896 178.342V178.214C504.896 175.702 506.64 173.942 509.008 173.942C511.376 173.942 513.12 175.686 513.12 178.198V178.326C513.12 180.854 511.376 182.598 508.992 182.598ZM520.162 185.366L521.746 181.59L518.466 174.086H519.89L522.45 180.086L524.77 174.086H526.13L521.506 185.366H520.162ZM531.133 181.494C532.813 181.494 533.869 180.23 533.869 178.342V178.23C533.869 176.294 532.797 175.046 531.133 175.046C529.453 175.046 528.397 176.294 528.397 178.214V178.342C528.397 180.246 529.437 181.494 531.133 181.494ZM531.117 182.598C528.733 182.598 527.021 180.79 527.021 178.342V178.214C527.021 175.702 528.765 173.942 531.133 173.942C533.501 173.942 535.245 175.686 535.245 178.198V178.326C535.245 180.854 533.501 182.598 531.117 182.598ZM540.133 182.598C538.469 182.598 537.221 181.686 537.221 179.382V174.086H538.549V179.318C538.549 180.79 539.173 181.446 540.485 181.446C541.669 181.446 542.789 180.662 542.789 179.158V174.086H544.117V182.454H542.789V181.126C542.405 181.91 541.477 182.598 540.133 182.598ZM546.801 182.454V174.086H548.129V175.59C548.657 174.646 549.377 173.99 550.881 173.942V175.19C549.201 175.27 548.129 175.798 548.129 177.862V182.454H546.801ZM561.211 182.598C559.851 182.598 558.859 181.91 558.379 181.078V182.454H557.051V170.086H558.379V175.494C558.859 174.678 559.995 173.942 561.211 173.942C563.403 173.942 565.019 175.542 565.019 178.15V178.278C565.019 180.838 563.515 182.598 561.211 182.598ZM561.083 181.494C562.747 181.494 563.643 180.374 563.643 178.342V178.214C563.643 176.102 562.475 175.046 561.067 175.046C559.515 175.046 558.331 176.07 558.331 178.214V178.342C558.331 180.486 559.451 181.494 561.083 181.494ZM570.506 182.598C568.138 182.598 566.458 180.934 566.458 178.358V178.23C566.458 175.702 568.074 173.942 570.378 173.942C572.314 173.942 574.138 175.11 574.138 178.102V178.534H567.834C567.898 180.438 568.81 181.494 570.522 181.494C571.818 181.494 572.57 181.014 572.746 180.038H574.074C573.786 181.718 572.394 182.598 570.506 182.598ZM567.882 177.462H572.778C572.65 175.734 571.754 175.046 570.378 175.046C569.018 175.046 568.106 175.974 567.882 177.462ZM576.208 182.454V170.086H577.552V182.454H576.208ZM580.302 182.454V170.086H581.646V182.454H580.302ZM585.116 185.366L586.7 181.59L583.42 174.086H584.844L587.404 180.086L589.724 174.086H591.084L586.46 185.366H585.116ZM601.227 182.598C599.867 182.598 598.875 181.91 598.395 181.078V182.454H597.067V170.086H598.395V175.494C598.875 174.678 600.011 173.942 601.227 173.942C603.419 173.942 605.035 175.542 605.035 178.15V178.278C605.035 180.838 603.531 182.598 601.227 182.598ZM601.099 181.494C602.763 181.494 603.659 180.374 603.659 178.342V178.214C603.659 176.102 602.491 175.046 601.083 175.046C599.531 175.046 598.347 176.07 598.347 178.214V178.342C598.347 180.486 599.467 181.494 601.099 181.494ZM609.93 182.598C608.266 182.598 607.018 181.686 607.018 179.382V174.086H608.346V179.318C608.346 180.79 608.97 181.446 610.282 181.446C611.466 181.446 612.586 180.662 612.586 179.158V174.086H613.914V182.454H612.586V181.126C612.202 181.91 611.274 182.598 609.93 182.598ZM619.142 182.566C617.622 182.566 616.886 181.67 616.886 180.358V175.206H615.686V174.086H616.886V172.182H618.214V174.086H620.166V175.206H618.214V180.23C618.214 181.046 618.582 181.446 619.254 181.446C619.67 181.446 619.99 181.382 620.278 181.27V182.39C620.006 182.486 619.686 182.566 619.142 182.566ZM624.829 182.566C623.309 182.566 622.573 181.67 622.573 180.358V175.206H621.373V174.086H622.573V172.182H623.901V174.086H625.853V175.206H623.901V180.23C623.901 181.046 624.269 181.446 624.941 181.446C625.357 181.446 625.677 181.382 625.965 181.27V182.39C625.693 182.486 625.373 182.566 624.829 182.566ZM631.461 181.494C633.141 181.494 634.197 180.23 634.197 178.342V178.23C634.197 176.294 633.125 175.046 631.461 175.046C629.781 175.046 628.725 176.294 628.725 178.214V178.342C628.725 180.246 629.765 181.494 631.461 181.494ZM631.445 182.598C629.061 182.598 627.349 180.79 627.349 178.342V178.214C627.349 175.702 629.093 173.942 631.461 173.942C633.829 173.942 635.573 175.686 635.573 178.198V178.326C635.573 180.854 633.829 182.598 631.445 182.598ZM637.629 182.454V174.086H638.957V175.414C639.341 174.63 640.269 173.942 641.645 173.942C643.373 173.942 644.589 174.886 644.589 177.318V182.454H643.261V177.222C643.261 175.75 642.637 175.094 641.293 175.094C640.061 175.094 638.957 175.878 638.957 177.382V182.454H637.629Z" fill="black"/>
<path d="M293.849 220.454V209.014H295.993V220.454H293.849ZM298.531 220.454V212.086H300.467V213.414C300.867 212.598 301.795 211.91 303.171 211.91C304.851 211.91 306.035 212.886 306.035 215.19V220.454H304.099V215.366C304.099 214.102 303.587 213.526 302.435 213.526C301.347 213.526 300.467 214.198 300.467 215.526V220.454H298.531ZM311.129 220.614C308.969 220.614 307.705 219.622 307.625 217.846H309.449C309.545 218.694 309.977 219.19 311.113 219.19C312.153 219.19 312.617 218.822 312.617 218.118C312.617 217.43 312.057 217.174 310.825 216.966C308.617 216.614 307.801 215.99 307.801 214.422C307.801 212.742 309.369 211.91 310.937 211.91C312.649 211.91 314.009 212.55 314.217 214.438H312.425C312.265 213.67 311.833 213.318 310.937 213.318C310.105 213.318 309.609 213.718 309.609 214.31C309.609 214.918 310.009 215.158 311.337 215.382C313.305 215.686 314.473 216.166 314.473 217.942C314.473 219.638 313.273 220.614 311.129 220.614ZM319.867 220.614C317.403 220.614 315.627 218.998 315.627 216.358V216.23C315.627 213.638 317.403 211.91 319.787 211.91C321.867 211.91 323.739 213.142 323.739 216.134V216.694H317.611C317.675 218.278 318.475 219.174 319.915 219.174C321.083 219.174 321.691 218.71 321.835 217.894H323.707C323.435 219.654 322.011 220.614 319.867 220.614ZM317.643 215.398H321.819C321.723 213.958 320.987 213.318 319.787 213.318C318.619 213.318 317.835 214.102 317.643 215.398ZM327.739 220.614C326.203 220.614 324.939 219.878 324.939 218.134C324.939 216.182 326.827 215.478 329.227 215.478H330.267V215.046C330.267 213.926 329.883 213.366 328.747 213.366C327.739 213.366 327.243 213.846 327.147 214.678H325.275C325.435 212.726 326.987 211.91 328.859 211.91C330.731 211.91 332.203 212.678 332.203 214.966V220.454H330.299V219.43C329.755 220.15 329.019 220.614 327.739 220.614ZM328.203 219.222C329.387 219.222 330.267 218.598 330.267 217.526V216.694H329.275C327.803 216.694 326.859 217.03 326.859 218.054C326.859 218.758 327.243 219.222 328.203 219.222ZM334.422 220.454V212.086H336.358V213.366C336.758 212.582 337.67 211.91 338.902 211.91C339.99 211.91 340.854 212.374 341.27 213.414C341.91 212.374 343.062 211.91 344.102 211.91C345.638 211.91 346.886 212.854 346.886 215.158V220.454H344.95V215.286C344.95 214.054 344.422 213.526 343.462 213.526C342.502 213.526 341.622 214.166 341.622 215.446V220.454H339.686V215.286C339.686 214.054 339.142 213.526 338.198 213.526C337.238 213.526 336.358 214.166 336.358 215.446V220.454H334.422ZM355.983 220.454V210.15H352.655V209.014H360.703V210.15H357.375V220.454H355.983ZM362.504 220.454V208.086H363.832V213.414C364.216 212.63 365.144 211.942 366.52 211.942C368.248 211.942 369.464 212.886 369.464 215.318V220.454H368.136V215.222C368.136 213.75 367.512 213.094 366.168 213.094C364.936 213.094 363.832 213.878 363.832 215.382V220.454H362.504ZM375.491 220.598C373.123 220.598 371.443 218.934 371.443 216.358V216.23C371.443 213.702 373.059 211.942 375.363 211.942C377.299 211.942 379.123 213.11 379.123 216.102V216.534H372.819C372.883 218.438 373.795 219.494 375.507 219.494C376.803 219.494 377.555 219.014 377.731 218.038H379.059C378.771 219.718 377.379 220.598 375.491 220.598ZM372.867 215.462H377.763C377.635 213.734 376.739 213.046 375.363 213.046C374.003 213.046 373.091 213.974 372.867 215.462ZM387.939 220.566C386.419 220.566 385.683 219.67 385.683 218.358V213.206H384.483V212.086H385.683V210.182H387.011V212.086H388.963V213.206H387.011V218.23C387.011 219.046 387.379 219.446 388.051 219.446C388.467 219.446 388.787 219.382 389.075 219.27V220.39C388.803 220.486 388.483 220.566 387.939 220.566ZM394.57 219.494C396.25 219.494 397.306 218.23 397.306 216.342V216.23C397.306 214.294 396.234 213.046 394.57 213.046C392.89 213.046 391.834 214.294 391.834 216.214V216.342C391.834 218.246 392.874 219.494 394.57 219.494ZM394.554 220.598C392.17 220.598 390.458 218.79 390.458 216.342V216.214C390.458 213.702 392.202 211.942 394.57 211.942C396.938 211.942 398.682 213.686 398.682 216.198V216.326C398.682 218.854 396.938 220.598 394.554 220.598ZM400.739 223.366V212.086H402.067V213.494C402.547 212.678 403.683 211.942 404.899 211.942C407.091 211.942 408.707 213.542 408.707 216.15V216.278C408.707 218.838 407.203 220.598 404.899 220.598C403.523 220.598 402.547 219.91 402.067 219.078V223.366H400.739ZM404.771 219.494C406.435 219.494 407.331 218.374 407.331 216.342V216.214C407.331 214.102 406.163 213.046 404.755 213.046C403.203 213.046 402.019 214.07 402.019 216.214V216.342C402.019 218.486 403.139 219.494 404.771 219.494ZM418.492 219.494C420.172 219.494 421.228 218.23 421.228 216.342V216.23C421.228 214.294 420.156 213.046 418.492 213.046C416.812 213.046 415.756 214.294 415.756 216.214V216.342C415.756 218.246 416.796 219.494 418.492 219.494ZM418.476 220.598C416.092 220.598 414.38 218.79 414.38 216.342V216.214C414.38 213.702 416.124 211.942 418.492 211.942C420.86 211.942 422.604 213.686 422.604 216.198V216.326C422.604 218.854 420.86 220.598 418.476 220.598ZM424.948 220.454V213.206H423.748V212.086H424.948V210.726C424.948 209.03 425.78 208.038 427.444 208.038C427.876 208.038 428.1 208.086 428.436 208.198V209.318C428.196 209.222 427.86 209.142 427.492 209.142C426.628 209.142 426.276 209.734 426.276 210.582V212.086H428.324V213.206H426.276V220.454H424.948ZM435.178 223.366L436.762 219.59L433.482 212.086H434.906L437.466 218.086L439.786 212.086H441.146L436.522 223.366H435.178ZM446.148 219.494C447.828 219.494 448.884 218.23 448.884 216.342V216.23C448.884 214.294 447.812 213.046 446.148 213.046C444.468 213.046 443.412 214.294 443.412 216.214V216.342C443.412 218.246 444.452 219.494 446.148 219.494ZM446.132 220.598C443.748 220.598 442.036 218.79 442.036 216.342V216.214C442.036 213.702 443.78 211.942 446.148 211.942C448.516 211.942 450.26 213.686 450.26 216.198V216.326C450.26 218.854 448.516 220.598 446.132 220.598ZM455.149 220.598C453.485 220.598 452.237 219.686 452.237 217.382V212.086H453.565V217.318C453.565 218.79 454.189 219.446 455.501 219.446C456.685 219.446 457.805 218.662 457.805 217.158V212.086H459.133V220.454H457.805V219.126C457.421 219.91 456.493 220.598 455.149 220.598ZM461.817 220.454V212.086H463.145V213.59C463.673 212.646 464.393 211.99 465.897 211.942V213.19C464.217 213.27 463.145 213.798 463.145 215.862V220.454H461.817ZM472.099 220.454V208.086H473.443V220.454H472.099ZM479.584 220.598C477.216 220.598 475.536 218.934 475.536 216.358V216.23C475.536 213.702 477.152 211.942 479.456 211.942C481.392 211.942 483.216 213.11 483.216 216.102V216.534H476.912C476.976 218.438 477.888 219.494 479.6 219.494C480.896 219.494 481.648 219.014 481.824 218.038H483.152C482.864 219.718 481.472 220.598 479.584 220.598ZM476.96 215.462H481.856C481.728 213.734 480.832 213.046 479.456 213.046C478.096 213.046 477.184 213.974 476.96 215.462ZM488.598 223.51C486.118 223.51 485.03 222.342 484.806 220.934H486.166C486.358 221.894 487.158 222.39 488.582 222.39C490.23 222.39 491.27 221.606 491.27 219.814V218.598C490.79 219.414 489.654 220.182 488.438 220.182C486.246 220.182 484.63 218.518 484.63 216.214V216.102C484.63 213.83 486.23 211.942 488.534 211.942C489.926 211.942 490.79 212.614 491.27 213.43V212.086H492.598V219.894C492.582 222.326 490.934 223.51 488.598 223.51ZM488.582 219.078C490.134 219.078 491.318 217.99 491.318 216.118V216.006C491.318 214.134 490.294 213.046 488.662 213.046C486.998 213.046 486.006 214.278 486.006 216.038V216.166C486.006 217.99 487.174 219.078 488.582 219.078ZM502.672 220.598C500.48 220.598 498.896 219.046 498.896 216.438V216.31C498.896 213.75 500.496 211.942 502.8 211.942C504.192 211.942 505.056 212.614 505.536 213.43V208.086H506.864V220.454H505.536V219.014C505.056 219.83 503.888 220.598 502.672 220.598ZM502.816 219.494C504.368 219.494 505.584 218.47 505.584 216.326V216.198C505.584 214.054 504.56 213.046 502.928 213.046C501.264 213.046 500.272 214.214 500.272 216.246V216.374C500.272 218.486 501.408 219.494 502.816 219.494ZM513.039 219.494C514.719 219.494 515.775 218.23 515.775 216.342V216.23C515.775 214.294 514.703 213.046 513.039 213.046C511.359 213.046 510.303 214.294 510.303 216.214V216.342C510.303 218.246 511.343 219.494 513.039 219.494ZM513.023 220.598C510.639 220.598 508.927 218.79 508.927 216.342V216.214C508.927 213.702 510.671 211.942 513.039 211.942C515.407 211.942 517.151 213.686 517.151 216.198V216.326C517.151 218.854 515.407 220.598 513.023 220.598ZM520.731 220.454L518.155 212.086H519.595L521.547 218.822L523.579 212.086H524.731L526.635 218.822L528.603 212.086H529.963L527.355 220.454H525.883L524.139 214.182L522.187 220.454H520.731ZM531.754 220.454V212.086H533.082V213.414C533.466 212.63 534.394 211.942 535.77 211.942C537.498 211.942 538.714 212.886 538.714 215.318V220.454H537.386V215.222C537.386 213.75 536.762 213.094 535.418 213.094C534.186 213.094 533.082 213.878 533.082 215.382V220.454H531.754ZM548.095 220.566C546.575 220.566 545.839 219.67 545.839 218.358V213.206H544.639V212.086H545.839V210.182H547.167V212.086H549.119V213.206H547.167V218.23C547.167 219.046 547.535 219.446 548.207 219.446C548.623 219.446 548.943 219.382 549.231 219.27V220.39C548.959 220.486 548.639 220.566 548.095 220.566ZM554.727 219.494C556.407 219.494 557.463 218.23 557.463 216.342V216.23C557.463 214.294 556.391 213.046 554.727 213.046C553.047 213.046 551.991 214.294 551.991 216.214V216.342C551.991 218.246 553.031 219.494 554.727 219.494ZM554.711 220.598C552.327 220.598 550.615 218.79 550.615 216.342V216.214C550.615 213.702 552.359 211.942 554.727 211.942C557.095 211.942 558.839 213.686 558.839 216.198V216.326C558.839 218.854 557.095 220.598 554.711 220.598ZM567.673 220.566C566.153 220.566 565.417 219.67 565.417 218.358V213.206H564.217V212.086H565.417V210.182H566.745V212.086H568.697V213.206H566.745V218.23C566.745 219.046 567.113 219.446 567.785 219.446C568.201 219.446 568.521 219.382 568.809 219.27V220.39C568.537 220.486 568.217 220.566 567.673 220.566ZM570.817 220.454V208.086H572.145V213.414C572.529 212.63 573.457 211.942 574.833 211.942C576.561 211.942 577.777 212.886 577.777 215.318V220.454H576.449V215.222C576.449 213.75 575.825 213.094 574.481 213.094C573.249 213.094 572.145 213.878 572.145 215.382V220.454H570.817ZM583.803 220.598C581.435 220.598 579.755 218.934 579.755 216.358V216.23C579.755 213.702 581.371 211.942 583.675 211.942C585.611 211.942 587.435 213.11 587.435 216.102V216.534H581.131C581.195 218.438 582.107 219.494 583.819 219.494C585.115 219.494 585.867 219.014 586.043 218.038H587.371C587.083 219.718 585.691 220.598 583.803 220.598ZM581.179 215.462H586.075C585.947 213.734 585.051 213.046 583.675 213.046C582.315 213.046 581.403 213.974 581.179 215.462ZM593.995 220.454V213.206H592.795V212.086H593.995V210.726C593.995 209.03 594.811 208.038 596.459 208.038C596.891 208.038 597.115 208.07 597.371 208.166V209.286C597.131 209.19 596.875 209.142 596.507 209.142C595.659 209.142 595.323 209.734 595.323 210.582V212.086H597.371V213.206H595.323V220.454H593.995ZM599.036 220.454V208.086H600.38V220.454H599.036ZM606.586 219.494C608.266 219.494 609.322 218.23 609.322 216.342V216.23C609.322 214.294 608.25 213.046 606.586 213.046C604.906 213.046 603.85 214.294 603.85 216.214V216.342C603.85 218.246 604.89 219.494 606.586 219.494ZM606.57 220.598C604.186 220.598 602.474 218.79 602.474 216.342V216.214C602.474 213.702 604.218 211.942 606.586 211.942C608.954 211.942 610.698 213.686 610.698 216.198V216.326C610.698 218.854 608.954 220.598 606.57 220.598ZM616.242 219.494C617.922 219.494 618.978 218.23 618.978 216.342V216.23C618.978 214.294 617.906 213.046 616.242 213.046C614.562 213.046 613.506 214.294 613.506 216.214V216.342C613.506 218.246 614.546 219.494 616.242 219.494ZM616.226 220.598C613.842 220.598 612.13 218.79 612.13 216.342V216.214C612.13 213.702 613.874 211.942 616.242 211.942C618.61 211.942 620.354 213.686 620.354 216.198V216.326C620.354 218.854 618.61 220.598 616.226 220.598ZM622.41 220.454V212.086H623.738V213.59C624.266 212.646 624.986 211.99 626.49 211.942V213.19C624.81 213.27 623.738 213.798 623.738 215.862V220.454H622.41Z" fill="black"/>
<line x1="207.548" y1="61.8188" x2="284.7" y2="61.8188" stroke="#CCCCCC"/>
<line x1="198.117" y1="102.315" x2="284.7" y2="102.341" stroke="#CCCCCC"/>
<line x1="171.384" y1="174.448" x2="284.767" y2="174.448" stroke="#CCCCCC"/>
<line x1="219.004" y1="136.905" x2="283.934" y2="136.905" stroke="#CCCCCC"/>
<line x1="180.972" y1="211.991" x2="283.934" y2="211.991" stroke="#CCCCCC"/>
<path fill-rule="evenodd" clip-rule="evenodd" d="M197.792 102.165C197.793 102.168 197.794 102.17 197.794 102.17C197.793 102.17 197.793 102.169 197.793 102.168C197.793 102.167 197.792 102.166 197.792 102.165ZM197.58 102.323C197.689 102.232 197.744 102.166 197.77 102.127C197.77 102.127 197.77 102.127 197.769 102.126C198.046 101.948 198.229 101.638 198.229 101.285V101.171C198.596 101.48 198.788 101.8 198.788 102.127C198.788 104.764 186.308 106.902 170.913 106.902C155.518 106.902 143.038 104.764 143.038 102.127C143.038 101.802 143.229 101.483 143.592 101.176V101.285C143.592 101.641 143.778 101.953 144.058 102.13C144.085 102.169 144.14 102.234 144.246 102.323C144.503 102.538 144.943 102.791 145.604 103.059C146.917 103.591 148.877 104.091 151.371 104.518C156.345 105.37 163.254 105.902 170.913 105.902C178.572 105.902 185.482 105.37 190.455 104.518C192.95 104.091 194.909 103.591 196.222 103.059C196.883 102.791 197.323 102.538 197.58 102.323ZM144.033 102.17C144.033 102.17 144.033 102.168 144.034 102.165C144.033 102.168 144.033 102.17 144.033 102.17Z" fill="#37807F"/>
<path opacity="0.5" fill-rule="evenodd" clip-rule="evenodd" d="M197.763 102.134C197.764 102.132 197.765 102.131 197.766 102.129C197.74 102.09 197.685 102.025 197.576 101.934C197.319 101.719 196.879 101.465 196.218 101.198C194.905 100.666 192.946 100.166 190.451 99.7389C185.477 98.8871 178.568 98.3549 170.909 98.3549C163.25 98.3549 156.341 98.8871 151.367 99.7389C148.872 100.166 146.913 100.666 145.6 101.198C144.939 101.465 144.499 101.719 144.242 101.934C144.134 102.024 144.079 102.089 144.053 102.128C143.774 101.951 143.59 101.639 143.59 101.285V101.176C146.169 98.9959 157.42 97.3549 170.909 97.3549C184.409 97.3549 195.668 98.9986 198.235 101.181V101.285C198.235 101.643 198.046 101.957 197.763 102.134ZM144.029 102.087C144.028 102.087 144.029 102.089 144.03 102.091C144.029 102.089 144.029 102.087 144.029 102.087ZM197.788 102.091C197.789 102.089 197.79 102.087 197.789 102.087C197.789 102.087 197.789 102.089 197.788 102.091Z" fill="#37807F"/>
<path fill-rule="evenodd" clip-rule="evenodd" d="M133.725 61.851C133.48 61.6688 133.32 61.3764 133.32 61.0469V60.2755C132.787 60.6857 132.507 61.111 132.507 61.5469C132.507 64.9296 149.387 67.6719 170.21 67.6719C191.033 67.6719 207.913 64.9296 207.913 61.5469C207.913 61.1129 207.635 60.6894 207.107 60.2809V61.0469C207.107 61.3887 206.935 61.6905 206.674 61.8708C206.631 61.9104 206.582 61.9529 206.525 61.9981C206.137 62.306 205.504 62.6472 204.592 62.9975C202.778 63.6941 200.095 64.3408 196.71 64.8908C189.954 65.9883 180.585 66.6719 170.21 66.6719C159.835 66.6719 150.466 65.9883 143.71 64.8908C140.325 64.3408 137.642 63.6941 135.828 62.9975C134.916 62.6472 134.282 62.306 133.895 61.9981C133.828 61.9452 133.772 61.8961 133.725 61.851Z" fill="#37807F"/>
<path opacity="0.5" fill-rule="evenodd" clip-rule="evenodd" d="M206.91 61.6094C206.91 61.6091 206.911 61.6043 206.907 61.5921C206.903 61.5786 206.892 61.5524 206.868 61.5132C206.816 61.4311 206.714 61.3097 206.523 61.1582C206.135 60.8503 205.501 60.5091 204.589 60.1588C202.775 59.4622 200.093 58.8154 196.707 58.2654C189.952 57.168 180.582 56.4844 170.207 56.4844C159.832 56.4844 150.463 57.168 143.707 58.2654C140.322 58.8154 137.639 59.4622 135.826 60.1588C134.913 60.5091 134.28 60.8503 133.892 61.1582C133.701 61.3097 133.598 61.4311 133.547 61.5132C133.522 61.5524 133.512 61.5786 133.508 61.5921C133.504 61.6043 133.504 61.6091 133.504 61.6094L133.504 61.6094L133.504 61.6094C133.504 61.6096 133.504 61.6145 133.508 61.6267C133.512 61.6402 133.522 61.6664 133.547 61.7056C133.58 61.7591 133.635 61.8292 133.723 61.9135C133.477 61.7313 133.317 61.439 133.317 61.1094V60.338C136.92 57.5654 152.068 55.4844 170.207 55.4844C188.358 55.4844 203.514 57.5681 207.104 60.3434V61.1094C207.104 61.4512 206.933 61.753 206.671 61.9333C206.77 61.8402 206.832 61.7632 206.868 61.7056C206.892 61.6664 206.903 61.6402 206.907 61.6267C206.911 61.6145 206.91 61.6096 206.91 61.6094V61.6094V61.6094Z" fill="#37807F"/>
<path fill-rule="evenodd" clip-rule="evenodd" d="M218.631 137.55C218.631 137.545 218.631 137.496 218.558 137.39C218.555 137.387 218.553 137.383 218.551 137.38C218.578 137.289 218.592 137.192 218.592 137.093V136.077C219.273 136.552 219.631 137.045 219.631 137.55C219.631 141.488 197.868 144.68 171.021 144.68C144.175 144.68 122.412 141.488 122.412 137.55C122.412 137.042 122.774 136.547 123.462 136.069V137.093C123.462 137.188 123.475 137.281 123.5 137.369C123.495 137.376 123.49 137.383 123.485 137.39C123.412 137.496 123.412 137.545 123.412 137.55L123.412 137.55L123.412 137.55C123.412 137.555 123.412 137.603 123.485 137.71C123.566 137.826 123.718 137.984 123.982 138.174C124.516 138.557 125.367 138.967 126.56 139.38C128.932 140.203 132.419 140.96 136.795 141.602C145.53 142.883 157.631 143.68 171.021 143.68C184.412 143.68 196.513 142.883 205.248 141.602C209.624 140.96 213.111 140.203 215.483 139.38C216.676 138.967 217.527 138.557 218.061 138.174C218.325 137.984 218.477 137.826 218.558 137.71C218.631 137.603 218.631 137.555 218.631 137.55V137.55V137.55Z" fill="#37807F"/>
<path opacity="0.5" fill-rule="evenodd" clip-rule="evenodd" d="M123.489 137.414C123.469 137.334 123.458 137.251 123.458 137.165V136.103C128.104 132.876 147.632 130.453 171.018 130.453C194.421 130.453 213.961 132.879 218.589 136.11V137.165C218.589 137.255 218.577 137.341 218.555 137.424C218.555 137.424 218.555 137.424 218.555 137.423C218.474 137.307 218.322 137.149 218.058 136.959C217.524 136.576 216.673 136.166 215.48 135.753C213.108 134.93 209.621 134.173 205.245 133.531C196.51 132.25 184.409 131.453 171.018 131.453C157.628 131.453 145.527 132.25 136.792 133.531C132.416 134.173 128.929 134.93 126.557 135.753C125.364 136.166 124.513 136.576 123.979 136.959C123.722 137.143 123.571 137.298 123.489 137.414Z" fill="#37807F"/>
</svg>
