<svg xmlns="http://www.w3.org/2000/svg" width="24" height="24" fill="none" viewBox="0 0 24 24"><path fill="#000" d="M4.353 7.91c0-4.228 3.424-7.66 7.648-7.66s7.646 3.432 7.646 7.66a7.64 7.64 0 0 1-2.24 5.418 6.1 6.1 0 0 0-1.65 3.035 1 1 0 0 1-.031.106v4.513c0 .94-.508 1.662-1.217 2.117-.69.443-1.586.651-2.509.651s-1.82-.208-2.51-.651c-.71-.455-1.216-1.178-1.216-2.117v-4.515a1 1 0 0 1-.03-.103 6.1 6.1 0 0 0-1.651-3.036 7.64 7.64 0 0 1-2.24-5.417m5.204 7.545h4.887a7.6 7.6 0 0 1 1.902-3.186 6.15 6.15 0 0 0 1.801-4.358c0-3.404-2.753-6.161-6.146-6.161S5.853 4.507 5.853 7.91c0 1.703.687 3.242 1.801 4.358a7.6 7.6 0 0 1 1.903 3.187m.217 1.5v1.687h4.452v-1.687zm0 3.187v.84c0 .332.16.619.527.855.386.248.978.413 1.7.413.72 0 1.312-.165 1.698-.413.367-.236.527-.523.527-.855v-.84z"/></svg>