<svg xmlns="http://www.w3.org/2000/svg" xmlns:xlink="http://www.w3.org/1999/xlink" width="108" zoomAndPan="magnify" viewBox="0 0 81 30.000001" height="40" preserveAspectRatio="xMidYMid meet" version="1.0"><defs><g/><clipPath id="6b03cc4c5b"><path d="M 1.304688 0 L 73 0 L 73 29.03125 L 1.304688 29.03125 Z M 1.304688 0 " clip-rule="nonzero"/></clipPath><clipPath id="794ac226ef"><path d="M 1.304688 0 L 71 0 L 71 29.03125 L 1.304688 29.03125 Z M 1.304688 0 " clip-rule="nonzero"/></clipPath></defs><g clip-path="url(#6b03cc4c5b)"><path stroke-linecap="butt" transform="matrix(0.238498, -0.0208659, 0.0208659, 0.238498, -6.85701, 12.720582)" fill="none" stroke-linejoin="miter" d="M 77.082145 11.813477 L 95.606339 11.812659 L 85.514085 58.836913 L 102.859449 58.831232 L 101.396254 66.008046 L 65.560627 66.001135 Z M 141.754373 10.952907 C 146.651329 10.955494 150.625668 11.581638 153.661136 12.829919 C 156.712858 14.079622 159.114017 16.025821 160.88229 18.653684 C 162.022739 20.407692 162.896622 22.400435 163.520196 24.633336 C 164.146613 26.833728 164.464003 29.383791 164.45469 32.298355 C 164.466096 34.78889 164.229424 37.306856 163.765194 39.804914 C 163.315796 42.320648 162.679881 44.721793 161.856027 47.024603 C 161.032173 49.327412 160.0409 51.484546 158.882209 53.496005 C 157.707263 55.506041 156.404516 57.291976 154.975391 58.837554 C 152.314424 61.733049 149.236935 63.773177 145.728094 64.940262 C 142.235506 66.108768 137.926956 66.681773 132.799599 66.691787 C 127.853881 66.684934 123.869588 66.172569 120.864395 65.139857 C 117.841527 64.121978 115.447279 62.471198 113.697905 60.188938 C 112.444289 58.605193 111.458049 56.586241 110.737761 54.148336 C 110.018896 51.694178 109.664319 48.633127 109.662042 44.915001 C 109.673146 38.610237 110.78852 32.975333 113.042096 27.996878 C 115.295671 23.018424 118.490778 19.072298 122.642246 16.176176 C 125.15633 14.397948 127.939425 13.101855 130.994374 12.255389 C 134.083254 11.395512 137.675812 10.956407 141.754373 10.952907 Z M 132.12783 60.703985 C 133.438114 60.703971 134.668137 60.123685 135.834153 58.964551 C 137.001591 57.789163 138.071703 56.228554 139.062165 54.267891 C 140.070304 52.292397 140.96974 50.061714 141.794405 47.562433 C 142.619069 45.063152 143.319389 42.487478 143.896786 39.819157 C 144.459351 37.13316 144.905293 34.469717 145.218358 31.827405 C 145.531423 29.185094 145.693124 26.775218 145.685786 24.612609 C 145.683111 21.647861 145.385232 19.623619 144.79357 18.523629 C 144.20333 17.407385 143.334339 16.85638 142.188018 16.854362 C 140.877734 16.854376 139.631457 17.43324 138.435777 18.557021 C 137.238675 19.697057 136.122645 21.220892 135.071432 23.127104 C 134.003965 25.031894 133.060033 27.209548 132.23679 29.692575 C 131.41497 32.159348 130.699818 34.717345 130.110433 37.335482 C 129.504794 39.952196 129.049708 42.532947 128.726077 45.10882 C 128.421544 47.653607 128.280363 50.016142 128.27287 52.161075 C 128.266202 55.419819 128.628287 57.646221 129.340028 58.871367 C 130.051768 60.096512 130.98151 60.701967 132.12783 60.703985 Z M 198.75994 27.519871 C 198.932833 26.666935 199.018967 25.495217 199.016918 24.020969 C 199.009594 23.168645 198.952086 22.328308 198.844393 21.49996 C 198.735278 20.687865 198.537783 19.949931 198.251906 19.286157 C 197.96603 18.622384 197.5359 18.109775 196.97777 17.749752 C 196.404809 17.372054 195.667074 17.192861 194.749733 17.194497 C 193.734867 17.1876 192.797617 17.416793 191.937983 17.882077 C 191.079772 18.331106 190.323963 18.920123 189.655724 19.631451 C 189.005161 20.327946 188.489509 21.167273 188.113034 22.10067 C 187.752813 23.035488 187.584797 24.019879 187.576478 25.050999 C 187.579949 26.508992 187.954619 27.655512 188.719587 28.459472 C 189.502231 29.2486 190.508977 29.909927 191.758923 30.412368 C 193.007447 30.931063 194.427045 31.366454 196.019138 31.702287 C 197.611232 32.038119 199.262653 32.444656 200.976247 32.88939 C 202.398689 33.292273 203.828853 33.794102 205.246218 34.442218 C 206.666427 35.057827 207.935273 35.90587 209.039345 36.952419 C 210.143417 37.998968 211.040252 39.354956 211.728429 41.036639 C 212.416606 42.718321 212.75756 44.811846 212.767543 47.318635 C 212.766365 50.889053 212.043904 53.90501 210.617837 56.351675 C 209.208024 58.799762 207.23236 60.788881 204.721931 62.338128 C 202.2306 63.85629 199.250422 64.971355 195.799074 65.668491 C 192.381657 66.352218 188.635089 66.679577 184.60529 66.687343 C 180.494221 66.687999 177.160704 66.412733 174.554556 65.873532 C 171.980915 65.337176 169.952193 64.750222 168.466967 64.128926 C 166.713954 63.38593 165.396346 62.53362 164.53182 61.557164 L 167.453973 49.872868 L 182.456512 49.875138 C 182.394752 50.393848 182.333604 51.092775 182.289321 51.973341 C 182.228784 52.852486 182.200145 53.554257 182.204823 54.062401 C 182.19386 54.74934 182.28042 55.444812 182.445408 56.179902 C 182.626649 56.916414 182.909682 57.612696 183.264841 58.233396 C 183.636254 58.855517 184.165331 59.360404 184.850649 59.764311 C 185.535968 60.168218 186.38606 60.37362 187.417179 60.381938 C 188.547246 60.382535 189.553778 60.110267 190.433932 59.597644 C 191.314086 59.08502 192.057908 58.445819 192.663974 57.696295 C 193.256631 56.91284 193.708688 56.051571 194.018725 55.128741 C 194.331606 54.173402 194.493933 53.254027 194.490875 52.352941 C 194.485172 51.107673 194.200917 50.050956 193.602756 49.212454 C 193.00744 48.341444 192.1866 47.614489 191.157911 47.016755 C 190.145477 46.420444 188.961969 45.907438 187.623642 45.479157 C 186.285315 45.050876 184.915901 44.603498 183.497726 44.151853 C 182.124046 43.753236 180.674784 43.282493 179.152784 42.707115 C 177.663292 42.134581 176.291234 41.343021 175.038031 40.316182 C 173.784828 39.289343 172.752271 37.986995 171.905008 36.438801 C 171.091676 34.877197 170.678596 32.859254 170.679178 30.418904 C 170.686045 26.78347 171.609244 23.719561 173.447352 21.243431 C 175.301714 18.768722 177.639235 16.762127 180.459914 15.223644 C 183.26434 13.683739 186.356874 12.594883 189.706431 11.937976 C 193.055988 11.281069 196.24565 10.954123 199.259161 10.955714 C 203.255029 10.961358 206.686682 11.425374 209.551276 12.380271 C 212.434967 13.304081 214.599823 14.394301 216.078351 15.653774 L 212.92783 27.514633 Z M 233.669923 66.000868 L 215.228422 65.992542 L 226.748518 11.821139 L 245.272712 11.820321 Z M 290.307553 65.993323 L 270.357875 66.000455 L 269.153699 52.431949 L 253.380107 52.444113 L 247.313415 65.998886 L 239.02626 65.994509 L 264.207525 11.806292 L 284.434945 11.80708 Z M 256.186308 46.203725 L 268.568278 46.206024 L 266.585423 23.004327 Z M 256.186308 46.203725 " stroke="#000000" stroke-width="6.399998" stroke-opacity="1" stroke-miterlimit="4"/></g><g fill="#000000" fill-opacity="1"><g transform="translate(10.156673, 27.09344)"><g><path d="M 1.609375 -13.15625 L 6.03125 -13.546875 L 4.609375 -2.140625 L 8.734375 -2.5 L 8.546875 -0.75 L 0 0 Z M 1.609375 -13.15625 "/></g></g></g><g fill="#000000" fill-opacity="1"><g transform="translate(19.965659, 26.235265)"><g><path d="M 7.21875 -13.859375 C 8.394531 -13.960938 9.351562 -13.894531 10.09375 -13.65625 C 10.84375 -13.425781 11.457031 -13.007812 11.9375 -12.40625 C 12.238281 -12.019531 12.488281 -11.566406 12.6875 -11.046875 C 12.882812 -10.535156 13.015625 -9.929688 13.078125 -9.234375 C 13.128906 -8.640625 13.125 -8.039062 13.0625 -7.4375 C 13.007812 -6.832031 12.90625 -6.242188 12.75 -5.671875 C 12.601562 -5.109375 12.410156 -4.570312 12.171875 -4.0625 C 11.929688 -3.550781 11.660156 -3.101562 11.359375 -2.71875 C 10.773438 -1.96875 10.082031 -1.414062 9.28125 -1.0625 C 8.476562 -0.71875 7.460938 -0.492188 6.234375 -0.390625 C 5.054688 -0.285156 4.097656 -0.320312 3.359375 -0.5 C 2.617188 -0.6875 2.015625 -1.03125 1.546875 -1.53125 C 1.210938 -1.882812 0.9375 -2.34375 0.71875 -2.90625 C 0.5 -3.476562 0.351562 -4.207031 0.28125 -5.09375 C 0.144531 -6.59375 0.289062 -7.957031 0.71875 -9.1875 C 1.144531 -10.425781 1.828125 -11.429688 2.765625 -12.203125 C 3.328125 -12.679688 3.960938 -13.054688 4.671875 -13.328125 C 5.390625 -13.597656 6.238281 -13.773438 7.21875 -13.859375 Z M 5.953125 -1.796875 C 6.265625 -1.828125 6.546875 -1.988281 6.796875 -2.28125 C 7.046875 -2.582031 7.269531 -2.976562 7.46875 -3.46875 C 7.664062 -3.957031 7.835938 -4.507812 7.984375 -5.125 C 8.128906 -5.75 8.242188 -6.382812 8.328125 -7.03125 C 8.410156 -7.675781 8.457031 -8.316406 8.46875 -8.953125 C 8.488281 -9.585938 8.476562 -10.164062 8.4375 -10.6875 C 8.375 -11.382812 8.257812 -11.859375 8.09375 -12.109375 C 7.925781 -12.367188 7.707031 -12.484375 7.4375 -12.453125 C 7.125 -12.429688 6.835938 -12.269531 6.578125 -11.96875 C 6.316406 -11.675781 6.078125 -11.289062 5.859375 -10.8125 C 5.648438 -10.34375 5.472656 -9.800781 5.328125 -9.1875 C 5.191406 -8.570312 5.078125 -7.945312 4.984375 -7.3125 C 4.898438 -6.6875 4.847656 -6.0625 4.828125 -5.4375 C 4.804688 -4.820312 4.820312 -4.257812 4.875 -3.75 C 4.9375 -2.96875 5.0625 -2.441406 5.25 -2.171875 C 5.445312 -1.898438 5.679688 -1.773438 5.953125 -1.796875 Z M 5.953125 -1.796875 "/></g></g></g><g fill="#000000" fill-opacity="1"><g transform="translate(33.905817, 25.01566)"><g><path d="M 7.21875 -9.875 C 7.238281 -10.082031 7.234375 -10.363281 7.203125 -10.71875 C 7.179688 -10.914062 7.148438 -11.113281 7.109375 -11.3125 C 7.066406 -11.507812 7.003906 -11.679688 6.921875 -11.828125 C 6.835938 -11.984375 6.722656 -12.097656 6.578125 -12.171875 C 6.429688 -12.242188 6.253906 -12.273438 6.046875 -12.265625 C 5.796875 -12.234375 5.578125 -12.15625 5.390625 -12.03125 C 5.203125 -11.90625 5.035156 -11.75 4.890625 -11.5625 C 4.753906 -11.375 4.648438 -11.164062 4.578125 -10.9375 C 4.503906 -10.71875 4.476562 -10.484375 4.5 -10.234375 C 4.53125 -9.878906 4.644531 -9.613281 4.84375 -9.4375 C 5.039062 -9.269531 5.296875 -9.132812 5.609375 -9.03125 C 5.921875 -8.9375 6.269531 -8.863281 6.65625 -8.8125 C 7.039062 -8.769531 7.441406 -8.710938 7.859375 -8.640625 C 8.210938 -8.578125 8.5625 -8.484375 8.90625 -8.359375 C 9.257812 -8.234375 9.578125 -8.054688 9.859375 -7.828125 C 10.140625 -7.609375 10.378906 -7.304688 10.578125 -6.921875 C 10.773438 -6.546875 10.898438 -6.054688 10.953125 -5.453125 C 11.023438 -4.597656 10.914062 -3.863281 10.625 -3.25 C 10.34375 -2.632812 9.921875 -2.117188 9.359375 -1.703125 C 8.796875 -1.285156 8.113281 -0.957031 7.3125 -0.71875 C 6.507812 -0.488281 5.625 -0.332031 4.65625 -0.25 C 3.675781 -0.164062 2.875 -0.15625 2.25 -0.21875 C 1.625 -0.289062 1.125 -0.390625 0.75 -0.515625 C 0.3125 -0.660156 -0.015625 -0.835938 -0.234375 -1.046875 L 0.203125 -3.890625 L 3.78125 -4.203125 C 3.789062 -4.078125 3.796875 -3.910156 3.796875 -3.703125 C 3.796875 -3.492188 3.800781 -3.328125 3.8125 -3.203125 C 3.820312 -3.035156 3.851562 -2.863281 3.90625 -2.6875 C 3.96875 -2.507812 4.050781 -2.351562 4.15625 -2.21875 C 4.257812 -2.09375 4.398438 -1.988281 4.578125 -1.90625 C 4.753906 -1.820312 4.960938 -1.789062 5.203125 -1.8125 C 5.472656 -1.832031 5.703125 -1.914062 5.890625 -2.0625 C 6.085938 -2.207031 6.25 -2.375 6.375 -2.5625 C 6.5 -2.75 6.59375 -2.957031 6.65625 -3.1875 C 6.71875 -3.414062 6.738281 -3.640625 6.71875 -3.859375 C 6.6875 -4.160156 6.585938 -4.40625 6.421875 -4.59375 C 6.265625 -4.789062 6.054688 -4.953125 5.796875 -5.078125 C 5.546875 -5.203125 5.257812 -5.296875 4.9375 -5.359375 C 4.613281 -5.429688 4.273438 -5.507812 3.921875 -5.59375 C 3.585938 -5.664062 3.234375 -5.753906 2.859375 -5.859375 C 2.484375 -5.960938 2.140625 -6.117188 1.828125 -6.328125 C 1.515625 -6.546875 1.238281 -6.832031 1 -7.1875 C 0.769531 -7.539062 0.632812 -8.007812 0.59375 -8.59375 C 0.507812 -9.46875 0.660156 -10.21875 1.046875 -10.84375 C 1.429688 -11.46875 1.941406 -11.992188 2.578125 -12.421875 C 3.222656 -12.847656 3.941406 -13.175781 4.734375 -13.40625 C 5.523438 -13.632812 6.28125 -13.78125 7 -13.84375 C 7.945312 -13.925781 8.769531 -13.882812 9.46875 -13.71875 C 10.164062 -13.550781 10.707031 -13.332031 11.09375 -13.0625 L 10.59375 -10.171875 Z M 7.21875 -9.875 "/></g></g></g><g fill="#000000" fill-opacity="1"><g transform="translate(45.851617, 23.970538)"><g><path d="M 4.390625 -0.390625 L 0 0 L 1.609375 -13.15625 L 6.03125 -13.546875 Z M 4.390625 -0.390625 "/></g></g></g><g fill="#000000" fill-opacity="1"><g transform="translate(52.485909, 23.390112)"><g><path d="M 11.265625 -0.984375 L 6.5 -0.5625 L 5.9375 -3.78125 L 2.171875 -3.453125 L 1.015625 -0.09375 L -0.953125 0.078125 L 3.921875 -13.359375 L 8.75 -13.78125 Z M 2.71875 -5 L 5.6875 -5.25 L 4.734375 -10.734375 Z M 2.71875 -5 "/></g></g></g><g clip-path="url(#794ac226ef)"><path stroke-linecap="butt" transform="matrix(0.238498, -0.0208659, 0.0208659, 0.238498, -8.293465, 11.284127)" fill="none" stroke-linejoin="miter" d="M 77.078178 11.80875 L 95.602372 11.807932 L 85.526372 58.833608 L 102.855483 58.826505 L 101.392288 66.003318 L 65.55666 65.996407 Z M 141.748984 10.964434 C 146.64594 10.96702 150.621701 11.576911 153.672001 12.842868 C 156.707469 14.091149 159.110051 16.021094 160.878324 18.648956 C 162.01735 20.419218 162.891234 22.411962 163.516229 24.628608 C 164.142646 26.829001 164.458614 29.395317 164.466977 32.295049 C 164.460707 34.800416 164.225457 37.302129 163.776059 39.817863 C 163.311829 42.315921 162.675915 44.717066 161.85206 47.019875 C 161.028206 49.322685 160.036934 51.479819 158.87682 53.507531 C 157.701874 55.517568 156.416803 57.28867 154.987679 58.834248 C 152.310457 61.728322 149.232969 63.76845 145.724127 64.935534 C 142.231539 66.10404 137.921567 66.6933 132.795632 66.687059 C 127.849914 66.680207 123.865621 66.167841 120.859006 65.151384 C 117.83756 64.117251 115.459566 62.467892 113.693938 60.18421 C 112.440322 58.600465 111.45266 56.597767 110.733794 54.143609 C 110.029761 51.707126 109.676606 48.629822 109.674329 44.911696 C 109.669179 38.605509 110.800807 32.972027 113.036707 28.008405 C 115.291705 23.013696 118.503065 19.068992 122.654534 16.17287 C 125.150941 14.409475 127.935458 13.097128 131.006661 12.252083 C 134.079287 11.390784 137.670423 10.967934 141.748984 10.964434 Z M 132.122441 60.715512 C 133.432725 60.715497 134.66417 60.118958 135.830186 58.959824 C 136.997624 57.784436 138.08399 56.225249 139.058198 54.263164 C 140.064915 52.303924 140.982028 50.058409 141.790438 47.557706 C 142.631357 45.059847 143.331676 42.484173 143.892819 39.81443 C 144.471638 37.129855 144.899904 34.481243 145.212969 31.838932 C 145.527456 29.180366 145.689157 26.77049 145.681819 24.607882 C 145.695398 21.644555 145.397519 19.620313 144.789603 18.518901 C 144.197941 17.418911 143.330372 16.851653 142.184051 16.849634 C 140.890021 16.851071 139.62749 17.428512 138.446642 18.56997 C 137.24954 19.710006 136.118678 21.216164 135.067465 23.122376 C 134.016253 25.028588 133.070898 27.222497 132.232823 29.687847 C 131.411003 32.15462 130.695851 34.712618 130.106466 37.330754 C 129.517081 39.948891 129.045741 42.528219 128.738364 45.105514 C 128.43241 47.666555 128.276397 50.011415 128.267481 52.172601 C 128.278489 55.416514 128.622898 57.657748 129.334639 58.882893 C 130.064055 60.093206 130.992375 60.714915 132.122441 60.715512 Z M 198.772227 27.516566 C 198.928866 26.662208 199.015 25.490489 199.012951 24.016242 C 199.021882 23.165339 198.964373 22.325003 198.840426 21.495232 C 198.731312 20.683138 198.533816 19.945204 198.246517 19.297684 C 197.960641 18.63391 197.548187 18.106469 196.973803 17.745025 C 196.39942 17.383581 195.663107 17.188133 194.745766 17.189769 C 193.7309 17.182873 192.79365 17.412066 191.934017 17.877349 C 191.092059 18.327801 190.319996 18.915395 189.668011 19.628145 C 188.999772 20.339473 188.485542 21.162546 188.123899 22.113618 C 187.7651 23.032182 187.58083 24.015151 187.572512 25.046271 C 187.57456 26.520519 187.966906 27.652206 188.71562 28.454744 C 189.498264 29.243872 190.521264 29.906622 191.769788 30.425317 C 193.019734 30.927758 194.423078 31.361727 196.013749 31.713813 C 197.605843 32.049646 199.258686 32.439929 200.970858 32.900917 C 202.394722 33.287545 203.823464 33.805629 205.242251 34.437491 C 206.677293 35.070775 207.931306 35.901143 209.033956 36.963946 C 210.13945 37.99424 211.034863 39.366483 211.72304 41.048165 C 212.411217 42.729848 212.769847 44.808541 212.763577 47.313908 C 212.760976 50.900579 212.054769 53.917959 210.61387 56.346948 C 209.204057 58.795035 207.244647 60.785575 204.717964 62.333401 C 202.225211 63.867816 199.246456 64.966627 195.811362 65.665186 C 192.37769 66.347491 188.645954 66.692526 184.601323 66.682616 C 180.506508 66.684694 177.155315 66.424259 174.550589 65.868805 C 171.976948 65.332448 169.948226 64.745495 168.479255 64.12562 C 166.709987 63.381202 165.392379 62.528892 164.542685 61.570113 L 167.450006 49.868141 L 182.452545 49.87041 C 182.390785 50.38912 182.345891 51.089469 182.283932 51.984868 C 182.224818 52.847758 182.196178 53.54953 182.200856 54.057674 C 182.206147 54.746035 182.291286 55.45776 182.456273 56.19285 C 182.637515 56.929363 182.905715 57.607968 183.260874 58.228668 C 183.632287 58.85079 184.159942 59.371931 184.84526 59.775838 C 185.530579 60.179745 186.382093 60.368892 187.413213 60.377211 C 188.543279 60.377808 189.548389 60.121794 190.428543 59.60917 C 191.324952 59.097969 192.068773 58.458768 192.660007 57.691567 C 193.252664 56.908113 193.703299 56.063097 194.014758 55.124013 C 194.326217 54.184929 194.489966 53.2493 194.486909 52.348213 C 194.49746 51.104368 194.195528 50.062483 193.59879 49.207727 C 193.002051 48.352971 192.181211 47.626015 191.152522 47.028282 C 190.140088 46.431971 188.974256 45.904132 187.619675 45.474429 C 186.281348 45.046149 184.911935 44.59877 183.493759 44.147125 C 182.118657 43.764763 180.670818 43.277765 179.165071 42.703809 C 177.657903 42.146107 176.287267 41.338294 175.034064 40.311455 C 173.780861 39.284616 172.746882 37.998521 171.917296 36.435495 C 171.087709 34.872469 170.674629 32.854527 170.675211 30.414176 C 170.682078 26.778743 171.603855 23.731088 173.458217 21.256379 C 175.297747 18.763995 177.635268 16.757399 180.454526 15.235171 C 183.275205 13.696688 186.352907 12.590155 189.702464 11.933248 C 193.066854 11.294018 196.256515 10.967071 199.270026 10.968663 C 203.251062 10.956631 206.681293 11.436901 209.547309 12.375543 C 212.429578 13.315607 214.61211 14.390995 216.074385 15.649046 L 212.922441 27.526159 Z M 233.665956 65.996141 L 215.223033 66.004069 L 226.744552 11.816412 L 245.268745 11.815594 Z M 290.318419 66.006271 L 270.353908 65.995728 L 269.148311 52.443475 L 253.37614 52.439386 L 247.309448 65.994158 L 239.020871 66.006036 L 264.21839 11.819241 L 284.44581 11.820029 Z M 256.197173 46.216673 L 268.564312 46.201296 L 266.581456 22.9996 Z M 256.197173 46.216673 " stroke="#000000" stroke-width="6.399998" stroke-opacity="1" stroke-miterlimit="4"/></g><g fill="#ffffff" fill-opacity="1"><g transform="translate(8.720218, 25.656985)"><g><path d="M 1.609375 -13.15625 L 6.03125 -13.546875 L 4.609375 -2.140625 L 8.734375 -2.5 L 8.546875 -0.75 L 0 0 Z M 1.609375 -13.15625 "/></g></g></g><g fill="#ffffff" fill-opacity="1"><g transform="translate(18.529204, 24.79881)"><g><path d="M 7.21875 -13.859375 C 8.394531 -13.960938 9.351562 -13.894531 10.09375 -13.65625 C 10.84375 -13.425781 11.457031 -13.007812 11.9375 -12.40625 C 12.238281 -12.019531 12.488281 -11.566406 12.6875 -11.046875 C 12.882812 -10.535156 13.015625 -9.929688 13.078125 -9.234375 C 13.128906 -8.640625 13.125 -8.039062 13.0625 -7.4375 C 13.007812 -6.832031 12.90625 -6.242188 12.75 -5.671875 C 12.601562 -5.109375 12.410156 -4.570312 12.171875 -4.0625 C 11.929688 -3.550781 11.660156 -3.101562 11.359375 -2.71875 C 10.773438 -1.96875 10.082031 -1.414062 9.28125 -1.0625 C 8.476562 -0.71875 7.460938 -0.492188 6.234375 -0.390625 C 5.054688 -0.285156 4.097656 -0.320312 3.359375 -0.5 C 2.617188 -0.6875 2.015625 -1.03125 1.546875 -1.53125 C 1.210938 -1.882812 0.9375 -2.34375 0.71875 -2.90625 C 0.5 -3.476562 0.351562 -4.207031 0.28125 -5.09375 C 0.144531 -6.59375 0.289062 -7.957031 0.71875 -9.1875 C 1.144531 -10.425781 1.828125 -11.429688 2.765625 -12.203125 C 3.328125 -12.679688 3.960938 -13.054688 4.671875 -13.328125 C 5.390625 -13.597656 6.238281 -13.773438 7.21875 -13.859375 Z M 5.953125 -1.796875 C 6.265625 -1.828125 6.546875 -1.988281 6.796875 -2.28125 C 7.046875 -2.582031 7.269531 -2.976562 7.46875 -3.46875 C 7.664062 -3.957031 7.835938 -4.507812 7.984375 -5.125 C 8.128906 -5.75 8.242188 -6.382812 8.328125 -7.03125 C 8.410156 -7.675781 8.457031 -8.316406 8.46875 -8.953125 C 8.488281 -9.585938 8.476562 -10.164062 8.4375 -10.6875 C 8.375 -11.382812 8.257812 -11.859375 8.09375 -12.109375 C 7.925781 -12.367188 7.707031 -12.484375 7.4375 -12.453125 C 7.125 -12.429688 6.835938 -12.269531 6.578125 -11.96875 C 6.316406 -11.675781 6.078125 -11.289062 5.859375 -10.8125 C 5.648438 -10.34375 5.472656 -9.800781 5.328125 -9.1875 C 5.191406 -8.570312 5.078125 -7.945312 4.984375 -7.3125 C 4.898438 -6.6875 4.847656 -6.0625 4.828125 -5.4375 C 4.804688 -4.820312 4.820312 -4.257812 4.875 -3.75 C 4.9375 -2.96875 5.0625 -2.441406 5.25 -2.171875 C 5.445312 -1.898438 5.679688 -1.773438 5.953125 -1.796875 Z M 5.953125 -1.796875 "/></g></g></g><g fill="#ffffff" fill-opacity="1"><g transform="translate(32.469361, 23.579204)"><g><path d="M 7.21875 -9.875 C 7.238281 -10.082031 7.234375 -10.363281 7.203125 -10.71875 C 7.179688 -10.914062 7.148438 -11.113281 7.109375 -11.3125 C 7.066406 -11.507812 7.003906 -11.679688 6.921875 -11.828125 C 6.835938 -11.984375 6.722656 -12.097656 6.578125 -12.171875 C 6.429688 -12.242188 6.253906 -12.273438 6.046875 -12.265625 C 5.796875 -12.234375 5.578125 -12.15625 5.390625 -12.03125 C 5.203125 -11.90625 5.035156 -11.75 4.890625 -11.5625 C 4.753906 -11.375 4.648438 -11.164062 4.578125 -10.9375 C 4.503906 -10.71875 4.476562 -10.484375 4.5 -10.234375 C 4.53125 -9.878906 4.644531 -9.613281 4.84375 -9.4375 C 5.039062 -9.269531 5.296875 -9.132812 5.609375 -9.03125 C 5.921875 -8.9375 6.269531 -8.863281 6.65625 -8.8125 C 7.039062 -8.769531 7.441406 -8.710938 7.859375 -8.640625 C 8.210938 -8.578125 8.5625 -8.484375 8.90625 -8.359375 C 9.257812 -8.234375 9.578125 -8.054688 9.859375 -7.828125 C 10.140625 -7.609375 10.378906 -7.304688 10.578125 -6.921875 C 10.773438 -6.546875 10.898438 -6.054688 10.953125 -5.453125 C 11.023438 -4.597656 10.914062 -3.863281 10.625 -3.25 C 10.34375 -2.632812 9.921875 -2.117188 9.359375 -1.703125 C 8.796875 -1.285156 8.113281 -0.957031 7.3125 -0.71875 C 6.507812 -0.488281 5.625 -0.332031 4.65625 -0.25 C 3.675781 -0.164062 2.875 -0.15625 2.25 -0.21875 C 1.625 -0.289062 1.125 -0.390625 0.75 -0.515625 C 0.3125 -0.660156 -0.015625 -0.835938 -0.234375 -1.046875 L 0.203125 -3.890625 L 3.78125 -4.203125 C 3.789062 -4.078125 3.796875 -3.910156 3.796875 -3.703125 C 3.796875 -3.492188 3.800781 -3.328125 3.8125 -3.203125 C 3.820312 -3.035156 3.851562 -2.863281 3.90625 -2.6875 C 3.96875 -2.507812 4.050781 -2.351562 4.15625 -2.21875 C 4.257812 -2.09375 4.398438 -1.988281 4.578125 -1.90625 C 4.753906 -1.820312 4.960938 -1.789062 5.203125 -1.8125 C 5.472656 -1.832031 5.703125 -1.914062 5.890625 -2.0625 C 6.085938 -2.207031 6.25 -2.375 6.375 -2.5625 C 6.5 -2.75 6.59375 -2.957031 6.65625 -3.1875 C 6.71875 -3.414062 6.738281 -3.640625 6.71875 -3.859375 C 6.6875 -4.160156 6.585938 -4.40625 6.421875 -4.59375 C 6.265625 -4.789062 6.054688 -4.953125 5.796875 -5.078125 C 5.546875 -5.203125 5.257812 -5.296875 4.9375 -5.359375 C 4.613281 -5.429688 4.273438 -5.507812 3.921875 -5.59375 C 3.585938 -5.664062 3.234375 -5.753906 2.859375 -5.859375 C 2.484375 -5.960938 2.140625 -6.117188 1.828125 -6.328125 C 1.515625 -6.546875 1.238281 -6.832031 1 -7.1875 C 0.769531 -7.539062 0.632812 -8.007812 0.59375 -8.59375 C 0.507812 -9.46875 0.660156 -10.21875 1.046875 -10.84375 C 1.429688 -11.46875 1.941406 -11.992188 2.578125 -12.421875 C 3.222656 -12.847656 3.941406 -13.175781 4.734375 -13.40625 C 5.523438 -13.632812 6.28125 -13.78125 7 -13.84375 C 7.945312 -13.925781 8.769531 -13.882812 9.46875 -13.71875 C 10.164062 -13.550781 10.707031 -13.332031 11.09375 -13.0625 L 10.59375 -10.171875 Z M 7.21875 -9.875 "/></g></g></g><g fill="#ffffff" fill-opacity="1"><g transform="translate(44.415162, 22.534082)"><g><path d="M 4.390625 -0.390625 L 0 0 L 1.609375 -13.15625 L 6.03125 -13.546875 Z M 4.390625 -0.390625 "/></g></g></g><g fill="#ffffff" fill-opacity="1"><g transform="translate(51.049454, 21.953657)"><g><path d="M 11.265625 -0.984375 L 6.5 -0.5625 L 5.9375 -3.78125 L 2.171875 -3.453125 L 1.015625 -0.09375 L -0.953125 0.078125 L 3.921875 -13.359375 L 8.75 -13.78125 Z M 2.71875 -5 L 5.6875 -5.25 L 4.734375 -10.734375 Z M 2.71875 -5 "/></g></g></g><g fill="#000000" fill-opacity="1"><g transform="translate(56.05965, 4.390539)"><g><path d="M 0.671875 -0.375 C 0.566406 -0.3125 0.460938 -0.273438 0.359375 -0.265625 C 0.253906 -0.253906 0.160156 -0.265625 0.078125 -0.296875 C -0.00390625 -0.335938 -0.0703125 -0.398438 -0.125 -0.484375 L 0.078125 -0.609375 C 0.140625 -0.535156 0.207031 -0.488281 0.28125 -0.46875 C 0.363281 -0.445312 0.457031 -0.46875 0.5625 -0.53125 C 0.644531 -0.59375 0.703125 -0.664062 0.734375 -0.75 C 0.765625 -0.832031 0.753906 -0.910156 0.703125 -0.984375 C 0.671875 -1.046875 0.628906 -1.082031 0.578125 -1.09375 C 0.523438 -1.101562 0.46875 -1.101562 0.40625 -1.09375 C 0.34375 -1.082031 0.265625 -1.066406 0.171875 -1.046875 C 0.046875 -1.015625 -0.046875 -0.988281 -0.109375 -0.96875 C -0.179688 -0.957031 -0.253906 -0.96875 -0.328125 -1 C -0.410156 -1.03125 -0.484375 -1.097656 -0.546875 -1.203125 C -0.585938 -1.285156 -0.609375 -1.367188 -0.609375 -1.453125 C -0.609375 -1.546875 -0.578125 -1.628906 -0.515625 -1.703125 C -0.460938 -1.785156 -0.390625 -1.859375 -0.296875 -1.921875 C -0.148438 -2.003906 -0.0078125 -2.039062 0.125 -2.03125 C 0.257812 -2.019531 0.363281 -1.957031 0.4375 -1.84375 L 0.21875 -1.71875 C 0.175781 -1.757812 0.113281 -1.785156 0.03125 -1.796875 C -0.0390625 -1.804688 -0.125 -1.785156 -0.21875 -1.734375 C -0.289062 -1.679688 -0.34375 -1.617188 -0.375 -1.546875 C -0.40625 -1.484375 -0.398438 -1.410156 -0.359375 -1.328125 C -0.316406 -1.273438 -0.269531 -1.238281 -0.21875 -1.21875 C -0.164062 -1.207031 -0.109375 -1.203125 -0.046875 -1.203125 C 0.00390625 -1.210938 0.078125 -1.234375 0.171875 -1.265625 C 0.296875 -1.296875 0.394531 -1.316406 0.46875 -1.328125 C 0.550781 -1.335938 0.628906 -1.328125 0.703125 -1.296875 C 0.773438 -1.273438 0.84375 -1.21875 0.90625 -1.125 C 0.945312 -1.050781 0.96875 -0.96875 0.96875 -0.875 C 0.976562 -0.78125 0.953125 -0.6875 0.890625 -0.59375 C 0.835938 -0.507812 0.765625 -0.4375 0.671875 -0.375 Z M 0.671875 -0.375 "/></g></g></g><g fill="#000000" fill-opacity="1"><g transform="translate(57.803175, 3.396072)"><g><path d="M -0.1875 -1.640625 L 0.03125 -1.09375 L 0.640625 -1.328125 L 0.71875 -1.140625 L 0.109375 -0.90625 L 0.328125 -0.328125 L 1.015625 -0.59375 L 1.078125 -0.421875 L 0.1875 -0.078125 L -0.453125 -1.734375 L 0.4375 -2.078125 L 0.5 -1.90625 Z M -0.1875 -1.640625 "/></g></g></g><g fill="#000000" fill-opacity="1"><g transform="translate(59.498403, 2.761984)"><g><path d="M -0.046875 -0.890625 C -0.0664062 -1.066406 -0.0507812 -1.226562 0 -1.375 C 0.0507812 -1.53125 0.132812 -1.65625 0.25 -1.75 C 0.375 -1.84375 0.519531 -1.90625 0.6875 -1.9375 C 0.875 -1.96875 1.046875 -1.945312 1.203125 -1.875 C 1.359375 -1.8125 1.476562 -1.703125 1.5625 -1.546875 L 1.3125 -1.515625 C 1.25 -1.609375 1.164062 -1.675781 1.0625 -1.71875 C 0.957031 -1.757812 0.84375 -1.769531 0.71875 -1.75 C 0.59375 -1.726562 0.488281 -1.679688 0.40625 -1.609375 C 0.320312 -1.535156 0.257812 -1.441406 0.21875 -1.328125 C 0.175781 -1.210938 0.164062 -1.082031 0.1875 -0.9375 C 0.21875 -0.789062 0.269531 -0.671875 0.34375 -0.578125 C 0.414062 -0.492188 0.503906 -0.429688 0.609375 -0.390625 C 0.710938 -0.347656 0.828125 -0.335938 0.953125 -0.359375 C 1.078125 -0.378906 1.179688 -0.425781 1.265625 -0.5 C 1.347656 -0.570312 1.40625 -0.664062 1.4375 -0.78125 L 1.6875 -0.8125 C 1.65625 -0.632812 1.578125 -0.488281 1.453125 -0.375 C 1.328125 -0.257812 1.171875 -0.1875 0.984375 -0.15625 C 0.816406 -0.125 0.660156 -0.132812 0.515625 -0.1875 C 0.378906 -0.25 0.257812 -0.335938 0.15625 -0.453125 C 0.0507812 -0.566406 -0.015625 -0.710938 -0.046875 -0.890625 Z M -0.046875 -0.890625 "/></g></g></g><g fill="#000000" fill-opacity="1"><g transform="translate(61.924753, 2.402565)"><g><path d="M 1 0.078125 C 0.832031 0.0664062 0.679688 0.0195312 0.546875 -0.0625 C 0.421875 -0.15625 0.320312 -0.269531 0.25 -0.40625 C 0.175781 -0.550781 0.144531 -0.710938 0.15625 -0.890625 C 0.164062 -1.066406 0.210938 -1.21875 0.296875 -1.34375 C 0.390625 -1.476562 0.503906 -1.578125 0.640625 -1.640625 C 0.785156 -1.710938 0.941406 -1.742188 1.109375 -1.734375 C 1.273438 -1.722656 1.421875 -1.675781 1.546875 -1.59375 C 1.679688 -1.507812 1.78125 -1.394531 1.84375 -1.25 C 1.914062 -1.113281 1.945312 -0.957031 1.9375 -0.78125 C 1.925781 -0.601562 1.878906 -0.445312 1.796875 -0.3125 C 1.710938 -0.1875 1.597656 -0.0859375 1.453125 -0.015625 C 1.316406 0.0546875 1.164062 0.0859375 1 0.078125 Z M 1.015625 -0.125 C 1.140625 -0.113281 1.25 -0.132812 1.34375 -0.1875 C 1.445312 -0.238281 1.53125 -0.316406 1.59375 -0.421875 C 1.664062 -0.523438 1.703125 -0.648438 1.703125 -0.796875 C 1.710938 -0.941406 1.691406 -1.066406 1.640625 -1.171875 C 1.585938 -1.273438 1.515625 -1.359375 1.421875 -1.421875 C 1.328125 -1.484375 1.21875 -1.519531 1.09375 -1.53125 C 0.96875 -1.539062 0.851562 -1.519531 0.75 -1.46875 C 0.644531 -1.414062 0.5625 -1.335938 0.5 -1.234375 C 0.4375 -1.140625 0.398438 -1.019531 0.390625 -0.875 C 0.390625 -0.726562 0.410156 -0.597656 0.453125 -0.484375 C 0.503906 -0.378906 0.578125 -0.296875 0.671875 -0.234375 C 0.773438 -0.171875 0.890625 -0.132812 1.015625 -0.125 Z M 1.015625 -0.125 "/></g></g></g><g fill="#000000" fill-opacity="1"><g transform="translate(64.407038, 2.617518)"><g><path d="M 1.53125 0.4375 L 1.3125 0.375 L 0.796875 -1.21875 L 0.40625 0.125 L 0.1875 0.0625 L 0.6875 -1.65625 L 0.90625 -1.59375 L 1.40625 0.03125 L 1.8125 -1.34375 L 2.03125 -1.28125 Z M 1.53125 0.4375 "/></g></g></g><g fill="#000000" fill-opacity="1"><g transform="translate(66.587334, 3.301863)"><g><path d="M 1.5 -1.203125 C 1.675781 -1.109375 1.804688 -0.992188 1.890625 -0.859375 C 1.984375 -0.734375 2.03125 -0.59375 2.03125 -0.4375 C 2.03125 -0.289062 1.988281 -0.140625 1.90625 0.015625 C 1.8125 0.179688 1.703125 0.304688 1.578125 0.390625 C 1.460938 0.472656 1.320312 0.507812 1.15625 0.5 C 1 0.5 0.832031 0.453125 0.65625 0.359375 L 0.171875 0.09375 L 1.015625 -1.46875 Z M 0.75 0.1875 C 0.957031 0.289062 1.140625 0.316406 1.296875 0.265625 C 1.460938 0.210938 1.597656 0.09375 1.703125 -0.09375 C 1.804688 -0.289062 1.832031 -0.472656 1.78125 -0.640625 C 1.738281 -0.804688 1.613281 -0.941406 1.40625 -1.046875 L 1.125 -1.203125 L 0.46875 0.03125 Z M 0.75 0.1875 "/></g></g></g><g fill="#000000" fill-opacity="1"><g transform="translate(68.582356, 4.437787)"><g><path d="M 2.34375 -0.34375 L 1.1875 1.015625 L 1.015625 0.859375 L 1.546875 0.234375 L 0.859375 -0.34375 L 0.328125 0.28125 L 0.15625 0.125 L 1.3125 -1.234375 L 1.484375 -1.078125 L 0.96875 -0.484375 L 1.65625 0.09375 L 2.171875 -0.5 Z M 2.34375 -0.34375 "/></g></g></g><g fill="#000000" fill-opacity="1"><g transform="translate(70.267645, 5.94269)"><g><path d="M 1.078125 0.75 L 0.59375 0.140625 L 0.203125 0.265625 L 0.046875 0.0625 L 1.828125 -0.515625 L 2 -0.28125 L 1 1.28125 L 0.84375 1.09375 Z M 1.171875 0.5625 L 1.703125 -0.21875 L 0.78125 0.0625 Z M 1.171875 0.5625 "/></g></g></g><g fill="#000000" fill-opacity="1"><g transform="translate(71.583188, 7.722599)"><g><path d="M 0.6875 1.4375 L 0.59375 1.21875 L 1.453125 -0.234375 L 0.1875 0.375 L 0.09375 0.1875 L 1.703125 -0.59375 L 1.796875 -0.40625 L 0.921875 1.0625 L 2.203125 0.4375 L 2.296875 0.65625 Z M 0.6875 1.4375 "/></g></g></g><g fill="#000000" fill-opacity="1"><g transform="translate(72.528813, 9.802917)"><g><path d="M 1.90625 0.3125 C 1.957031 0.5 1.960938 0.671875 1.921875 0.828125 C 1.878906 0.984375 1.800781 1.113281 1.6875 1.21875 C 1.570312 1.320312 1.425781 1.394531 1.25 1.4375 C 1.070312 1.476562 0.910156 1.476562 0.765625 1.4375 C 0.628906 1.394531 0.507812 1.3125 0.40625 1.1875 C 0.300781 1.070312 0.222656 0.921875 0.171875 0.734375 L 0.046875 0.203125 L 1.78125 -0.21875 Z M 0.359375 0.6875 C 0.410156 0.90625 0.507812 1.054688 0.65625 1.140625 C 0.8125 1.234375 0.992188 1.253906 1.203125 1.203125 C 1.421875 1.148438 1.570312 1.050781 1.65625 0.90625 C 1.75 0.757812 1.769531 0.578125 1.71875 0.359375 L 1.640625 0.03125 L 0.28125 0.359375 Z M 0.359375 0.6875 "/></g></g></g><g fill="#000000" fill-opacity="1"><g transform="translate(72.987827, 12.076153)"><g/></g></g><g fill="#000000" fill-opacity="1"><g transform="translate(73.060829, 13.286289)"><g><path d="M 1.703125 1.328125 L 1.515625 1.3125 L 1.5625 0.53125 L 0.953125 0.484375 L 0.90625 1.109375 L 0.71875 1.09375 L 0.765625 0.46875 L -0.03125 0.421875 L -0.015625 0.203125 L 1.765625 0.328125 Z M 1.703125 1.328125 "/></g></g></g><g fill="#000000" fill-opacity="1"><g transform="translate(72.878419, 15.094279)"><g><path d="M 1.65625 0.765625 L -0.09375 0.40625 L -0.046875 0.203125 L 1.703125 0.5625 Z M 1.65625 0.765625 "/></g></g></g><g fill="#000000" fill-opacity="1"><g transform="translate(72.638074, 16.223315)"><g><path d="M -0.390625 1.046875 L 0.421875 0.90625 L 0.53125 0.640625 L -0.140625 0.390625 L -0.078125 0.1875 L 1.59375 0.8125 L 1.40625 1.34375 C 1.351562 1.46875 1.285156 1.566406 1.203125 1.640625 C 1.128906 1.710938 1.046875 1.753906 0.953125 1.765625 C 0.867188 1.773438 0.78125 1.765625 0.6875 1.734375 C 0.570312 1.691406 0.484375 1.617188 0.421875 1.515625 C 0.367188 1.421875 0.347656 1.304688 0.359375 1.171875 L -0.484375 1.3125 Z M 0.703125 0.703125 L 0.578125 1.03125 C 0.535156 1.144531 0.535156 1.238281 0.578125 1.3125 C 0.617188 1.394531 0.6875 1.457031 0.78125 1.5 C 0.875 1.53125 0.957031 1.523438 1.03125 1.484375 C 1.113281 1.453125 1.175781 1.378906 1.21875 1.265625 L 1.34375 0.9375 Z M 0.703125 0.703125 "/></g></g></g><g fill="#000000" fill-opacity="1"><g transform="translate(71.87635, 18.131966)"><g><path d="M -0.40625 0.640625 C -0.34375 0.535156 -0.269531 0.457031 -0.1875 0.40625 C -0.101562 0.351562 -0.0195312 0.320312 0.0625 0.3125 C 0.15625 0.300781 0.242188 0.320312 0.328125 0.375 L 0.203125 0.578125 C 0.128906 0.535156 0.0507812 0.523438 -0.03125 0.546875 C -0.113281 0.578125 -0.1875 0.644531 -0.25 0.75 C -0.3125 0.832031 -0.332031 0.914062 -0.3125 1 C -0.289062 1.082031 -0.242188 1.148438 -0.171875 1.203125 C -0.109375 1.234375 -0.0507812 1.242188 0 1.234375 C 0.0625 1.222656 0.113281 1.195312 0.15625 1.15625 C 0.207031 1.113281 0.265625 1.066406 0.328125 1.015625 C 0.421875 0.921875 0.492188 0.851562 0.546875 0.8125 C 0.609375 0.769531 0.679688 0.742188 0.765625 0.734375 C 0.847656 0.734375 0.941406 0.757812 1.046875 0.8125 C 1.128906 0.863281 1.1875 0.925781 1.21875 1 C 1.257812 1.070312 1.269531 1.160156 1.25 1.265625 C 1.238281 1.378906 1.203125 1.484375 1.140625 1.578125 C 1.054688 1.722656 0.953125 1.816406 0.828125 1.859375 C 0.710938 1.898438 0.59375 1.890625 0.46875 1.828125 L 0.59375 1.609375 C 0.65625 1.640625 0.722656 1.640625 0.796875 1.609375 C 0.867188 1.585938 0.929688 1.53125 0.984375 1.4375 C 1.035156 1.363281 1.054688 1.285156 1.046875 1.203125 C 1.046875 1.117188 1.003906 1.050781 0.921875 1 C 0.867188 0.96875 0.8125 0.957031 0.75 0.96875 C 0.695312 0.976562 0.644531 1 0.59375 1.03125 C 0.550781 1.070312 0.492188 1.128906 0.421875 1.203125 C 0.328125 1.285156 0.25 1.347656 0.1875 1.390625 C 0.125 1.441406 0.0546875 1.472656 -0.015625 1.484375 C -0.0859375 1.492188 -0.171875 1.46875 -0.265625 1.40625 C -0.335938 1.363281 -0.394531 1.300781 -0.4375 1.21875 C -0.488281 1.144531 -0.507812 1.050781 -0.5 0.9375 C -0.5 0.832031 -0.46875 0.734375 -0.40625 0.640625 Z M -0.40625 0.640625 "/></g></g></g><g fill="#000000" fill-opacity="1"><g transform="translate(70.795992, 19.821086)"><g><path d="M 0.484375 2.140625 L 0.34375 2.015625 L 0.65625 1.671875 L -0.53125 0.609375 L -0.390625 0.4375 L 0.796875 1.5 L 1.125 1.125 L 1.265625 1.25 Z M 0.484375 2.140625 "/></g></g></g></svg>