<svg xmlns="http://www.w3.org/2000/svg" width="12" height="20" fill="none" viewBox="0 0 12 20"><path fill="#000" fill-rule="evenodd" d="M6.39.955h-.173L5.042.888Q5.015.887 4.986.88a.3.3 0 0 0-.07-.01c-.462-.086-.915.189-1.02.623l-.183.738L.949 3.535a.83.83 0 0 0-.462.472.78.78 0 0 0 .029.624c.076.157.176.326.286.511l.09.15v.002C1.556 6.4 2.47 7.92 1.893 10.075c-.288 1.084-.595 1.773-.864 2.377l-.003.005c-.559 1.238-.915 2.051-.482 4.594a.87.87 0 0 0 .578.652c.492.17 1.667.435 4.19.491h.207v1.137a.482.482 0 1 0 .963 0v-1.137h.208c2.523-.056 3.699-.33 4.19-.491a.84.84 0 0 0 .578-.652c.432-2.534.07-3.35-.476-4.58l-.006-.014-.002-.005c-.27-.604-.577-1.293-.865-2.377-.577-2.154.337-3.675 1.002-4.781v-.001l.036-.062c.13-.222.252-.427.34-.6a.75.75 0 0 0 .038-.624.86.86 0 0 0-.462-.472L8.23 2.23l-.183-.738C7.941 1.058 7.488.784 7.026.87c-.212.039-.392.059-.54.075zm-.944.926.78.019.27-.02c.164-.009.386-.028.646-.075l.173.7c.058.245.24.463.491.567l2.756 1.276q-.064.115-.14.243-.064.105-.13.22c-.664 1.106-1.772 2.968-1.098 5.5.308 1.163.646 1.92.915 2.524l.01.022c.504 1.14.787 1.779.414 3.967-.424.132-1.618.397-4.315.425h-.405c-2.697-.019-3.891-.293-4.315-.425-.375-2.199-.088-2.843.422-3.984l.002-.005.02-.046c.266-.606.594-1.353.895-2.477.684-2.533-.434-4.395-1.098-5.501q-.066-.115-.13-.22-.076-.127-.14-.243l2.667-1.276a.83.83 0 0 0 .492-.567l.173-.7c.26.038.472.066.645.076" clip-rule="evenodd"/></svg>