<svg xmlns="http://www.w3.org/2000/svg" width="68" height="40" fill="#fff" aria-labelledby="mastercard-logo-outline" viewBox="0 0 68 40"><rect width="67" height="39" x=".5" y=".5" stroke="#C00" rx="1.5"/><path fill="#C00" fill-rule="evenodd" d="M38.277 20c0 7.186-5.825 13.01-13.01 13.01-7.186 0-13.01-5.824-13.01-13.01 0-7.185 5.824-13.01 13.01-13.01 7.185 0 13.01 5.825 13.01 13.01" clip-rule="evenodd"/><path fill="#F90" fill-rule="evenodd" d="M42.734 6.99a12.96 12.96 0 0 0-8.735 3.368q-.705.64-1.313 1.377h2.629q.539.656.992 1.378h-4.613q-.414.663-.75 1.378h6.112q.314.669.55 1.377h-7.212q-.226.674-.378 1.377h7.968a13.1 13.1 0 0 1-.377 6.888h-7.213q.237.708.55 1.378h6.112q-.334.713-.75 1.378h-4.612q.452.72.992 1.377h2.628A13 13 0 0 1 34 29.643a12.96 12.96 0 0 0 8.734 3.367c7.185 0 13.01-5.824 13.01-13.01 0-7.184-5.825-13.01-13.01-13.01" clip-rule="evenodd"/><path fill="#006" fill-rule="evenodd" d="M22.229 21.425a2.4 2.4 0 0 0-.316-.023c-.8 0-1.205.275-1.205.818 0 .334.198.546.506.546.575 0 .99-.548 1.015-1.341m1.027 2.39h-1.17l.026-.555c-.356.439-.833.649-1.48.649-.765 0-1.29-.598-1.29-1.466 0-1.307.913-2.07 2.48-2.07.16 0 .365.016.575.042.044-.177.056-.252.056-.348 0-.355-.246-.489-.906-.489a4.7 4.7 0 0 0-1.495.242l.196-1.207c.703-.206 1.168-.284 1.69-.284 1.213 0 1.855.545 1.854 1.574.002.276-.043.616-.114 1.063-.123.777-.386 2.444-.422 2.85M18.75 23.816h-1.412l.81-5.073-1.807 5.073h-.963l-.119-5.044-.85 5.044h-1.322l1.104-6.6h2.031l.123 3.695 1.24-3.694h2.258zM44.479 21.425a2.4 2.4 0 0 0-.315-.023c-.8 0-1.205.275-1.205.818 0 .334.197.546.506.546.575 0 .99-.548 1.014-1.341m1.028 2.39h-1.17l.026-.555c-.357.439-.833.649-1.48.649-.766 0-1.29-.598-1.29-1.466 0-1.307.913-2.07 2.48-2.07.16 0 .364.016.575.042.044-.177.055-.252.055-.348 0-.355-.246-.489-.906-.489a4.7 4.7 0 0 0-1.495.242l.197-1.207c.703-.206 1.167-.284 1.69-.284 1.213 0 1.855.545 1.853 1.574.003.276-.043.616-.114 1.063-.122.777-.386 2.444-.421 2.85M29.533 23.734a3.2 3.2 0 0 1-1.015.175c-.722 0-1.116-.415-1.116-1.18-.01-.237.104-.86.194-1.43.082-.501.613-3.662.613-3.662h1.403l-.164.812h.848l-.191 1.29h-.851c-.163 1.02-.396 2.292-.398 2.46 0 .277.147.398.483.398q.24 0 .381-.05zM33.838 23.69c-.483.148-.948.22-1.44.219-1.573-.002-2.392-.823-2.392-2.394 0-1.835 1.042-3.186 2.457-3.186 1.158 0 1.897.756 1.897 1.942 0 .394-.05.778-.173 1.32H31.39c-.094.779.404 1.103 1.221 1.103a3.3 3.3 0 0 0 1.46-.337zm-.79-3.18c.008-.113.15-.959-.653-.959-.447 0-.767.341-.897.959zM24.103 20.146c0 .678.33 1.146 1.075 1.498.572.27.661.349.661.593 0 .334-.252.485-.81.485a4 4 0 0 1-1.266-.212l-.195 1.24c.321.07.608.134 1.47.159 1.49 0 2.179-.568 2.179-1.794 0-.737-.288-1.17-.996-1.496-.592-.271-.66-.332-.66-.583 0-.29.235-.438.691-.438.277 0 .656.03 1.015.08l.201-1.245a10 10 0 0 0-1.243-.104c-1.58 0-2.127.825-2.122 1.817M40.707 18.471c.392 0 .758.102 1.262.356l.231-1.432c-.207-.081-.935-.559-1.552-.559-.945 0-1.745.47-2.306 1.243-.82-.271-1.158.277-1.57.824l-.367.086c.027-.18.053-.359.044-.54h-1.297c-.177 1.662-.491 3.344-.737 5.006l-.064.36h1.413c.236-1.532.365-2.513.443-3.177l.532-.295c.08-.296.329-.396.828-.384-.065.35-.1.72-.1 1.1 0 1.756.948 2.85 2.468 2.85.391 0 .728-.052 1.248-.194l.248-1.503c-.468.23-.852.338-1.2.338-.82 0-1.318-.606-1.318-1.608 0-1.453.739-2.471 1.794-2.471M52.665 17.217l-.314 1.906c-.386-.508-.8-.876-1.348-.876-.713 0-1.361.54-1.786 1.336a12 12 0 0 1-1.203-.331v.005q.07-.668.062-.808h-1.298c-.176 1.662-.49 3.344-.736 5.006l-.065.36h1.414q.284-1.858.444-3.083c.483-.436.725-.816 1.212-.791a4.6 4.6 0 0 0-.342 1.741c0 1.341.678 2.227 1.705 2.227.518 0 .915-.179 1.302-.593l-.066.5h1.336l1.076-6.6zm-1.766 5.36c-.481 0-.724-.357-.724-1.059 0-1.055.455-1.803 1.095-1.803.485 0 .749.37.749 1.052 0 1.064-.463 1.81-1.12 1.81" clip-rule="evenodd"/><path fill-rule="evenodd" d="M19.157 23.424h-1.412l.81-5.072-1.807 5.072h-.963l-.119-5.043-.85 5.043h-1.323l1.105-6.598h2.03l.058 4.085 1.37-4.085h2.194zM22.635 21.034a2 2 0 0 0-.315-.022c-.8 0-1.206.274-1.206.816 0 .334.198.547.507.547.575 0 .99-.547 1.014-1.341m1.027 2.39h-1.17l.027-.555c-.357.439-.833.648-1.48.648-.766 0-1.29-.598-1.29-1.466 0-1.307.913-2.068 2.48-2.068.16 0 .365.014.575.041.044-.177.055-.253.055-.349 0-.355-.246-.487-.906-.487a4.7 4.7 0 0 0-1.495.24l.196-1.206c.704-.206 1.168-.284 1.69-.284 1.213 0 1.856.545 1.855 1.574.002.275-.044.616-.115 1.063-.122.776-.386 2.444-.421 2.85M42.607 17.003l-.232 1.432c-.504-.253-.87-.356-1.261-.356-1.055 0-1.794 1.02-1.794 2.473 0 1.002.497 1.607 1.318 1.607.348 0 .732-.108 1.2-.339l-.249 1.504c-.52.142-.856.193-1.248.193-1.52 0-2.468-1.093-2.468-2.849 0-2.359 1.31-4.007 3.181-4.007.617 0 1.346.261 1.553.342M44.885 21.034a2 2 0 0 0-.314-.022c-.8 0-1.206.274-1.206.816 0 .334.198.547.506.547.575 0 .99-.547 1.014-1.341m1.028 2.39h-1.17l.026-.555c-.356.439-.833.648-1.48.648-.766 0-1.29-.598-1.29-1.466 0-1.307.912-2.068 2.48-2.068.16 0 .365.014.575.041.044-.177.055-.253.055-.349 0-.355-.245-.487-.905-.487a4.7 4.7 0 0 0-1.495.24l.196-1.206c.703-.206 1.167-.284 1.69-.284 1.213 0 1.855.545 1.854 1.574.003.275-.043.616-.114 1.063-.123.776-.386 2.444-.422 2.85M29.94 23.343a3.2 3.2 0 0 1-1.015.174c-.722 0-1.116-.415-1.116-1.178-.01-.238.104-.861.194-1.43.08-.503.612-3.663.612-3.663h1.404l-.164.812h.72l-.191 1.29h-.724c-.163 1.02-.395 2.292-.398 2.46 0 .278.148.398.484.398q.239 0 .38-.051zM34.245 23.3a4.8 4.8 0 0 1-1.441.217c-1.572 0-2.391-.822-2.391-2.394 0-1.835 1.042-3.185 2.456-3.185 1.159 0 1.898.756 1.898 1.943 0 .393-.052.777-.173 1.32h-2.796c-.095.778.404 1.102 1.22 1.102.502 0 .956-.104 1.46-.338zm-.79-3.182c.008-.112.15-.958-.653-.958-.447 0-.767.341-.897.958zM24.51 19.754c0 .68.329 1.147 1.075 1.5.572.268.66.348.66.591 0 .335-.252.486-.81.486a4 4 0 0 1-1.266-.211l-.194 1.238c.32.07.607.134 1.47.16 1.49 0 2.178-.568 2.178-1.794 0-.738-.288-1.17-.995-1.495-.592-.273-.66-.333-.66-.584 0-.29.234-.44.691-.44.277 0 .656.032 1.015.082l.2-1.244a10 10 0 0 0-1.242-.105c-1.58 0-2.127.825-2.123 1.816M53.389 23.424h-1.336l.066-.5c-.388.415-.785.593-1.302.593-1.027 0-1.706-.884-1.706-2.227 0-1.785 1.053-3.29 2.298-3.29.548 0 .963.224 1.35.733l.312-1.907h1.393zm-2.084-1.24c.658 0 1.12-.745 1.12-1.808 0-.682-.263-1.052-.749-1.052-.64 0-1.095.748-1.095 1.803 0 .702.244 1.057.724 1.057M47.185 18.058c-.176 1.661-.49 3.343-.736 5.006l-.064.36h1.412c.506-3.282.627-3.922 1.42-3.842.126-.672.36-1.26.536-1.556-.592-.124-.922.21-1.355.846.034-.275.097-.542.085-.814zM35.559 18.058c-.178 1.661-.492 3.343-.737 5.006l-.065.36h1.413c.506-3.282.627-3.922 1.419-3.842.127-.672.362-1.26.537-1.556-.591-.124-.922.21-1.354.846.034-.275.096-.542.084-.814z" clip-rule="evenodd"/></svg>