<svg
  fill="none"
  height="66"
  viewBox="0 0 193 66"
  width="193"
  xmlns="http://www.w3.org/2000/svg"
>
  <clipPath id="a">
    <path d="m0 0h128.46v29.852h-128.46z" transform="translate(38.963 18.945)" />
  </clipPath>
  <g clip-path="url(#a)">
    <path
      d="m87.706 36.578c3.051-.561 5.113-2.01 5.004-6.417-.137-5.752-3.728-6.885-10.263-6.885h-5.717v25.52h5.62v-10.157h1.319c1.916 0 2.73 1.03 2.854 3.443.165 3.07.284 5.737.644 6.714h5.837c-.604-1.159-.652-3.367-.825-6.757-.217-4.325-1.084-4.798-4.474-5.46zm-4.339-2.26h-1.018v-6.721h1.018c2.91 0 3.767 1.111 3.767 3.233 0 2.965-1.004 3.488-3.767 3.488zm-44.404-6.725h4.454v21.204h5.644v-21.204h4.579v-4.32h-14.677zm27.912 6.18h-5.081v-10.5h-5.641v25.524h5.64v-10.703h5.079v10.703h6.081v-25.524h-6.078zm34.462 4.099h5.318v-4.308h-5.318v-5.97h6.909v-4.321h-12.553v25.524h12.569v-4.32h-6.928zm15.644-14.6h-5.609v25.525h5.609c8.338 0 10.866-4.576 10.866-12.492v-.54c0-8.566-2.426-12.492-10.866-12.492zm1.173 21.117h-1.141v-16.709h1.141c3.472 0 4.236 2.66 4.237 8.168-.001 5.423-.765 8.54-4.237 8.54zm39.518-25.444h-6.548v25.525h5.668v-8.354h.88c6.727 0 9.751-2.942 9.751-8.606 0-5.497-3.129-8.564-9.751-8.564zm-.095 12.852h-.785v-8.565h.783c2.953 0 4.351 1.107 4.351 4.319 0 3.211-1.395 4.246-4.349 4.246zm-15.613 4.148c0 2.882-.393 4.286-2.536 4.286-2.17 0-2.536-1.404-2.536-4.286v-17h-5.829v16.336c0 6.427 1.612 9.57 8.365 9.57 6.754 0 8.365-3.143 8.365-9.57v-16.336h-5.829z"
      fill="#000"
    />
  </g>
  <g fill="#30d8a4">
    <path
      clip-rule="evenodd"
      d="m28.216 24.964c-.02.032-.039.067-.062.1-.35.539-1.355.594-1.91.753-.947.272-1.912.47-2.871.68-1.495.324-3.33.672-4.568 1.664-2.632 1.884-4.051 4.924-4.665 8.101-.338 1.757-2.628 1.64-2.721-.227-.157-3.162-1.049-6.344-3.232-8.657-1.049-1.112-2.327-1.958-3.699-2.578-.926-.42-4.724-1.198-4.476-2.692.22-1.34 2.484-1.155 3.363-1.275 1.438-.197 2.858-.599 4.152-1.29 3.336-1.783 5.14-5.269 5.958-8.934.121-.543.692-1.331 1.268-1.443.796-.152 1.41 1.012 1.435 1.723.241 6.92 3.664 10.89 10.173 12.24.77.16 2.503.662 1.855 1.835z"
      fill-rule="evenodd"
    />
    <circle cx="35.319" cy="4.415" r="4.415" />
    <path
      clip-rule="evenodd"
      d="m172.846 46.613c.014.023.028.048.044.072.25.385.968.424 1.364.538.677.194 1.366.336 2.051.485 1.068.232 2.378.48 3.263 1.189 1.88 1.346 2.894 3.517 3.332 5.787.241 1.254 1.877 1.17 1.944-.162.111-2.26.749-4.532 2.308-6.184.749-.794 1.663-1.399 2.642-1.842.662-.3 3.374-.856 3.198-1.923-.158-.957-1.775-.825-2.403-.91-1.027-.14-2.041-.428-2.966-.922-2.382-1.273-3.671-3.763-4.255-6.381-.087-.388-.495-.951-.906-1.03-.569-.11-1.007.722-1.025 1.23-.172 4.943-2.617 7.778-7.266 8.743-.55.114-1.788.473-1.325 1.31z"
      fill-rule="evenodd"
    />
    <ellipse cx="160.262" cy="61.97" rx="3.973" ry="3.532" />
  </g>
</svg>
