<svg xmlns="http://www.w3.org/2000/svg" width="68" height="40" fill="none" aria-labelledby="paypal-logo-outline" viewBox="0 0 68 40"><rect width="67" height="39" x=".5" y=".5" stroke="#253B80" rx="1.5"/><path fill="#253B80" fill-rule="evenodd" d="M10.653 13h3.967c1.328 0 2.328.362 2.892 1.044.513.621.683 1.509.505 2.638-.394 2.581-1.902 3.884-4.515 3.884h-1.256a.556.556 0 0 0-.543.48l-.433 2.826a.556.556 0 0 1-.545.48H8.831a.337.337 0 0 1-.327-.393l1.604-10.479a.56.56 0 0 1 .545-.48m2.069 5.294c1.051 0 2.139 0 2.356-1.466.08-.515.015-.888-.193-1.14-.35-.42-1.025-.42-1.741-.42h-.274a.334.334 0 0 0-.327.288l-.42 2.738zM24.578 16.78h1.9c.203 0 .357.188.325.394l-1.027 6.697a.556.556 0 0 1-.544.48H23.52a.337.337 0 0 1-.326-.394l.084-.544s-.938 1.12-2.629 1.12c-.985 0-1.814-.292-2.393-.995-.63-.764-.889-1.86-.707-3.006.349-2.298 2.142-3.936 4.24-3.936.916 0 1.833.206 2.245.82l.132.2.084-.548a.334.334 0 0 1 .327-.287m-2.892 5.678c1.1 0 1.96-.75 2.144-1.869.083-.541-.032-1.032-.322-1.384-.288-.349-.727-.533-1.266-.533-1.082 0-1.958.775-2.13 1.883-.088.544.018 1.032.299 1.375.283.345.724.528 1.275.528M36.595 16.78h-1.91a.55.55 0 0 0-.456.25l-2.633 3.995-1.116-3.84a.555.555 0 0 0-.529-.404h-1.875a.34.34 0 0 0-.314.45l2.102 6.356-1.976 2.875c-.156.227 0 .538.27.538h1.906c.18 0 .35-.09.453-.244l6.349-9.44c.152-.226-.004-.535-.272-.535" clip-rule="evenodd"/><path fill="#179BD7" fill-rule="evenodd" d="M38.947 13h3.967c1.328 0 2.328.361 2.89 1.044.514.621.685 1.509.507 2.638-.394 2.581-1.902 3.884-4.515 3.884H40.54a.556.556 0 0 0-.544.48l-.455 2.97a.39.39 0 0 1-.38.336h-2.036a.337.337 0 0 1-.326-.393l1.604-10.48a.556.556 0 0 1 .544-.478m2.07 5.294c1.051 0 2.139 0 2.355-1.466.08-.515.016-.888-.192-1.14-.349-.42-1.025-.42-1.741-.42h-.274a.33.33 0 0 0-.326.288l-.42 2.738zM52.873 16.78h1.898c.204 0 .36.188.328.394l-1.027 6.697a.556.556 0 0 1-.544.48h-1.71a.338.338 0 0 1-.328-.394l.085-.544s-.938 1.12-2.63 1.12c-.985 0-1.812-.292-2.392-.995-.631-.764-.888-1.86-.707-3.006.35-2.298 2.141-3.936 4.24-3.936.916 0 1.832.206 2.244.82l.133.2.084-.548a.33.33 0 0 1 .326-.287m-2.893 5.678c1.099 0 1.962-.75 2.144-1.869.084-.541-.031-1.032-.322-1.384-.289-.349-.727-.533-1.267-.533-1.081 0-1.956.775-2.128 1.883-.088.544.017 1.032.298 1.375.283.345.725.528 1.275.528M57.011 13.288l-1.628 10.67a.337.337 0 0 0 .326.394h1.637a.555.555 0 0 0 .544-.48l1.606-10.478A.337.337 0 0 0 59.17 13h-1.833a.334.334 0 0 0-.326.288" clip-rule="evenodd"/></svg>