<svg xmlns="http://www.w3.org/2000/svg" width="16" height="16" fill="none" viewBox="0 0 24 24"><path fill="#000" fill-rule="evenodd" d="M12 2C6.477 2 2 6.477 2 12s4.477 10 10 10 10-4.477 10-10S17.523 2 12 2M.5 12C.5 5.649 5.649.5 12 .5S23.5 5.649 23.5 12 18.351 23.5 12 23.5.5 18.351.5 12m11.8-4.222a2.25 2.25 0 0 0-2.503 1.47.75.75 0 0 1-1.415-.497 3.75 3.75 0 0 1 7.288 1.25c0 1.397-1.039 2.343-1.834 2.873-.42.28-.836.487-1.143.624l-.023.01v.773a.75.75 0 0 1-1.5 0V13a.75.75 0 0 1 .512-.711l.003-.001.017-.006.08-.03a6.304 6.304 0 0 0 1.222-.626c.705-.47 1.166-1.024 1.166-1.626v-.001a2.25 2.25 0 0 0-1.87-2.221M11.25 17a.75.75 0 0 1 .75-.75h.01a.75.75 0 0 1 0 1.5H12a.75.75 0 0 1-.75-.75" clip-rule="evenodd"/></svg>