<svg xmlns="http://www.w3.org/2000/svg" width="24" height="24" fill="none" viewBox="0 0 24 24"><g fill="#000"><path d="M3.95 1.2A2.75 2.75 0 0 0 1.2 3.95V8.4h1.5V3.95A1.25 1.25 0 0 1 3.95 2.7H8.4V1.2zM3.95 22.8a2.75 2.75 0 0 1-2.75-2.75V15.6h1.5v4.45a1.25 1.25 0 0 0 1.25 1.25H8.4v1.5zM22.8 20.05a2.75 2.75 0 0 1-2.75 2.75H15.6v-1.5h4.45a1.25 1.25 0 0 0 1.25-1.25V15.6h1.5zM21.994 2.006A2.75 2.75 0 0 1 22.8 3.95V8.4h-1.5V3.95a1.25 1.25 0 0 0-1.25-1.25H15.6V1.2h4.45c.729 0 1.428.29 1.944.806"/><path fill-rule="evenodd" d="M15.706 14.646a5.358 5.358 0 1 0-1.06 1.06l2.007 2.008a.75.75 0 0 0 1.061-1.06zm-4.282-7.08a3.858 3.858 0 1 0 2.667 6.646.8.8 0 0 1 .12-.12 3.858 3.858 0 0 0-2.788-6.525" clip-rule="evenodd"/></g></svg>