<svg xmlns="http://www.w3.org/2000/svg" width="20" height="22" fill="none" viewBox="0 0 20 22"><rect width="19.7" height="22" fill="#7BFFC3" rx="4"/><path fill="#000" d="M10.238 6.09c.333 2.681 1.842 4.1 4.5 4.397.317.035 1.028.169.796.64q-.008.02-.021.04c-.123.222-.524.276-.742.359-.37.135-.752.247-1.128.363-.587.179-1.313.38-1.775.806-.99.826-1.454 2.055-1.594 3.31-.076.697-.998.729-1.1.009-.171-1.223-.638-2.425-1.591-3.247a4.8 4.8 0 0 0-1.574-.87c-.388-.128-1.934-.301-1.888-.888.042-.527.957-.534 1.307-.613A5.2 5.2 0 0 0 7.05 9.75c1.28-.807 1.885-2.225 2.09-3.677.031-.213.233-.54.462-.603.315-.087.602.343.636.62"/></svg>