<svg xmlns="http://www.w3.org/2000/svg" width="71" height="34" aria-labelledby="ssl-icon" viewBox="0 0 71 34"><desc>SSL Icon</desc><path fill="#666" d="M0 34h24.432V16.774H0zm8.643-9.962 2.303 2.304 5.335-5.336 1.713 1.713-7.048 7.048-4.016-4.016zM7.206 9.135c0-2.756 2.244-5 5.02-5 2.756 0 5 2.244 5 5v5.178h4.135V9.135C21.34 4.095 17.246 0 12.226 0 7.186 0 3.09 4.095 3.09 9.135v5.178h4.134V9.135h-.02zm37.248 6.142c0-2.48-1.457-3.898-3.76-4.764l-2.127-.906c-1.693-.61-2.874-1.023-2.874-2.067 0-1.024.886-1.594 2.205-1.594 1.713 0 2.815.511 4.036 1.397l2.008-2.5a8.55 8.55 0 0 0-5.827-2.303c-3.78 0-6.418 2.303-6.418 5.217 0 2.56 1.771 4.055 3.74 4.784l2.264.964c1.674.69 2.717 1.024 2.717 2.264 0 .886-.787 1.536-2.46 1.536-1.694 0-3.328-.748-4.647-1.83l-2.284 2.716c1.87 1.674 4.292 2.52 6.654 2.52 4.332 0 6.773-2.54 6.773-5.434m9.666-4.764-2.126-.906c-1.693-.61-2.874-1.023-2.874-2.067 0-1.024.886-1.594 2.205-1.594 1.713 0 2.815.511 4.036 1.397l2.008-2.5A8.55 8.55 0 0 0 51.54 2.54c-3.78 0-6.418 2.303-6.418 5.217 0 2.56 1.772 4.055 3.74 4.784l2.265.964c1.673.69 2.717 1.024 2.717 2.264 0 .886-.788 1.536-2.461 1.536-1.693 0-3.327-.748-4.646-1.83l-2.284 2.716c1.87 1.674 4.292 2.52 6.654 2.52 4.351 0 6.792-2.52 6.792-5.434-.02-2.48-1.456-3.898-3.78-4.764zm9.214 6.537V2.855h-3.937v17.522H71.13V17.05zm-28.586 9.548-1.063-.453c-.65-.276-1.358-.532-1.358-1.26 0-.69.59-1.103 1.476-1.103.788 0 1.358.276 1.87.709l.512-.63a3.3 3.3 0 0 0-2.343-.945c-1.437 0-2.48.847-2.48 2.008 0 1.103.886 1.654 1.634 1.95l1.083.472c.767.334 1.358.57 1.358 1.378 0 .709-.61 1.2-1.654 1.2a3.16 3.16 0 0 1-2.224-.944l-.571.67c.689.688 1.634 1.121 2.756 1.121 1.673 0 2.678-.964 2.678-2.165 0-1.123-.749-1.634-1.674-2.009zm4.686.472h3.15v-.826h-3.15v-2.382h3.72v-.807H38.47v7.58h4.804v-.828h-3.84zm8.78 2.855c-1.457 0-2.402-1.201-2.402-3.11 0-1.89.945-3.072 2.402-3.072.63 0 1.142.276 1.516.69l.551-.611a2.77 2.77 0 0 0-2.067-.925c-1.968 0-3.406 1.496-3.406 3.937 0 2.48 1.438 3.937 3.308 3.937 1.004 0 1.752-.413 2.343-1.102l-.552-.59c-.452.55-.984.846-1.693.846m7.875-2.126c0 1.575-.689 2.146-1.614 2.146-.906 0-1.595-.571-1.595-2.146v-4.745h-.965v4.725c0 2.166 1.083 3.012 2.56 3.012 1.476 0 2.54-.827 2.54-3.012v-4.725h-.946v4.745zm8.013-2.619c0-1.575-1.103-2.126-2.638-2.126H59.1v7.58h.965v-3.21h1.358l1.831 3.21h1.103l-1.93-3.308c.985-.256 1.674-.965 1.674-2.146zm-2.796 1.457h-1.26v-2.815h1.26c1.182 0 1.831.354 1.831 1.358 0 .985-.65 1.457-1.83 1.457zm5.847.433h3.15v-.826h-3.15v-2.382h3.721v-.807H66.17v7.58h4.824v-.828h-3.84z"/></svg>