<svg xmlns="http://www.w3.org/2000/svg" width="16" height="15" fill="none" viewBox="0 0 16 15"><path fill="#000" d="M15.024 9.206h-.962V5.698s-.008-.064-.016-.096c.008-.024.008-.048.008-.063 0 0 .008-.08.008-.12 0-1.296-.796-2.458-2.069-3.301S8.97.75 7.03.75c-1.94 0-3.683.525-4.955 1.368S.005 4.123.005 5.419c0 1.497.006 2.997 0 4.495 0 .644.2 1.257.557 1.813.358.565.875 1.066 1.512 1.488 1.272.843 3.022 1.368 4.955 1.368h7.995c.533 0 .97-.437.97-.97v-3.437a.974.974 0 0 0-.97-.97M.88 5.49v-.072c0-1.034.677-1.98 1.79-2.673 1.114-.692 2.657-1.121 4.36-1.121 1.702 0 3.245.43 4.359 1.121s1.798 1.64 1.798 2.673c0 .923-.557 1.79-1.488 2.466-.939.668-2.243 1.146-3.739 1.289-.31.024-.62.04-.93.04-1.631 0-3.11-.39-4.217-1.034C1.716 7.543 1 6.66.896 5.682c0 0-.008-.064-.008-.096C.88 5.562.88 5.54.88 5.515zm12.307 2.203v1.512h-2.013c.835-.398 1.52-.915 2.013-1.512m1.925 5.919c0 .047-.04.087-.088.087h-1.472v-2.092a.436.436 0 0 0-.437-.437.436.436 0 0 0-.438.437V13.7h-1.774v-2.092a.435.435 0 0 0-.43-.437.44.44 0 0 0-.437.437V13.7H8.262v-2.092a.44.44 0 0 0-.437-.437.44.44 0 0 0-.438.437V13.7H7.03c-1.702 0-3.245-.43-4.359-1.114-1.113-.692-1.798-1.638-1.798-2.68V7.678c1.218 1.44 3.516 2.41 6.157 2.41.16 0 .319-.007.486-.007h7.509c.048 0 .088.04.088.095z"/><path fill="#000" d="M9.002 4.202C8.51 3.9 7.817 3.717 7.03 3.717c-.787 0-1.463.183-1.956.485-.502.31-.812.732-.812 1.217s.31.915.812 1.217c.5.303 1.185.486 1.956.486.772 0 1.48-.175 1.973-.478.493-.302.804-.732.804-1.225s-.31-.915-.804-1.217m-.207 1.504c-.095.095-.222.19-.397.27-.334.16-.82.278-1.369.278-.548 0-1.026-.119-1.368-.278a1.3 1.3 0 0 1-.39-.27.4.4 0 0 1-.135-.287c0-.087.04-.183.135-.278.088-.096.223-.191.39-.27.342-.168.82-.28 1.368-.28.55 0 1.035.112 1.369.28.175.079.302.174.397.27.088.095.136.19.136.278q-.002.144-.136.287"/></svg>