<svg xmlns="http://www.w3.org/2000/svg" width="20" height="20" aria-labelledby="thumb-icon" viewBox="0 0 50 50"><desc>Thumb up icon</desc><path fill="transparent" d="M15.361 48.805c3.43.798 7.611 1.084 12.414 1.084h.02c1.533 0 3.563 0 5.56-.142 1.967-.139 4.087-.428 5.715-1.086a9.5 9.5 0 0 0 1.916-1.03 7.01 7.01 0 0 0 3.286-5.992 7.2 7.2 0 0 0-.705-3.117 7.43 7.43 0 0 0 2.008-5.133 7.47 7.47 0 0 0-1.508-4.542 8.08 8.08 0 0 0 1.508-4.756c0-1.897-.63-3.666-1.706-5.01a6.36 6.36 0 0 0-5.316-2.77H27.2V8.794A8.686 8.686 0 0 0 18.514.108a1.74 1.74 0 0 0-1.589 1.033L7.664 21.975l-.039.097c-1.983 5.306-3.061 9.711-3.186 13.347-.128 3.672.717 6.672 2.694 8.97 1.945 2.264 4.8 3.614 8.228 4.414z"/><path fill-rule="evenodd" d="M15.361 48.805c3.43.798 7.611 1.084 12.414 1.084h.02c1.533 0 3.563 0 5.56-.142 1.967-.139 4.087-.428 5.715-1.086a9.5 9.5 0 0 0 1.916-1.03 7.01 7.01 0 0 0 3.286-5.992 7.2 7.2 0 0 0-.705-3.117 7.43 7.43 0 0 0 2.008-5.133 7.47 7.47 0 0 0-1.508-4.542 8.08 8.08 0 0 0 1.505-4.756c0-1.897-.628-3.666-1.703-5.01a6.35 6.35 0 0 0-5.316-2.767H27.2v-7.52A8.686 8.686 0 0 0 18.514.108a1.74 1.74 0 0 0-1.589 1.033L7.664 21.975l-.039.097c-1.983 5.306-3.061 9.711-3.186 13.347-.128 3.672.717 6.672 2.694 8.97 1.945 2.264 4.8 3.614 8.228 4.414zM40.858 30.48a3.91 3.91 0 0 1 1.234 2.911c0 1.203-.495 2.234-1.211 2.89h-4.642a1.744 1.744 0 0 0-1.672 2.422 1.74 1.74 0 0 0 1.672 1.058h4.056c.33.57.502 1.217.497 1.875a3.53 3.53 0 0 1-1.778 3.125 6 6 0 0 1-1.25.672c-1.095.445-2.753.706-4.656.842a76 76 0 0 1-5.333.133c-4.708 0-8.578-.286-11.625-.994-3.047-.709-5.1-1.806-6.378-3.292-1.253-1.458-1.96-3.517-1.855-6.578.108-3.089 1.039-7.075 2.953-12.2l8.727-19.639a5.2 5.2 0 0 1 4.122 5.092v9.258a1.74 1.74 0 0 0 1.74 1.742h13.124a2.89 2.89 0 0 1 2.44 1.286q.046.072.1.139a4.54 4.54 0 0 1 .971 2.872c0 1.222-.433 2.272-1.063 2.986a1.8 1.8 0 0 0-.45-.06h-4.059a1.742 1.742 0 0 0 0 3.483h4.056q.142 0 .28-.023" clip-rule="evenodd"/></svg>