<svg xmlns="http://www.w3.org/2000/svg" width="68" height="40" fill="#fff" aria-labelledby="visa-logo-outline" viewBox="0 0 68 40"><rect width="67" height="39" x=".5" y=".5" stroke="#26337a" rx="1.5"/><g fill-rule="evenodd" clip-rule="evenodd"><path fill="#26337a" d="m28.02 26.375 2.05-12.717h3.277l-2.05 12.717zM43.183 13.97a8.1 8.1 0 0 0-2.936-.533c-3.24 0-5.52 1.726-5.54 4.197-.02 1.827 1.628 2.847 2.87 3.454 1.277.623 1.706 1.021 1.701 1.578-.009.852-1.02 1.242-1.961 1.242-1.312 0-2.009-.192-3.087-.667l-.421-.202-.458 2.846c.764.354 2.18.662 3.65.678 3.443 0 5.68-1.705 5.706-4.343.012-1.45-.861-2.548-2.752-3.455-1.145-.59-1.848-.98-1.84-1.578.001-.528.594-1.094 1.877-1.094a5.75 5.75 0 0 1 2.453.489l.294.145zM47.546 21.866c.271-.73 1.305-3.554 1.305-3.554-.02.033.27-.737.435-1.213l.221 1.096s.63 3.035.759 3.671zm4.042-8.195h-2.532c-.786 0-1.374.225-1.718 1.054L42.472 26.38h3.442s.561-1.568.689-1.912l4.196.007c.099.444.4 1.905.4 1.905h3.04zM25.272 13.67l-3.207 8.668-.344-1.762c-.597-2.03-2.458-4.231-4.539-5.334l2.934 11.121 3.468-.002 5.16-12.692z"/><path fill="#ed982d" d="M19.088 13.66h-5.284l-.044.264c4.112 1.053 6.832 3.596 7.961 6.652l-1.148-5.843c-.198-.806-.774-1.044-1.485-1.073"/></g></svg>